<svg xmlns="http://www.w3.org/2000/svg" viewBox="0 0 90.13 119.816"><g transform="translate(-1062.65 -816.644)"><path d="M1067.15,915.02h-4.5v21.44h4.5a8.608,8.608,0,0,0,4.01-.79,5.51,5.51,0,0,0,2.28-2.23,9.075,9.075,0,0,0,1.03-3.38,37.45,37.45,0,0,0,0-8.64,9.133,9.133,0,0,0-1.03-3.38,5.428,5.428,0,0,0-2.28-2.22,8.6,8.6,0,0,0-4.01-.8Zm2.88,10.72a20.117,20.117,0,0,1-.51,5.21c-.33,1.18-.87,1.77-1.6,1.77h-.77V918.76h.77c.73,0,1.27.59,1.6,1.77a20.117,20.117,0,0,1,.51,5.21Z" fill="#c5ebc5"/><path d="M1080,915.02v21.44h9.31v-3.8h-4.81V927.3h3.92v-3.8h-3.92v-4.68h4.81v-3.8Z" fill="#c5ebc5"/><path d="M1107.68,936.46l-4.87-21.44h-4.29l-4.84,21.44h4.35l.76-4.1h3.74l.77,4.1Zm-8.24-7.59,1.1-5.82a2.8,2.8,0,0,0,.04-.42l.03-.58c.02-.2.03-.36.04-.51l.01-.21q0,.525.03.99a4.635,4.635,0,0,0,.09.73l1.08,5.82h-2.42Z" fill="#c5ebc5"/><path d="M1112.38,936.46h9.34v-4.01h-4.84V915.02h-4.5Z" fill="#c5ebc5"/><path d="M1126.76,915.02v21.44h9.31v-3.8h-4.81V927.3h3.92v-3.8h-3.92v-4.68h4.81v-3.8Z" fill="#c5ebc5"/><path d="M1146.1,915.02h-4.68v21.44h4.5v-6.98h.55l1.53,6.98h4.78l-2.48-8.08a4.231,4.231,0,0,0,.97-1.2,6.824,6.824,0,0,0,.58-1.53,11.662,11.662,0,0,0,.27-1.75c.05-.61.08-1.24.08-1.9a19.366,19.366,0,0,0-.18-2.71,5.4,5.4,0,0,0-.83-2.22,4.392,4.392,0,0,0-1.86-1.5,7.823,7.823,0,0,0-3.23-.55Zm-.18,10.63v-7.02h.49c.39,0,.67.28.84.83a9.353,9.353,0,0,1,.26,2.64c0,2.36-.36,3.55-1.1,3.55Z" fill="#c5ebc5"/><path d="M1098.98,857.58c-8.95,10.13-26.04,4.81-28.54,19.52-2.74,16.09,19,12.09,36.29,12.09,7.75,0,30.26,1.35,34.59-1.99a9.817,9.817,0,0,0,3.88-8.77c-1-15.65-21.23-10.82-27.02-22.51,1.97-4.21,10.18-10.44,6.08-25.01-8.07-28.69-43.58-9.49-32.06,17,2.92,6.7,5.3,6.04,6.78,9.67Z" fill="#9bcc9b" fill-rule="evenodd"/><path d="M1083.42,883.93h49.12c9.58.01,11.67-8.55-1.12-13.58-9.99-3.93-5.8,3.77-23.01,4.01-17.4.25-14.08-7.62-24.54-3.8-3.93,1.44-7.22,2.87-8.17,6.75-1.36,5.53,3.14,6.62,7.72,6.62Z" fill="#c5ebc5" fill-rule="evenodd"/><path d="M1105.2,822.4c-15.71,4.14-11.11,35.35,5.05,31.18,6.33-1.64,10.8-10.11,9.66-18.41-.96-6.95-6.66-14.89-14.71-12.77Z" fill="#c5ebc5" fill-rule="evenodd"/></g></svg>