<svg xmlns="http://www.w3.org/2000/svg" width="1951.98" height="1385.78" viewBox="0 0 1951.98 1385.78">
  <g id="Layer_x0020_1" transform="translate(10.471 -779.99)">
    <path id="Path_91" data-name="Path 91" d="M1851.89,1482.74c0,350.78-411.13,635.16-918.27,635.16-507.16,0-918.27-284.38-918.27-635.16V999.73c0-83.69,68.48-152.17,152.17-152.17H1699.74c83.69,0,152.18,68.48,152.18,152.17v483.01h-.03Z" fill="#5e995e" fill-rule="evenodd"/>
    <path id="Path_92" data-name="Path 92" d="M459.88,779.99a57.72,57.72,0,1,1,0,115.44H199.37a94.884,94.884,0,0,0-94.44,94.44v483c0,169.78,109.66,308.85,243.98,401.75,176.75,122.26,403.79,175.69,616.58,175.69s439.84-53.43,616.59-175.69c134.32-92.9,243.98-231.97,243.98-401.75l-.01-483a94.867,94.867,0,0,0-94.43-94.44H1471.11a57.72,57.72,0,0,1,0-115.44h260.51a210.351,210.351,0,0,1,209.89,209.89v483.01c0,209.09-127.24,381.2-293.94,496.51-196.04,135.59-445.8,196.37-682.05,196.37S479.5,2104.99,283.47,1969.4c-166.7-115.31-293.94-287.42-293.94-496.51V989.88A210.351,210.351,0,0,1,199.42,779.99H459.88Z" fill="#9bcc9b" fill-rule="evenodd"/>
    <path id="Path_93" data-name="Path 93" d="M459.88,816.03H199.37A174.315,174.315,0,0,0,25.52,989.88v483.01c0,197.09,121.89,358.62,278.4,466.87,189.9,131.35,432.59,189.97,661.55,189.97s471.64-58.62,661.54-189.97c156.52-108.25,278.41-269.78,278.41-466.87l-.01-483.01a174.315,174.315,0,0,0-173.84-173.85H1471.06a21.68,21.68,0,1,0,0,43.36h260.51a130.921,130.921,0,0,1,130.48,130.48v483c0,182.22-115.33,331.65-259.51,431.39-182.84,126.48-416.74,182.1-637.09,182.1s-454.24-55.62-637.08-182.1c-144.2-99.72-259.51-249.17-259.51-431.39v-483A130.921,130.921,0,0,1,199.34,859.39H459.85a21.68,21.68,0,1,0,0-43.36h.03Z" fill="#c5ebc5" fill-rule="evenodd"/>
    <path id="Path_94" data-name="Path 94" d="M676.23,1308.91H789.1v10.07H676.23Zm465.61,0h112.88v10.07H1141.84Z" fill="#9bcc9b" fill-rule="evenodd"/>
    <path id="Path_95" data-name="Path 95" d="M988.88,1618.99h112.73a16.517,16.517,0,0,1,16.47,16.47v176.71a16.514,16.514,0,0,1-16.47,16.46H988.88a16.506,16.506,0,0,1-16.46-16.46V1635.46A16.514,16.514,0,0,1,988.88,1618.99Z" fill="#5e995e" fill-rule="evenodd"/>
    <path id="Path_96" data-name="Path 96" d="M528.24,1613.9,427.92,1510.89l-.01.02-.05-.07a9.214,9.214,0,0,0-12.94-.23l.01.02-.06.05L253.3,1668.03a9.211,9.211,0,0,0-.17,13l100.31,103,.01-.01.06.06a9.2,9.2,0,0,0,12.93.23l-.01-.01.07-.06L528.07,1626.9a9.235,9.235,0,0,0,.17-13Zm-91.66-111.56,100.39,103.07a21.465,21.465,0,0,1-.4,30.22l-161.5,157.29.01.01-.07.05a21.44,21.44,0,0,1-30.16-.34l-.01.01-.06-.07L244.4,1689.51a21.429,21.429,0,0,1,.4-30.21L406.3,1502l-.01-.01.06-.05a21.427,21.427,0,0,1,30.16.35l.02-.02.05.07h0Z" fill="#9bcc9b"/>
    <path id="Path_97" data-name="Path 97" d="M1403.02,1606.31l100.32-103,.01.01.06-.07a9.213,9.213,0,0,1,12.93-.22l-.01.01.07.06,161.56,157.34a9.211,9.211,0,0,1,.17,13l-100.31,103.01-.01-.02-.06.07a9.2,9.2,0,0,1-12.93.23l.01-.01-.07-.06L1403.2,1619.31a9.223,9.223,0,0,1-.18-13Zm91.66-111.55L1394.3,1597.83a21.441,21.441,0,0,0,.39,30.21l161.51,157.3-.02.01.07.05a21.428,21.428,0,0,0,30.16-.35l.02.02.05-.07,100.38-103.07a21.441,21.441,0,0,0-.4-30.22l-161.5-157.29.01-.01-.06-.06a21.452,21.452,0,0,0-30.16.35l-.02-.01-.05.07h0Z" fill="#9bcc9b"/>
    <path id="Path_98" data-name="Path 98" d="M1168.06,1711.3l135.51-48.06.01.01.08-.03a9.209,9.209,0,0,1,11.7,5.51l-.02.01.04.08,75.39,212.55a9.221,9.221,0,0,1-5.6,11.74l-135.51,48.05v-.01l-.08.03a9.209,9.209,0,0,1-11.7-5.51h.02l-.04-.08-75.39-212.55a9.217,9.217,0,0,1,5.59-11.74Zm131.52-59.57-135.6,48.1a21.442,21.442,0,0,0-12.99,27.28l75.35,212.47-.02.01.04.08a21.435,21.435,0,0,0,27.21,13.01l.01.02.07-.03,135.61-48.09a21.458,21.458,0,0,0,12.99-27.29l-75.35-212.47.01-.01-.03-.07a21.439,21.439,0,0,0-27.21-13.02l-.01-.02-.08.03Z" fill="#9bcc9b"/>
    <path id="Path_99" data-name="Path 99" d="M766.23,1708.26,630.72,1660.2v.02l-.08-.04a9.242,9.242,0,0,0-11.71,5.52h.02l-.04.08-75.38,212.55a9.227,9.227,0,0,0,5.59,11.74l135.51,48.06v-.02l.08.04a9.209,9.209,0,0,0,11.7-5.51l-.01-.01.03-.08L771.82,1720a9.227,9.227,0,0,0-5.59-11.74ZM634.71,1648.7l135.6,48.09a21.447,21.447,0,0,1,13,27.28l-75.36,212.48h.02l-.04.08a21.429,21.429,0,0,1-27.21,13.02v.02l-.08-.03-135.6-48.1a21.436,21.436,0,0,1-13-27.28l75.36-212.48h-.02l.04-.08a21.451,21.451,0,0,1,27.21-13.02v-.01l.08.03h0Z" fill="#9bcc9b"/>
    <path id="Path_100" data-name="Path 100" d="M1038.66,1721.71l-143.78.41v.02l-.09-.01a9.219,9.219,0,0,0-9.16,9.14h.02l-.01.08.64,225.53a9.236,9.236,0,0,0,9.22,9.16l143.79-.41-.01-.02.09.01a9.2,9.2,0,0,0,9.16-9.14l-.02.01.01-.09-.64-225.53a9.236,9.236,0,0,0-9.22-9.16Zm-143.9-11.76,143.87-.42a21.442,21.442,0,0,1,21.43,21.31l.65,225.44h.02l-.01.09a21.443,21.443,0,0,1-21.23,21.42v.02l-.08-.01-143.88.42a21.442,21.442,0,0,1-21.43-21.31l-.65-225.44h-.02l.01-.09a21.443,21.443,0,0,1,21.23-21.42v-.02l.09.01h0Z" fill="#9bcc9b"/>
    <path id="Path_101" data-name="Path 101" d="M429.8,1288.77c.17,1.74.35,3.49.57,5.26.57,4.85,1.29,9.54,2.15,14.1,7.4,39.3,25.43,75.71,48.55,107.97,29.27,40.84,66.55,74.95,100.84,99.96,53.93,39.33,114.14,67.94,176.55,87.11,68.09,20.92,138.86,30.54,207.02,30.54s138.93-9.64,207.02-30.54c62.41-19.17,122.62-47.78,176.55-87.11,34.29-25.01,71.58-59.12,100.84-99.96,23.11-32.26,41.15-68.67,48.55-107.97q1.29-6.825,2.15-14.09c.22-1.78.41-3.53.57-5.27h-91.61c-5.78,22.28-19.38,47.14-35.71,70.25-22.21,31.45-49.78,60.06-69.43,74.4-47.24,34.46-100.33,59.33-155.27,75.93-60.69,18.33-123.7,26.63-183.66,26.63-59.94,0-122.97-8.3-183.66-26.63-54.94-16.6-108.03-41.49-155.27-75.93-19.66-14.34-47.22-42.95-69.43-74.4-16.33-23.12-29.93-47.98-35.71-70.25H429.8Zm-16.25,7.25q-.885-7.38-1.27-15.33l-.44-8.88H535.19l1.29,6.93c4.02,21.33,17.66,46.73,34.48,70.55,21.23,30.04,47.21,57.14,65.53,70.5,45.51,33.19,96.9,57.23,150.23,73.35,59.02,17.84,120.38,25.91,178.76,25.91s119.73-8.07,178.75-25.91c53.34-16.12,104.73-40.16,150.24-73.35,18.32-13.36,44.3-40.46,65.52-70.5,16.83-23.82,30.46-49.22,34.49-70.55l1.29-6.93H1519.1l-.44,8.88c-.26,5.29-.69,10.41-1.27,15.33q-.87,7.455-2.35,15.22c-7.91,42.02-27,80.67-51.4,114.74-30.34,42.35-69.04,77.74-104.69,103.73-55.55,40.53-117.43,69.96-181.52,89.64-69.87,21.45-142.32,31.34-211.99,31.34s-142.12-9.87-211.99-31.34c-64.07-19.67-125.97-49.11-181.52-89.64-35.63-25.98-74.34-61.38-104.69-103.73-24.41-34.07-43.49-72.71-51.4-114.74q-1.47-7.755-2.35-15.22h.06Z" fill="#9bcc9b"/>
    <path id="Path_102" data-name="Path 102" d="M850.79,1624.58c137.43,20.03,267.91,4.67,391.04-47.14l5.13,15.79c-120.66,50.94-247.83,68.4-380.29,50.25l-15.88-18.9Z" fill="#9bcc9b" fill-rule="evenodd"/>
    <path id="Path_103" data-name="Path 103" d="M761.45,1092.76h22.6v-84.51h14.67V990.06H746.78v18.19h14.67Z" fill="#9bcc9b"/>
    <path id="_1" data-name="1" d="M799.89,1041.41a150.673,150.673,0,0,0,1.62,23.77,50.118,50.118,0,0,0,5.21,16.43,23.07,23.07,0,0,0,9.46,9.54,30.694,30.694,0,0,0,14.38,3.08,29.932,29.932,0,0,0,14.16-3.08,23.275,23.275,0,0,0,9.39-9.54,50.6,50.6,0,0,0,5.21-16.43,176.277,176.277,0,0,0,0-47.54,50.6,50.6,0,0,0-5.21-16.43,23.215,23.215,0,0,0-9.39-9.54,29.812,29.812,0,0,0-14.16-3.08,30.573,30.573,0,0,0-14.38,3.08,23.011,23.011,0,0,0-9.46,9.54,50.118,50.118,0,0,0-5.21,16.43A150.672,150.672,0,0,0,799.89,1041.41Zm22.6,0q0-10.71.51-17.31a54.632,54.632,0,0,1,1.54-10.2c.69-2.4,1.54-3.99,2.57-4.77a5.576,5.576,0,0,1,3.45-1.17,4.973,4.973,0,0,1,3.3,1.17q1.395,1.17,2.35,4.77a60.591,60.591,0,0,1,1.46,10.2q.525,6.6.52,17.31,0,10.86-.52,17.39a60.558,60.558,0,0,1-1.46,10.12q-.96,3.6-2.35,4.77a4.973,4.973,0,0,1-3.3,1.17,5.576,5.576,0,0,1-3.45-1.17c-1.03-.78-1.88-2.35-2.57-4.7a53.045,53.045,0,0,1-1.54-10.12q-.51-6.6-.51-17.46Z" fill="#9bcc9b"/>
    <path id="_2" data-name="2" d="M867.68,1092.76h19.37l-2.06-67.2a32.019,32.019,0,0,0-.22-3.59,10.756,10.756,0,0,1,.22-3.74,10.94,10.94,0,0,0,0,3.52c.2,1.17.39,2.2.59,3.08l11.15,67.93h24.65l11.15-67.93a22.684,22.684,0,0,0,.37-3.67,34.1,34.1,0,0,1,.37-4.11c-.1,1.47-.15,2.91-.15,4.33v4.18l-2.05,67.2h19.36V990.06H923.14l-13.2,72.77a10.51,10.51,0,0,0-.3,2.28,15.353,15.353,0,0,1-.14,1.98l-.44.88-.44-.88a13.82,13.82,0,0,1-.15-1.98,11.079,11.079,0,0,0-.29-2.28l-13.21-72.77H867.68v102.7Z" fill="#9bcc9b"/>
    <path id="_3" data-name="3" d="M959.24,1092.76H978.6l-2.05-67.2a32.019,32.019,0,0,0-.22-3.59,10.52,10.52,0,0,1,.22-3.74,10.4,10.4,0,0,0,0,3.52c.2,1.17.39,2.2.59,3.08l11.15,67.93h24.65l11.15-67.93a22.7,22.7,0,0,0,.37-3.67,34.2,34.2,0,0,1,.36-4.11c-.1,1.47-.14,2.91-.14,4.33v4.18l-2.06,67.2h19.37V990.06H1014.7l-13.21,72.77a11.079,11.079,0,0,0-.29,2.28,13.811,13.811,0,0,1-.15,1.98l-.44.88-.44-.88a13.761,13.761,0,0,1-.14-1.98,10.51,10.51,0,0,0-.3-2.28l-13.2-72.77H959.24v102.7Z" fill="#9bcc9b"/>
    <path id="_4" data-name="4" d="M1065.76,1092.76h22.74v-35.21l19.81-67.49h-21.86l-8.37,38.44a25.2,25.2,0,0,0-.73,5.13c-.1,1.96-.15,3.92-.15,5.87q-.285-3.225-.36-5.94a23.543,23.543,0,0,0-.66-5.06l-8.66-38.44h-22.01l20.25,67.49Z" fill="#9bcc9b"/>
    <path id="_5" data-name="5" d="M1109.48,1021.01h15.26l11.15-30.95h-21.42Z" fill="#9bcc9b"/>
    <path id="_6" data-name="6" d="M1184.17,1064.59a45.315,45.315,0,0,0-1.84-13.94,35.087,35.087,0,0,0-4.55-9.39,33.042,33.042,0,0,0-5.94-6.45q-3.225-2.64-5.94-5.21a26.829,26.829,0,0,1-4.55-5.58,14.606,14.606,0,0,1-1.83-7.7,12.539,12.539,0,0,1,1.17-5.87,7.757,7.757,0,0,1,3.01-3.23,11.389,11.389,0,0,1,4.03-1.32,32.235,32.235,0,0,1,4.11-.29,24.929,24.929,0,0,1,6.02.66c1.76.44,3.08.81,3.96,1.1l1.32-16.58c-.69-.2-1.66-.42-2.94-.66s-2.71-.47-4.32-.66-3.3-.37-5.07-.52-3.47-.21-5.13-.21q-13.65,0-20.25,6.6t-6.6,21.86a44.465,44.465,0,0,0,1.83,13.94,30.556,30.556,0,0,0,10.49,15.11,76.767,76.767,0,0,1,5.95,5.06,25.473,25.473,0,0,1,4.54,5.73,15.953,15.953,0,0,1,1.84,8.14,15.457,15.457,0,0,1-.96,5.94,8.634,8.634,0,0,1-2.64,3.6,9.235,9.235,0,0,1-4.03,1.76,27.411,27.411,0,0,1-4.99.44,47.768,47.768,0,0,1-5.94-.52,54.188,54.188,0,0,1-6.68-1.24l-1.17,16.72a20.564,20.564,0,0,0,4.18,1.03c1.81.29,3.74.54,5.79.73s4.11.35,6.17.44,3.76.15,5.13.15a37.842,37.842,0,0,0,9.32-1.17,19.9,19.9,0,0,0,8.29-4.4,22.916,22.916,0,0,0,5.94-9.03q2.28-5.79,2.28-15.04Z" fill="#9bcc9b"/>
    <path id="_7" data-name="7" d="M825.79,1168.65a126.936,126.936,0,0,1,.88-16.51,38.376,38.376,0,0,1,2.64-10.41,11.275,11.275,0,0,1,4.48-5.43,12.982,12.982,0,0,1,6.53-1.54c1.95,0,3.74.07,5.35.22a8.916,8.916,0,0,1,4.04,1.24l2.93-18.78a43.314,43.314,0,0,0-8.14-2.34,48.742,48.742,0,0,0-8.73-.74,37.212,37.212,0,0,0-13.65,2.35,22.015,22.015,0,0,0-10.19,8.44q-4.185,6.075-6.39,16.58-2.19,10.485-2.2,26.63a132.226,132.226,0,0,0,1.98,25.09q1.98,9.975,5.94,15.84a21.689,21.689,0,0,0,9.98,8.29,37.485,37.485,0,0,0,14.09,2.42,56.279,56.279,0,0,0,8.65-.66,33.714,33.714,0,0,0,8.07-2.27l-1.46-19.51a23.52,23.52,0,0,1-5.43,1.46,38.658,38.658,0,0,1-5.87.44,15.439,15.439,0,0,1-5.87-1.02,8.642,8.642,0,0,1-4.18-4.26,29.973,29.973,0,0,1-2.57-9.32,117.867,117.867,0,0,1-.88-16.21Z" fill="#9bcc9b"/>
    <path id="_8" data-name="8" d="M920.13,1218.54l-23.32-102.71H876.26l-23.18,102.71h20.84l3.66-19.66h17.9l3.67,19.66Zm-39.46-36.39,5.28-27.88a11.642,11.642,0,0,0,.22-1.98l.14-2.79c.05-.93.1-1.73.15-2.42l.07-1.03q0,2.505.15,4.77a21.54,21.54,0,0,0,.44,3.45l5.14,27.88H880.67Z" fill="#9bcc9b"/>
    <path id="_9" data-name="9" d="M967.97,1190.36a44.9,44.9,0,0,0-1.84-13.93,35.085,35.085,0,0,0-4.54-9.39,32.857,32.857,0,0,0-5.95-6.46q-3.225-2.64-5.94-5.21a27.036,27.036,0,0,1-4.55-5.57,14.668,14.668,0,0,1-1.83-7.71,12.568,12.568,0,0,1,1.17-5.87,7.727,7.727,0,0,1,3.01-3.22,11,11,0,0,1,4.03-1.32,30.61,30.61,0,0,1,4.11-.3,24.926,24.926,0,0,1,6.02.66c1.76.44,3.08.81,3.96,1.1l1.32-16.58c-.68-.19-1.66-.41-2.93-.66s-2.72-.46-4.33-.66-3.3-.36-5.06-.51-3.48-.22-5.14-.22q-13.65,0-20.25,6.6t-6.6,21.86a44.419,44.419,0,0,0,1.83,13.94,30.433,30.433,0,0,0,10.49,15.11q3.24,2.505,5.95,5.07a25.688,25.688,0,0,1,4.55,5.72,16.083,16.083,0,0,1,1.83,8.14,15.725,15.725,0,0,1-.95,5.95,8.771,8.771,0,0,1-2.65,3.59,9.121,9.121,0,0,1-4.03,1.76,27.411,27.411,0,0,1-4.99.44,49.363,49.363,0,0,1-5.94-.51,56.34,56.34,0,0,1-6.68-1.25l-1.17,16.73a20.663,20.663,0,0,0,4.18,1.02c1.81.3,3.74.54,5.8.74s4.1.34,6.16.44,3.76.14,5.13.14a37.843,37.843,0,0,0,9.32-1.17,19.725,19.725,0,0,0,8.29-4.4,22.769,22.769,0,0,0,5.94-9.02q2.28-5.8,2.28-15.05Z" fill="#9bcc9b"/>
    <path id="_10" data-name="10" d="M973.98,1218.54h21.57V1115.83H973.98Z" fill="#9bcc9b"/>
    <path id="_11" data-name="11" d="M1024.9,1218.54v-38.15a102.224,102.224,0,0,0-.59-10.49c-.39-3.77-.69-7.41-.88-10.93q.435,4.4,1.1,8.87a36.3,36.3,0,0,0,1.25,6.09l14.08,44.61h20.4V1115.83h-20.4v56.19c-.1-2.15-.19-4.18-.29-6.08a24.942,24.942,0,0,0-.44-4.04l-14.23-46.07h-20.54v102.71h20.54Z" fill="#9bcc9b"/>
    <path id="_12" data-name="12" d="M1067.01,1167.18a150.706,150.706,0,0,0,1.61,23.77,50.5,50.5,0,0,0,5.21,16.44,23.1,23.1,0,0,0,9.46,9.53,30.6,30.6,0,0,0,14.38,3.08,29.758,29.758,0,0,0,14.16-3.08,23.248,23.248,0,0,0,9.39-9.53,50.5,50.5,0,0,0,5.21-16.44,176.277,176.277,0,0,0,0-47.54,50.358,50.358,0,0,0-5.21-16.43,23.336,23.336,0,0,0-9.39-9.54,29.875,29.875,0,0,0-14.16-3.08,30.724,30.724,0,0,0-14.38,3.08,23.187,23.187,0,0,0-9.46,9.54,50.355,50.355,0,0,0-5.21,16.43A150.794,150.794,0,0,0,1067.01,1167.18Zm22.59,0q0-10.71.52-17.31a54.059,54.059,0,0,1,1.54-10.2c.68-2.39,1.54-3.98,2.56-4.77a5.576,5.576,0,0,1,3.45-1.17,4.973,4.973,0,0,1,3.3,1.17q1.4,1.185,2.35,4.77a59.7,59.7,0,0,1,1.47,10.2q.51,6.6.51,17.31,0,10.86-.51,17.39a59.186,59.186,0,0,1-1.47,10.12q-.96,3.6-2.35,4.77a4.981,4.981,0,0,1-3.3,1.18,5.585,5.585,0,0,1-3.45-1.18c-1.02-.78-1.88-2.35-2.56-4.69a52.521,52.521,0,0,1-1.54-10.13q-.525-6.6-.52-17.46Z" fill="#9bcc9b"/>
    <path id="Path_104" data-name="Path 104" d="M829.57,1331.89h35.38a2.944,2.944,0,0,0,1.98-.59,4.186,4.186,0,0,0,1.1-2.1h1.4v15.83h-1.4a4.142,4.142,0,0,0-1.1-2.1,2.894,2.894,0,0,0-1.98-.6H819.91a5.872,5.872,0,0,0-2.93.51,3.584,3.584,0,0,0-1.14,2.22h-1.39c-.03-1.42-.05-2.34-.05-2.73a27.3,27.3,0,0,1,1.24-8.97,25.164,25.164,0,0,1,9.32-12.14,73.564,73.564,0,0,1,11.48-6.2l7.16-3.28a22.59,22.59,0,0,0,7.25-4.84,8.572,8.572,0,0,0,2.22-5.89,6.967,6.967,0,0,0-2.65-5.9q-2.64-2.025-7.69-2.02a22.583,22.583,0,0,0-11.42,3.02c-3.42,1.93-5.12,3.91-5.12,5.96a10.155,10.155,0,0,0,.67,2.67l-.93.98-11.31-12.19,1.02-.93a6.328,6.328,0,0,0,2.37.75,2.49,2.49,0,0,0,1.19-.28,20.5,20.5,0,0,0,2.08-1.7q9.33-8.115,23.03-8.11,9.855,0,15.75,4.85a16.165,16.165,0,0,1,5.97,13.15,17.388,17.388,0,0,1-5.71,13.35,38.188,38.188,0,0,1-10.12,6.29l-6.52,2.95q-1.02.495-4.63,1.95a41.592,41.592,0,0,0-6.17,2.92,12.47,12.47,0,0,0-3.31,3.17Z" fill="#9bcc9b"/>
    <path id="_1-2" data-name="1" d="M929.19,1283.26q11.43,0,18.99,7.44,8.5,8.4,8.5,23.03a35.49,35.49,0,0,1-1.28,9.3,30,30,0,0,1-3.48,8.23,25.327,25.327,0,0,1-10.19,9.3,27.546,27.546,0,0,1-12.5,2.82q-11.415,0-18.95-7.49a26.727,26.727,0,0,1-5.61-8.17,36.041,36.041,0,0,1-2.89-14.43,33.017,33.017,0,0,1,4.76-17.95,25.189,25.189,0,0,1,10.19-9.26A27.8,27.8,0,0,1,929.19,1283.26Zm0,9.83a12.316,12.316,0,0,0-10.75,6.01q-3.69,5.565-3.7,13.83t3.7,13.83a12.7,12.7,0,0,0,21.58,0,24,24,0,0,0,3.69-13.57q0-8.655-3.69-14.09a12.588,12.588,0,0,0-10.83-6.01Z" fill="#9bcc9b"/>
    <path id="_2-2" data-name="2" d="M996.57,1305.27v-15.39h1.39a6.01,6.01,0,0,0,.9,2.05,1.673,1.673,0,0,0,1.31.47,5.528,5.528,0,0,0,1.19-.18l3.65-.94v-2.51a2.936,2.936,0,0,0-.6-1.97,4.3,4.3,0,0,0-2.1-1.1v-1.39h17.66v1.39a4.265,4.265,0,0,0-2.1,1.09,2.846,2.846,0,0,0-.59,1.97v49.08a2.984,2.984,0,0,0,.59,2,4.348,4.348,0,0,0,2.1,1.1v1.39h-17.66v-1.39a4.3,4.3,0,0,0,2.1-1.1,2.933,2.933,0,0,0,.6-2v-36.67l-3.99.97a4.1,4.1,0,0,0-2.01.97,5.091,5.091,0,0,0-1.05,2.16h-1.39Z" fill="#9bcc9b"/>
    <path id="_3-2" data-name="3" d="M1061.71,1339l7.48-13.89,1.19.59a7.483,7.483,0,0,0-.25,1.65q0,1.71,2.71,3.4a20.868,20.868,0,0,0,5.83,2.32,27.345,27.345,0,0,0,6.8.91,19.8,19.8,0,0,0,12.11-3.7,15.721,15.721,0,0,0,4.87-5.87,25.594,25.594,0,0,0,1.97-8.93,25.789,25.789,0,0,1-18.85,7.19,27.822,27.822,0,0,1-15.79-4.38,17.84,17.84,0,0,1-7.9-14.99,17.219,17.219,0,0,1,7.6-14.67q7.4-5.37,18.7-5.37,12.315,0,19.29,6.21a24.605,24.605,0,0,1,6.88,10.47,38.233,38.233,0,0,1,2.16,12.8q0,13.575-8.36,21.95-8.685,8.685-22.47,8.69a39.851,39.851,0,0,1-8.72-.87,50.456,50.456,0,0,1-9.09-3.18,7.356,7.356,0,0,0-2.77-.8,2.3,2.3,0,0,0-1.43.55,10,10,0,0,1-.82.64l-1.14-.72Zm26.13-46.17c-4.34,0-7.85,1.08-10.56,3.21a8.687,8.687,0,0,0,0,13.77c2.68,2.13,6.21,3.21,10.56,3.21,4.37,0,7.9-1.08,10.58-3.21a8.273,8.273,0,0,0,3.39-6.78,8.488,8.488,0,0,0-3.39-6.99C1095.8,1293.92,1092.26,1292.86,1087.84,1292.83Z" fill="#9bcc9b"/>
    <path id="Path_105" data-name="Path 105" d="M1252.08,1533.92l7.73,13.3a3.653,3.653,0,0,0,1.04,1.24,1.854,1.854,0,0,0,1.25.28l.56.97-7.07,4.1-.56-.96a2.039,2.039,0,0,0,.38-1.25,3.689,3.689,0,0,0-.56-1.5l-19.83-34.14a3.671,3.671,0,0,0-1.04-1.26,1.96,1.96,0,0,0-1.26-.29l-.57-.97,14.14-8.21a12.529,12.529,0,0,1,4.27-1.68,7.078,7.078,0,0,1,3.75.55,12.8,12.8,0,0,1,4.09,2.91,25.108,25.108,0,0,1,3.77,5,22.131,22.131,0,0,1,2.93,7.88,8.746,8.746,0,0,1-.64,5.36,10.64,10.64,0,0,1-4.24,3.95l-8.14,4.72Zm-3.86-6.66,7.56-4.39a5.245,5.245,0,0,0,2.67-2.7,4.588,4.588,0,0,0-.09-2.33,11.174,11.174,0,0,0-1.22-2.91,10.579,10.579,0,0,0-1.9-2.45,4.51,4.51,0,0,0-1.98-1.24c-.92-.23-2.15.1-3.67.98l-7.56,4.39,6.19,10.65Zm34.77,1.54,13.54-8.68a1,1,0,0,0,.51-.89,4.607,4.607,0,0,0-.5-1.69l.53-.34,6.49,10.14-.53.34a4.69,4.69,0,0,0-1.33-1.16,1.017,1.017,0,0,0-1.02.09l-19.4,12.42-.6-.94a2,2,0,0,0,.32-1.26,3.75,3.75,0,0,0-.64-1.5l-21.27-33.23a3.909,3.909,0,0,0-1.1-1.21,1.953,1.953,0,0,0-1.28-.23l-.6-.94,6.88-4.41.61.94a1.752,1.752,0,0,0-.33,1.25,3.769,3.769,0,0,0,.65,1.51l19.07,29.79Zm31.65-26.65-9.71,6.72,2.29,6.44a9.353,9.353,0,0,0,.92,1.98,2.124,2.124,0,0,0,2.26.99l.64.92-7.12,4.94-.64-.93a2.171,2.171,0,0,0,.42-1.45,11.907,11.907,0,0,0-.76-2.71l-12.5-34.94a11.235,11.235,0,0,0-1.18-2.51,2.442,2.442,0,0,0-2.2-1.22l-.64-.92,7.63-5.29.64.92a2.061,2.061,0,0,0,.22,2.31,8.251,8.251,0,0,0,1.58,1.64l28.66,23.86a15.116,15.116,0,0,0,2.7,1.94,2.325,2.325,0,0,0,1.68.18l.64.92-7.94,5.51-.64-.93a1.913,1.913,0,0,0-.17-2.46,8.975,8.975,0,0,0-1.53-1.53l-5.25-4.38Zm-4.98-4.31-12.84-11.15,5.87,15.99Zm18.11-16.28,10.29,12.18a3.989,3.989,0,0,0,1.25,1.06,2.165,2.165,0,0,0,1.3.06l.72.86-6.24,5.27-.73-.86a2.024,2.024,0,0,0,.15-1.28,3.842,3.842,0,0,0-.83-1.41l-10.29-12.18-20.14-10.73a22.825,22.825,0,0,0-3.68-1.69,2.473,2.473,0,0,0-1.87.09l-.72-.86,7.91-6.68.72.85a1.9,1.9,0,0,0,.38,2.45,10.384,10.384,0,0,0,2.34,1.55l11.7,6.53-4.37-12.72a9.386,9.386,0,0,0-1.16-2.6,2.568,2.568,0,0,0-1.12-.8,1.648,1.648,0,0,0-1.2.05l-.72-.86,7.73-6.53.72.86a2.48,2.48,0,0,0-.4,1.83,23.176,23.176,0,0,0,1.05,3.9l7.21,21.66Zm36.18-21.99-8.68,8,3.15,6.06a9.33,9.33,0,0,0,1.19,1.83,2.128,2.128,0,0,0,2.38.68l.75.82-6.37,5.87-.76-.83a2.165,2.165,0,0,0,.22-1.49,11.86,11.86,0,0,0-1.13-2.58l-17.2-32.88a10.768,10.768,0,0,0-1.52-2.33,2.418,2.418,0,0,0-2.34-.9l-.76-.82,6.83-6.29.76.82a2.072,2.072,0,0,0,.53,2.25,8.525,8.525,0,0,0,1.79,1.41l31.69,19.68a15.628,15.628,0,0,0,2.93,1.55,2.355,2.355,0,0,0,1.7-.06l.76.83-7.11,6.54-.76-.82a1.93,1.93,0,0,0-.51-2.42,9.1,9.1,0,0,0-1.73-1.31l-5.81-3.61Zm-5.52-3.57-14.26-9.28,8.02,15.03Zm3.06-22.55,21.24,18.77a3.69,3.69,0,0,0,1.38.87,2.039,2.039,0,0,0,1.29-.12l.84.74-5.07,5.74-.84-.75a1.939,1.939,0,0,0-.04-1.29,3.592,3.592,0,0,0-1.03-1.27l-29.57-26.16a3.827,3.827,0,0,0-1.36-.84,2,2,0,0,0-1.3.12l-.83-.74,5.88-6.66.84.75a1.534,1.534,0,0,0,.64,1.65,3.851,3.851,0,0,0,1.7.8l29.65,6.86-20.73-18.33a3.71,3.71,0,0,0-1.35-.85,2.006,2.006,0,0,0-1.3.13l-.84-.74,5.08-5.74.84.74a1.973,1.973,0,0,0,.03,1.3,3.705,3.705,0,0,0,1.01,1.24l29.57,26.16a3.742,3.742,0,0,0,1.39.86,1.973,1.973,0,0,0,1.29-.12l.84.74-5.46,6.17-.84-.74a1.386,1.386,0,0,0-.56-1.57,6.349,6.349,0,0,0-2.42-.89l-29.97-6.83Zm40.04-2.43-32.37-22.56a3.671,3.671,0,0,0-1.47-.7,1.954,1.954,0,0,0-1.27.27l-.92-.64,8.35-11.98c1.83-2.63,3.77-4.27,5.82-4.94,2.95-.94,6.56-.64,10.8.88a45.52,45.52,0,0,1,10.65,5.72q9.9,6.9,12.72,13.94a10.529,10.529,0,0,1,.79,5.54,13.629,13.629,0,0,1-2.48,5.55l-8.35,11.98-.92-.64a2.034,2.034,0,0,0-.18-1.28,3.734,3.734,0,0,0-1.17-1.14Zm-.07-7.04,4.11-5.9a7.155,7.155,0,0,0,1.58-5.2q-.825-5.1-9.35-11.04c-4.11-2.87-7.65-4.52-10.59-4.95a7.365,7.365,0,0,0-4.13.4,8.125,8.125,0,0,0-3.18,2.9l-4.11,5.9,25.67,17.89Zm6.71-58.69,20.94,17.95a14.745,14.745,0,0,0,2.05,1.68,2.277,2.277,0,0,0,2.63-.22l.99.53-3.96,7.43-.98-.53c.14-.89-.35-1.64-1.45-2.23a24.822,24.822,0,0,0-2.94-.95l-33.89-9.54a17.468,17.468,0,0,0-3.53-.73,2.305,2.305,0,0,0-1.69.59l-.99-.53,4.26-8.01.99.53a1.945,1.945,0,0,0,1.22,2.01,11.377,11.377,0,0,0,2.13.78l24.19,6.98-19.24-16.58a12.615,12.615,0,0,0-1.69-1.32,1.906,1.906,0,0,0-2.39.19l-.99-.52,4.47-8.41.99.53a2.259,2.259,0,0,0,1.35,2.19,11.457,11.457,0,0,0,1.96.68l24.25,6.87-18.96-15.94a13.793,13.793,0,0,0-2.19-1.62,1.905,1.905,0,0,0-2.4.29l-.99-.53,4.23-7.94.98.53a2.732,2.732,0,0,0,.46,1.74,19.878,19.878,0,0,0,2.6,2.47l26.85,22.78a18.682,18.682,0,0,0,2.64,2.01,1.9,1.9,0,0,0,2.48-.22l.99.53-4.01,7.53-.99-.52c.19-.91-.26-1.67-1.38-2.26a18.069,18.069,0,0,0-3-.92l-25.99-7.3Zm38.7-15.74-37.2-13.23a3.793,3.793,0,0,0-1.57-.28,2.013,2.013,0,0,0-1.16.6l-1.05-.37,2.74-7.7,1.05.37a1.814,1.814,0,0,0,.51,1.19,3.738,3.738,0,0,0,1.4.78l37.2,13.23a3.76,3.76,0,0,0,1.63.29,1.908,1.908,0,0,0,1.14-.6l1.05.38-2.74,7.7-1.05-.38a2.047,2.047,0,0,0-.52-1.19A3.793,3.793,0,0,0,1446.87,1349.55Zm-21.79-24.69,27.22,7.91a3.734,3.734,0,0,0,1.62.19,2.04,2.04,0,0,0,1.11-.66l1.08.31-2.14,7.36-1.08-.31a1.946,1.946,0,0,0-.58-1.16,3.715,3.715,0,0,0-1.47-.71l-37.92-11.03a3.674,3.674,0,0,0-1.58-.18,2,2,0,0,0-1.12.66l-1.07-.31,2.48-8.53,1.07.31c.08.6.51,1,1.29,1.23a3.843,3.843,0,0,0,1.88-.01l29.73-6.46-26.56-7.72a3.717,3.717,0,0,0-1.59-.18,1.891,1.891,0,0,0-1.12.66l-1.07-.31,2.14-7.36,1.07.31a1.985,1.985,0,0,0,.59,1.16,3.648,3.648,0,0,0,1.43.7l37.92,11.03a3.734,3.734,0,0,0,1.62.19,2.025,2.025,0,0,0,1.12-.67l1.07.32-2.3,7.91-1.07-.32c-.06-.57-.45-.96-1.19-1.18a6.244,6.244,0,0,0-2.56.23l-30.02,6.62Z" fill="#9bcc9b"/>
    <path id="Path_106" data-name="Path 106" d="M488.17,1315.24l-15.2,2.38a3.726,3.726,0,0,0-1.53.52,1.853,1.853,0,0,0-.72,1.07l-1.1.17-1.27-8.07,1.11-.18a2.007,2.007,0,0,0,1.02.8,3.633,3.633,0,0,0,1.6.02l39.01-6.11a3.83,3.83,0,0,0,1.55-.51,2.006,2.006,0,0,0,.73-1.08l1.1-.17,2.54,16.15a12.552,12.552,0,0,1,.02,4.59,7.178,7.178,0,0,1-1.87,3.3,13.14,13.14,0,0,1-4.2,2.76,25.565,25.565,0,0,1-6.02,1.7,22.4,22.4,0,0,1-8.41-.13,8.739,8.739,0,0,1-4.76-2.54,10.593,10.593,0,0,1-2.15-5.38l-1.45-9.29Zm7.6-1.19,1.36,8.63a5.289,5.289,0,0,0,1.55,3.47,4.6,4.6,0,0,0,2.2.76,11.944,11.944,0,0,0,6.13-.96,4.561,4.561,0,0,0,1.88-1.4c.55-.78.68-2.04.41-3.77l-1.36-8.64Zm-12.46,31.15,4.76,15.37a1.021,1.021,0,0,0,.73.72,4.514,4.514,0,0,0,1.76-.03l.19.6-11.5,3.57-.19-.6a4.5,4.5,0,0,0,1.47-.98,1.015,1.015,0,0,0,.19-1.01l-6.82-22,1.07-.33a1.988,1.988,0,0,0,1.13.64,3.84,3.84,0,0,0,1.62-.22l37.68-11.67a3.782,3.782,0,0,0,1.46-.74,1.905,1.905,0,0,0,.56-1.17l1.07-.33,2.42,7.81-1.07.33a1.8,1.8,0,0,0-1.11-.65,3.744,3.744,0,0,0-1.63.23l-33.79,10.46Zm18.72,35.78-4.88-10.76-6.74,1.11a8.966,8.966,0,0,0-2.12.56,2.116,2.116,0,0,0-1.38,2.04l-1.02.46-3.58-7.89,1.02-.46a2.133,2.133,0,0,0,1.35.67,11.867,11.867,0,0,0,2.81-.26l36.61-6.05a10.824,10.824,0,0,0,2.68-.72,2.422,2.422,0,0,0,1.59-1.94l1.02-.47,3.84,8.46-1.02.46a2.088,2.088,0,0,0-2.31-.2,8.761,8.761,0,0,0-1.9,1.26l-28.6,23.94a15.04,15.04,0,0,0-2.38,2.31,2.323,2.323,0,0,0-.48,1.62l-1.02.47-4-8.8,1.02-.47a1.919,1.919,0,0,0,2.46.28,9.279,9.279,0,0,0,1.78-1.24l5.25-4.38Zm5.12-4.12,13.27-10.65-16.78,2.92,3.51,7.73Zm12.69,19.71L506.3,1405a3.809,3.809,0,0,0-1.22,1.07,2.1,2.1,0,0,0-.25,1.28l-.95.59-4.32-6.94.95-.59a2.087,2.087,0,0,0,1.25.33,3.728,3.728,0,0,0,1.51-.62l13.54-8.42,13.53-18.38a23.876,23.876,0,0,0,2.21-3.39,2.5,2.5,0,0,0,.18-1.87l.95-.59,5.47,8.8-.95.59a1.9,1.9,0,0,0-2.47.02,10.351,10.351,0,0,0-1.87,2.1l-8.16,10.62,13.22-2.48a9.623,9.623,0,0,0,2.74-.77,2.615,2.615,0,0,0,.96-1,1.6,1.6,0,0,0,.12-1.19l.95-.59,5.35,8.59-.95.59a2.546,2.546,0,0,0-1.76-.66,23.78,23.78,0,0,0-4.02.48Zm17.65,37.15-7.34-9.25-6.27,2.71a9.318,9.318,0,0,0-1.92,1.05,2.1,2.1,0,0,0-.84,2.32l-.88.7-5.39-6.79.88-.69a2.208,2.208,0,0,0,1.48.32,11.363,11.363,0,0,0,2.65-.94l34.05-14.74a11.36,11.36,0,0,0,2.43-1.35,2.414,2.414,0,0,0,1.07-2.27l.88-.7,5.77,7.27-.87.7a2.059,2.059,0,0,0-2.29.37,8.255,8.255,0,0,0-1.54,1.68l-21.94,30.16a15.455,15.455,0,0,0-1.75,2.81,2.337,2.337,0,0,0-.07,1.7l-.88.69-6.01-7.56.88-.7a1.914,1.914,0,0,0,2.44-.33,8.77,8.77,0,0,0,1.43-1.63Zm3.97-5.24,10.29-13.54-15.57,6.9Zm22.34,4.71-20.23,19.85a3.787,3.787,0,0,0-.97,1.31,2.013,2.013,0,0,0,.04,1.3l-.8.79-5.37-5.47.8-.79a1.963,1.963,0,0,0,1.3.06,3.874,3.874,0,0,0,1.34-.94l28.18-27.65a3.636,3.636,0,0,0,.94-1.29,2.006,2.006,0,0,0-.03-1.3l.8-.78,6.22,6.34-.8.78a1.55,1.55,0,0,0-1.7.52,3.989,3.989,0,0,0-.92,1.65l-8.93,29.08,19.75-19.38a3.587,3.587,0,0,0,.93-1.29,1.883,1.883,0,0,0-.03-1.3l.8-.78,5.37,5.47-.8.78a1.954,1.954,0,0,0-1.3-.05,3.494,3.494,0,0,0-1.31.91l-28.19,27.65a3.632,3.632,0,0,0-.96,1.32,2.075,2.075,0,0,0,.03,1.3l-.8.78-5.77-5.88.8-.79a1.392,1.392,0,0,0,1.62-.45,6.445,6.445,0,0,0,1.05-2.34l8.94-29.41Zm.15,40.04,25.56-30.05a3.8,3.8,0,0,0,.84-1.4,1.931,1.931,0,0,0-.15-1.29l.73-.85,11.12,9.47q3.66,3.1,4.36,6.26.975,4.545-1.92,10.66a45.56,45.56,0,0,1-6.71,10.06q-7.815,9.2-15.1,11.32a10.559,10.559,0,0,1-5.59.25,13.62,13.62,0,0,1-5.28-3l-11.13-9.46.72-.86a2.021,2.021,0,0,0,1.3-.06,3.778,3.778,0,0,0,1.25-1.05Zm7.01.61,5.48,4.66a7.123,7.123,0,0,0,5.02,2.06c3.44-.21,7.39-2.96,11.89-8.24,3.25-3.81,5.23-7.18,5.94-10.07a7.367,7.367,0,0,0,0-4.15,8.058,8.058,0,0,0-2.58-3.43l-5.47-4.66Zm58.02,12.96-20.43,18.52a15.042,15.042,0,0,0-1.92,1.82,2.271,2.271,0,0,0-.12,2.63l-.64.92-6.88-4.85.65-.92c.87.26,1.67-.13,2.39-1.15a24.546,24.546,0,0,0,1.32-2.8l13.71-32.43a17.644,17.644,0,0,0,1.18-3.41,2.334,2.334,0,0,0-.38-1.75l.65-.91,7.41,5.23-.64.92a1.929,1.929,0,0,0-2.15.95,11.2,11.2,0,0,0-1.05,2.02l-9.96,23.12,18.87-17.01a11.14,11.14,0,0,0,1.51-1.51,1.88,1.88,0,0,0,.11-2.39l.65-.92,7.78,5.5-.65.91a2.247,2.247,0,0,0-2.34,1.06,12.226,12.226,0,0,0-.92,1.87l-9.86,23.19,18.19-16.81a14.316,14.316,0,0,0,1.89-1.97,1.913,1.913,0,0,0,.01-2.42l.65-.91,7.34,5.18-.64.92a2.743,2.743,0,0,0-1.79.24,20.3,20.3,0,0,0-2.78,2.26l-25.97,23.78a19.2,19.2,0,0,0-2.33,2.37,1.916,1.916,0,0,0-.09,2.49l-.64.91-6.97-4.92.64-.92c.88.31,1.68-.05,2.42-1.09a19.191,19.191,0,0,0,1.29-2.86l10.49-24.86Zm7.59,39.26,19.85-34.13a3.843,3.843,0,0,0,.56-1.5,1.917,1.917,0,0,0-.38-1.24l.57-.97,7.06,4.11-.56.97a1.74,1.74,0,0,0-1.26.28,3.7,3.7,0,0,0-1.03,1.23l-19.85,34.14a3.713,3.713,0,0,0-.58,1.54,1.9,1.9,0,0,0,.38,1.23l-.57.97-7.06-4.11.56-.97a2.037,2.037,0,0,0,1.27-.29,3.8,3.8,0,0,0,1.04-1.26Zm28.95-16.19-13.31,25.03a3.648,3.648,0,0,0-.52,1.54,2.051,2.051,0,0,0,.42,1.23l-.53.99-6.76-3.6.53-.98a2.031,2.031,0,0,0,1.25-.34,3.737,3.737,0,0,0,.99-1.3l18.55-34.86a3.775,3.775,0,0,0,.5-1.51,1.968,1.968,0,0,0-.42-1.23l.52-.99,7.85,4.17-.53.99a1.543,1.543,0,0,0-1.46,1.01,3.836,3.836,0,0,0-.38,1.84l.24,30.43,13-24.43a3.811,3.811,0,0,0,.5-1.52,2.007,2.007,0,0,0-.42-1.23l.52-.98,6.77,3.59-.53.99a1.908,1.908,0,0,0-1.25.34,3.691,3.691,0,0,0-.98,1.26l-18.54,34.86a3.832,3.832,0,0,0-.52,1.55,2.073,2.073,0,0,0,.42,1.23l-.52.99-7.28-3.87.53-.99a1.389,1.389,0,0,0,1.4-.92,6.422,6.422,0,0,0,.3-2.55l-.34-30.74Z" fill="#9bcc9b"/>
    <path id="Path_107" data-name="Path 107" d="M814.9,1524l-16.58,91.46,15.73,2.85a26.086,26.086,0,0,0,7.14.28,13.991,13.991,0,0,0,7.05-2.84,22.576,22.576,0,0,0,6.13-7.59q2.76-5.1,4.39-14.12a50.521,50.521,0,0,0,.72-16.26q-1-6.735-6.31-9.71,3.825-.93,6.57-5.36a34.432,34.432,0,0,0,4.08-11.88q2.01-11.1-1.37-16.77-3.375-5.685-12.78-7.38L814.9,1524Zm-.49,79.8,5.09-28.09,2.01.36a4.084,4.084,0,0,1,2.68,1.64,7.7,7.7,0,0,1,1.26,3.4,19.863,19.863,0,0,1,.07,4.8q-.24,2.715-.79,5.73a31.061,31.061,0,0,1-3.09,9.69q-1.965,3.42-5.32,2.82l-1.91-.35Zm7.88-43.51,3.55-19.6,1.06.19a4.318,4.318,0,0,1,3.55,2.81q.87,2.31-.05,7.41a20.9,20.9,0,0,1-2.5,7.24,4.051,4.051,0,0,1-4.36,2.18l-1.25-.23ZM838.41,1622l29.41,4.33,2.54-17.21-15.24-2.24,11.01-74.75-14.18-2.08Zm73.78,8.47-7.94-93.9-13.6-1.1-22.87,91.4,13.8,1.12,3.87-17.54,11.85.96.99,17.93Zm-23.48-34.94,5.54-24.86a15.09,15.09,0,0,0,.29-1.78l.3-2.51c.1-.83.19-1.56.27-2.17l.13-.92c-.13,1.5-.21,2.93-.26,4.31a24.479,24.479,0,0,0,.05,3.13l1.36,25.42-7.68-.62Zm39.63-8.96q.45-9.015,1.31-14.89a45.218,45.218,0,0,1,2.21-9.33,10.054,10.054,0,0,1,3.21-4.76,6.894,6.894,0,0,1,4.4-1.18,27.365,27.365,0,0,1,3.54.37,4.855,4.855,0,0,1,2.63,1.26l2.77-16.88a23.157,23.157,0,0,0-5.3-2.39,24.085,24.085,0,0,0-5.76-.94,18.885,18.885,0,0,0-9.16,1.68q-4.095,1.92-7.14,7.3t-4.96,14.78a198.136,198.136,0,0,0-2.42,46.74q.885,9.075,3.25,14.51a16.565,16.565,0,0,0,6.26,7.82,19.105,19.105,0,0,0,9.24,2.64,27.762,27.762,0,0,0,5.77-.32,18.143,18.143,0,0,0,5.46-1.79l-.12-17.69a12.2,12.2,0,0,1-3.67,1.15,19.773,19.773,0,0,1-3.91.21,7.739,7.739,0,0,1-3.85-1.12,7.122,7.122,0,0,1-2.59-3.98,35.042,35.042,0,0,1-1.29-8.5q-.315-5.535.12-14.69Zm25.91,45.58,14.33-.23-.65-39.96,6.59,39.86,15.31-.25-9.04-46.46,7.83-46.47-14.52.23-6.36,40.87-.66-40.76-14.33.23,1.5,92.94Zm59.73-23.28h0l-3.44-70.69-14.31.7,3.43,70.55c.13,2.83-.23,4.76-1.09,5.77a4.082,4.082,0,0,1-2.95,1.61,18.281,18.281,0,0,1-2.39-.02c-.62-.06-1.29-.16-2.02-.3l.25,15.14a14.975,14.975,0,0,0,4.01,1.07,25.834,25.834,0,0,0,5.62.32,13.019,13.019,0,0,0,5.54-1.46,11.192,11.192,0,0,0,4.29-4.13,20.369,20.369,0,0,0,2.57-7.37,51.385,51.385,0,0,0,.49-11.19Zm48.04,18.41-22.96-91.39-13.61,1.11-7.84,93.88,13.8-1.12.99-17.93,11.86-.96,3.86,17.54Zm-28.8-30.7,1.46-25.43a17.276,17.276,0,0,0,0-1.8l-.11-2.52c-.03-.84-.06-1.57-.08-2.19l-.02-.93c.12,1.5.27,2.93.44,4.29a25.554,25.554,0,0,0,.55,3.09l5.44,24.87-7.68.62Zm37.57-16.42q-1.02-8.97-1.11-14.9a44.779,44.779,0,0,1,.68-9.57,10.09,10.09,0,0,1,2.4-5.22,6.831,6.831,0,0,1,4.15-1.87,28.575,28.575,0,0,1,3.55-.21,4.945,4.945,0,0,1,2.8.82l.01-17.11a23.606,23.606,0,0,0-5.62-1.5,24.694,24.694,0,0,0-5.83,0,18.949,18.949,0,0,0-8.77,3.14q-3.735,2.565-5.87,8.35t-2.51,15.39a197.435,197.435,0,0,0,5.15,46.52,48.5,48.5,0,0,0,5.55,13.8,16.444,16.444,0,0,0,7.43,6.7,19.115,19.115,0,0,0,9.55,1.12,27.649,27.649,0,0,0,5.65-1.24,18.337,18.337,0,0,0,5.09-2.66l-2.97-17.43a12.706,12.706,0,0,1-3.43,1.73,18.994,18.994,0,0,1-3.83.83,7.838,7.838,0,0,1-3.98-.48,7.141,7.141,0,0,1-3.2-3.51,35.55,35.55,0,0,1-2.65-8.18,146.522,146.522,0,0,1-2.24-14.52Zm26.42,42.22,14.1-2.56-7.13-39.32,12.98,38.26,15.06-2.73-16.46-44.38.18-47.12-14.3,2.59.37,41.36-7.27-40.11-14.1,2.55Z" fill="#9bcc9b"/>
  </g>
</svg>
