<?xml version="1.0" encoding="UTF-8"?>
<!DOCTYPE svg PUBLIC "-//W3C//DTD SVG 1.1//EN" "http://www.w3.org/Graphics/SVG/1.1/DTD/svg11.dtd">
<!-- Creator: CorelDRAW 2019 (64-Bit) -->
<svg xmlns="http://www.w3.org/2000/svg" xml:space="preserve" width="2480px" height="3508px" version="1.1" style="shape-rendering:geometricPrecision; text-rendering:geometricPrecision; image-rendering:optimizeQuality; fill-rule:evenodd; clip-rule:evenodd"
viewBox="0 0 2480 3507.43"
 xmlns:xlink="http://www.w3.org/1999/xlink"
 xmlns:xodm="http://www.corel.com/coreldraw/odm/2003">
 <defs>
  <style type="text/css">
   <![CDATA[
    .fil1 {fill:#9BCC9B}
    .fil2 {fill:#C5EBC5}
    .fil0 {fill:#C5EBC5;fill-rule:nonzero}
   ]]>
  </style>
 </defs>
 <g id="Layer_x0020_1">
  <metadata id="CorelCorpID_0Corel-Layer"/>
  <g id="_2063236195232">
   <path class="fil0" d="M1067.15 915.02l-4.5 0 0 21.44 4.5 0c1.67,0 3.01,-0.26 4.01,-0.79 1,-0.54 1.76,-1.28 2.28,-2.23 0.53,-0.94 0.87,-2.07 1.03,-3.38 0.16,-1.31 0.25,-2.75 0.25,-4.32 0,-1.57 -0.09,-3.01 -0.25,-4.32 -0.16,-1.31 -0.5,-2.43 -1.03,-3.38 -0.52,-0.95 -1.28,-1.69 -2.28,-2.22 -1,-0.53 -2.34,-0.8 -4.01,-0.8zm2.88 10.72c0,2.29 -0.17,4.02 -0.51,5.21 -0.33,1.18 -0.87,1.77 -1.6,1.77l-0.77 0 0 -13.96 0.77 0c0.73,0 1.27,0.59 1.6,1.77 0.34,1.19 0.51,2.92 0.51,5.21z"/>
   <polygon id="1" class="fil0" points="1080,915.02 1080,936.46 1089.31,936.46 1089.31,932.66 1084.5,932.66 1084.5,927.3 1088.42,927.3 1088.42,923.5 1084.5,923.5 1084.5,918.82 1089.31,918.82 1089.31,915.02 "/>
   <path id="2" class="fil0" d="M1107.68 936.46l-4.87 -21.44 -4.29 0 -4.84 21.44 4.35 0 0.76 -4.1 3.74 0 0.77 4.1 4.38 0zm-8.24 -7.59l1.1 -5.82c0.02,-0.09 0.03,-0.22 0.04,-0.42l0.03 -0.58c0.02,-0.2 0.03,-0.36 0.04,-0.51l0.01 -0.21c0,0.35 0.01,0.68 0.03,0.99 0.02,0.32 0.05,0.56 0.09,0.73l1.08 5.82 -2.42 0z"/>
   <polygon id="3" class="fil0" points="1112.38,936.46 1121.72,936.46 1121.72,932.45 1116.88,932.45 1116.88,915.02 1112.38,915.02 "/>
   <polygon id="4" class="fil0" points="1126.76,915.02 1126.76,936.46 1136.07,936.46 1136.07,932.66 1131.26,932.66 1131.26,927.3 1135.18,927.3 1135.18,923.5 1131.26,923.5 1131.26,918.82 1136.07,918.82 1136.07,915.02 "/>
   <path id="5" class="fil0" d="M1146.1 915.02l-4.68 0 0 21.44 4.5 0 0 -6.98 0.55 0 1.53 6.98 4.78 0 -2.48 -8.08c0.39,-0.33 0.71,-0.73 0.97,-1.2 0.25,-0.47 0.44,-0.98 0.58,-1.53 0.13,-0.55 0.22,-1.13 0.27,-1.75 0.05,-0.61 0.08,-1.24 0.08,-1.9 0,-0.96 -0.06,-1.86 -0.18,-2.71 -0.13,-0.84 -0.4,-1.58 -0.83,-2.22 -0.43,-0.63 -1.05,-1.13 -1.86,-1.5 -0.8,-0.37 -1.88,-0.55 -3.23,-0.55zm-0.18 10.63l0 -7.02 0.49 0c0.39,0 0.67,0.28 0.84,0.83 0.18,0.55 0.26,1.43 0.26,2.64 0,2.36 -0.36,3.55 -1.1,3.55l-0.49 0z"/>
   <g>
    <path class="fil1" d="M1098.98 857.58c-8.95,10.13 -26.04,4.81 -28.54,19.52 -2.74,16.09 19,12.09 36.29,12.09 7.75,0 30.26,1.35 34.59,-1.99 2.53,-1.96 4.13,-4.87 3.88,-8.77 -1,-15.65 -21.23,-10.82 -27.02,-22.51 1.97,-4.21 10.18,-10.44 6.08,-25.01 -8.07,-28.69 -43.58,-9.49 -32.06,17 2.92,6.7 5.3,6.04 6.78,9.67z"/>
    <path class="fil2" d="M1083.42 883.93l49.12 0c9.58,0.01 11.67,-8.55 -1.12,-13.58 -9.99,-3.93 -5.8,3.77 -23.01,4.01 -17.4,0.25 -14.08,-7.62 -24.54,-3.8 -3.93,1.44 -7.22,2.87 -8.17,6.75 -1.36,5.53 3.14,6.62 7.72,6.62z"/>
    <path class="fil2" d="M1105.2 822.4c-15.71,4.14 -11.11,35.35 5.05,31.18 6.33,-1.64 10.8,-10.11 9.66,-18.41 -0.96,-6.95 -6.66,-14.89 -14.71,-12.77z"/>
   </g>
  </g>
  <g id="_2063236190432">
   <g>
    <path class="fil2" d="M1257.35 863.96c-8.95,10.12 -26.04,4.8 -28.55,19.51 -2.73,16.09 19,12.09 36.3,12.09 7.75,0 30.26,1.35 34.59,-1.99 2.53,-1.96 4.13,-4.87 3.88,-8.77 -1,-15.65 -21.23,-10.82 -27.02,-22.51 1.96,-4.21 10.18,-10.44 6.08,-25.01 -8.07,-28.69 -43.58,-9.49 -32.06,17 2.92,6.7 5.29,6.05 6.78,9.68z"/>
    <path class="fil1" d="M1241.79 890.3l49.11 0c9.59,0.01 11.68,-8.55 -1.11,-13.58 -9.99,-3.93 -5.8,3.77 -23.01,4.01 -17.4,0.25 -14.08,-7.61 -24.54,-3.79 -3.93,1.43 -7.22,2.86 -8.18,6.74 -1.35,5.53 3.15,6.62 7.73,6.62z"/>
    <path class="fil1" d="M1263.57 828.78c-15.71,4.13 -11.11,35.34 5.05,31.17 6.33,-1.64 10.8,-10.11 9.66,-18.41 -0.96,-6.95 -6.66,-14.88 -14.71,-12.76z"/>
   </g>
   <path class="fil0" d="M1225.67 915.51l-4.66 0 0 21.44 4.51 0 0 -7.04 0.82 0c1.17,0 2.1,-0.21 2.81,-0.62 0.7,-0.41 1.24,-0.95 1.61,-1.64 0.36,-0.68 0.6,-1.46 0.71,-2.34 0.12,-0.88 0.17,-1.79 0.17,-2.73 0,-0.98 -0.05,-1.9 -0.17,-2.77 -0.11,-0.87 -0.37,-1.62 -0.79,-2.25 -0.42,-0.63 -1.02,-1.13 -1.81,-1.5 -0.78,-0.37 -1.85,-0.55 -3.2,-0.55zm-0.15 10.35l0 -6.46 0.49 0c0.43,0 0.73,0.24 0.9,0.73 0.17,0.49 0.26,1.32 0.26,2.49 0,1.14 -0.08,1.97 -0.24,2.48 -0.17,0.51 -0.47,0.76 -0.92,0.76l-0.49 0z"/>
   <polygon id="1" class="fil0" points="1236.77,936.95 1246.12,936.95 1246.12,932.94 1241.28,932.94 1241.28,915.51 1236.77,915.51 "/>
   <path id="2" class="fil0" d="M1264.17 936.95l-4.87 -21.44 -4.29 0 -4.83 21.44 4.34 0 0.77 -4.1 3.74 0 0.76 4.1 4.38 0zm-8.24 -7.6l1.11 -5.82c0.02,-0.08 0.03,-0.22 0.04,-0.41l0.03 -0.58c0.01,-0.2 0.02,-0.36 0.03,-0.51l0.02 -0.21c0,0.35 0.01,0.68 0.03,0.99 0.02,0.32 0.05,0.56 0.09,0.72l1.07 5.82 -2.42 0z"/>
   <path id="3" class="fil0" d="M1271.45 936.95l4.75 0 0 -7.35 4.13 -14.09 -4.56 0 -1.75 8.02c-0.08,0.31 -0.13,0.67 -0.15,1.08 -0.02,0.4 -0.03,0.81 -0.03,1.22 -0.04,-0.45 -0.07,-0.86 -0.08,-1.24 -0.01,-0.38 -0.05,-0.73 -0.13,-1.06l-1.81 -8.02 -4.6 0 4.23 14.09 0 7.35z"/>
   <polygon id="4" class="fil0" points="1285.03,915.51 1285.03,936.95 1294.35,936.95 1294.35,933.15 1289.54,933.15 1289.54,927.79 1293.46,927.79 1293.46,923.99 1289.54,923.99 1289.54,919.31 1294.35,919.31 1294.35,915.51 "/>
   <path id="5" class="fil0" d="M1304.38 915.51l-4.69 0 0 21.44 4.51 0 0 -6.98 0.55 0 1.53 6.98 4.78 0 -2.48 -8.09c0.38,-0.32 0.71,-0.72 0.96,-1.19 0.26,-0.47 0.45,-0.98 0.58,-1.53 0.14,-0.55 0.23,-1.14 0.28,-1.75 0.05,-0.61 0.08,-1.24 0.08,-1.9 0,-0.96 -0.07,-1.86 -0.19,-2.71 -0.12,-0.85 -0.4,-1.59 -0.83,-2.22 -0.42,-0.63 -1.04,-1.13 -1.85,-1.5 -0.81,-0.37 -1.88,-0.55 -3.23,-0.55zm-0.18 10.63l0 -7.02 0.49 0c0.38,0 0.67,0.28 0.84,0.83 0.17,0.55 0.26,1.43 0.26,2.63 0,2.37 -0.37,3.56 -1.1,3.56l-0.49 0z"/>
  </g>
 </g>
</svg>
