<svg xmlns="http://www.w3.org/2000/svg" viewBox="0 0 90.05 113.936"><g transform="translate(-1221.01 -823.014)"><path d="M1257.35,863.96c-8.95,10.12-26.04,4.8-28.55,19.51-2.73,16.09,19,12.09,36.3,12.09,7.75,0,30.26,1.35,34.59-1.99a9.817,9.817,0,0,0,3.88-8.77c-1-15.65-21.23-10.82-27.02-22.51,1.96-4.21,10.18-10.44,6.08-25.01-8.07-28.69-43.58-9.49-32.06,17,2.92,6.7,5.29,6.05,6.78,9.68Z" fill="#c5ebc5" fill-rule="evenodd"/><path d="M1241.79,890.3h49.11c9.59.01,11.68-8.55-1.11-13.58-9.99-3.93-5.8,3.77-23.01,4.01-17.4.25-14.08-7.61-24.54-3.79-3.93,1.43-7.22,2.86-8.18,6.74-1.35,5.53,3.15,6.62,7.73,6.62Z" fill="#9bcc9b" fill-rule="evenodd"/><path d="M1263.57,828.78c-15.71,4.13-11.11,35.34,5.05,31.17,6.33-1.64,10.8-10.11,9.66-18.41-.96-6.95-6.66-14.88-14.71-12.76Z" fill="#9bcc9b" fill-rule="evenodd"/><path d="M1225.67,915.51h-4.66v21.44h4.51v-7.04h.82a5.573,5.573,0,0,0,2.81-.62,4.159,4.159,0,0,0,1.61-1.64,6.751,6.751,0,0,0,.71-2.34,22.321,22.321,0,0,0,0-5.5,5.157,5.157,0,0,0-.79-2.25,4.3,4.3,0,0,0-1.81-1.5,7.607,7.607,0,0,0-3.2-.55Zm-.15,10.35V919.4h.49a.921.921,0,0,1,.9.73,8.424,8.424,0,0,1,.26,2.49,9.132,9.132,0,0,1-.24,2.48.935.935,0,0,1-.92.76h-.49Z" fill="#c5ebc5"/><path d="M1236.77,936.95h9.35v-4.01h-4.84V915.51h-4.51Z" fill="#c5ebc5"/><path d="M1264.17,936.95l-4.87-21.44h-4.29l-4.83,21.44h4.34l.77-4.1h3.74l.76,4.1Zm-8.24-7.6,1.11-5.82a2.636,2.636,0,0,0,.04-.41l.03-.58c.01-.2.02-.36.03-.51l.02-.21q0,.525.03.99a4.325,4.325,0,0,0,.09.72l1.07,5.82h-2.42Z" fill="#c5ebc5"/><path d="M1271.45,936.95h4.75V929.6l4.13-14.09h-4.56l-1.75,8.02a5.412,5.412,0,0,0-.15,1.08c-.02.4-.03.81-.03,1.22-.04-.45-.07-.86-.08-1.24a5.045,5.045,0,0,0-.13-1.06l-1.81-8.02h-4.6l4.23,14.09v7.35Z" fill="#c5ebc5"/><path d="M1285.03,915.51v21.44h9.32v-3.8h-4.81v-5.36h3.92v-3.8h-3.92v-4.68h4.81v-3.8Z" fill="#c5ebc5"/><path d="M1304.38,915.51h-4.69v21.44h4.51v-6.98h.55l1.53,6.98h4.78l-2.48-8.09a4.024,4.024,0,0,0,.96-1.19,5.979,5.979,0,0,0,.58-1.53,10.664,10.664,0,0,0,.28-1.75c.05-.61.08-1.24.08-1.9a19.32,19.32,0,0,0-.19-2.71,5.161,5.161,0,0,0-.83-2.22,4.3,4.3,0,0,0-1.85-1.5,7.855,7.855,0,0,0-3.23-.55Zm-.18,10.63v-7.02h.49c.38,0,.67.28.84.83a9.712,9.712,0,0,1,.26,2.63c0,2.37-.37,3.56-1.1,3.56Z" fill="#c5ebc5"/></g></svg>