<?xml version="1.0" encoding="UTF-8"?>
<!DOCTYPE svg PUBLIC "-//W3C//DTD SVG 1.1//EN" "http://www.w3.org/Graphics/SVG/1.1/DTD/svg11.dtd">
<!-- Creator: CorelDRAW 2019 (64-Bit) -->
<svg xmlns="http://www.w3.org/2000/svg" xml:space="preserve" width="2480px" height="3508px" version="1.1" style="shape-rendering:geometricPrecision; text-rendering:geometricPrecision; image-rendering:optimizeQuality; fill-rule:evenodd; clip-rule:evenodd"
viewBox="0 0 2480 3507.43"
 xmlns:xlink="http://www.w3.org/1999/xlink"
 xmlns:xodm="http://www.corel.com/coreldraw/odm/2003">
 <defs>
  <style type="text/css">
   <![CDATA[
    .fil6 {fill:#FEFEFE}
    .fil7 {fill:#5E875E}
    .fil0 {fill:#5E995E}
    .fil1 {fill:#9BCC9B}
    .fil5 {fill:#9BCC9B}
    .fil2 {fill:#C5EBC5}
    .fil8 {fill:#5E875E;fill-rule:nonzero}
    .fil3 {fill:#9BCC9B;fill-rule:nonzero}
    .fil4 {fill:#9BCC9B;fill-rule:nonzero}
   ]]>
  </style>
 </defs>
 <g id="Layer_x0020_1">
  <metadata id="CorelCorpID_0Corel-Layer"/>
  <path class="fil0" d="M2076.63 1647.9c0,376.44 -441.19,681.61 -985.42,681.61 -544.25,0 -985.43,-305.17 -985.43,-681.61l0 -518.33c0,-89.81 73.49,-163.3 163.3,-163.3l1644.28 0c89.81,0 163.3,73.49 163.3,163.3l0 518.33 -0.03 0z"/>
  <path class="fil1" d="M582.82 893.76c34.21,0 61.94,27.74 61.94,61.94 0,34.21 -27.73,61.95 -61.94,61.95l-279.56 0c-26.96,0 -52.49,10.78 -71.52,29.81 -19.03,19.04 -29.82,44.58 -29.82,71.53l0 518.32c0,182.19 117.68,331.44 261.82,431.13 189.67,131.2 433.32,188.54 661.67,188.54 228.36,0 472.01,-57.34 661.68,-188.54 144.14,-99.69 261.82,-248.94 261.82,-431.13l0 -518.32c0,-26.96 -10.79,-52.49 -29.82,-71.53 -19.03,-19.03 -44.58,-29.81 -71.52,-29.81l-279.56 0c-34.21,0 -61.95,-27.74 -61.95,-61.95 0,-34.2 27.74,-61.94 61.95,-61.94l279.56 0c59.87,0 116.81,23.81 159.12,66.12 42.31,42.31 66.12,99.23 66.12,159.12l0 518.33c0,224.38 -136.55,409.08 -315.44,532.83 -210.37,145.5 -478.4,210.73 -731.93,210.73 -253.52,0 -521.56,-65.23 -731.92,-210.73 -178.89,-123.75 -315.44,-308.45 -315.44,-532.83l0 -518.33c0,-59.88 23.8,-116.81 66.11,-159.12 42.31,-42.31 99.24,-66.12 159.13,-66.12l279.56 0 -0.06 0z"/>
  <path class="fil2" d="M582.82 932.44l-279.56 0c-49.61,0 -96.71,19.73 -131.77,54.79 -35.06,35.05 -54.79,82.16 -54.79,131.77l0 518.33c0,211.5 130.8,384.84 298.76,501.02 203.79,140.95 464.23,203.86 709.93,203.86 245.71,0 506.13,-62.91 709.92,-203.86 167.96,-116.18 298.76,-289.52 298.76,-501.02l0 -518.33c0,-49.61 -19.72,-96.71 -54.78,-131.77 -35.06,-35.06 -82.17,-54.79 -131.78,-54.79l-279.56 0c-12.85,0 -23.26,10.41 -23.26,23.26 0,12.85 10.41,23.27 23.26,23.27l279.56 0c37.22,0 72.58,14.85 98.87,41.14 26.29,26.29 41.15,61.68 41.15,98.88l0 518.33c0,195.54 -123.76,355.9 -278.48,462.93 -196.22,135.72 -447.22,195.42 -683.68,195.42 -236.47,0 -487.46,-59.7 -683.68,-195.42 -154.74,-107.02 -278.48,-267.39 -278.48,-462.93l0 -518.33c0,-37.22 14.86,-72.59 41.15,-98.88 26.29,-26.29 61.67,-41.14 98.87,-41.14l279.56 0c12.85,0 23.26,-10.42 23.26,-23.27 0,-12.85 -10.41,-23.26 -23.26,-23.26l0.03 0z"/>
  <path class="fil1" d="M814.99 1461.37l121.14 0 0 10.8 -121.14 -0.01 0 -10.79zm499.67 0l121.13 0 0 10.8 -121.13 -0.01 0 -10.79z"/>
  <path class="fil0" d="M1150.51 1794.12l120.98 0c9.72,0 17.67,7.96 17.67,17.67l0 189.63c0,9.73 -7.96,17.67 -17.67,17.67l-120.98 0c-9.72,0 -17.67,-7.96 -17.67,-17.67l0 -189.63c0,-9.73 7.96,-17.67 17.67,-17.67z"/>
  <path class="fil3" d="M656.18 1788.65l-107.65 -110.53 -0.01 0.01 -0.06 -0.07c-1.89,-1.94 -4.4,-2.93 -6.93,-2.97 -2.51,-0.03 -5.02,0.87 -6.95,2.72l0.01 0.02 -0.07 0.06 -173.38 168.85c-1.94,1.89 -2.93,4.4 -2.97,6.92 -0.03,2.54 0.89,5.08 2.78,7.03l107.65 110.54 0.02 -0.02 0.06 0.07c1.88,1.94 4.4,2.93 6.92,2.97 2.51,0.03 5.02,-0.87 6.96,-2.72l-0.02 -0.02 0.07 -0.06 173.39 -168.85c1.93,-1.89 2.92,-4.4 2.97,-6.92 0.03,-2.54 -0.89,-5.08 -2.79,-7.03zm-98.35 -119.72l107.72 110.61c4.4,4.52 6.55,10.41 6.47,16.29 -0.07,5.88 -2.38,11.74 -6.9,16.14l-173.31 168.8 0.01 0.01 -0.07 0.06c-4.52,4.4 -10.41,6.55 -16.29,6.46 -5.85,-0.07 -11.68,-2.36 -16.08,-6.84l-0.01 0.02 -0.06 -0.07 -107.73 -110.61c-4.4,-4.52 -6.55,-10.42 -6.46,-16.29 0.07,-5.89 2.38,-11.73 6.89,-16.14l173.32 -168.8 -0.02 -0.01 0.07 -0.06c4.52,-4.4 10.41,-6.55 16.3,-6.46 5.85,0.07 11.67,2.36 16.07,6.84l0.02 -0.02 0.06 0.07 0 0z"/>
  <path class="fil3" d="M1594.94 1780.51l107.65 -110.53 0.02 0.01 0.05 -0.07c1.9,-1.94 4.41,-2.93 6.93,-2.97 2.51,-0.03 5.02,0.87 6.96,2.73l-0.02 0.01 0.08 0.06 173.38 168.85c1.93,1.89 2.92,4.4 2.96,6.93 0.04,2.53 -0.88,5.07 -2.78,7.02l-107.65 110.54 -0.01 -0.02 -0.06 0.08c-1.89,1.93 -4.4,2.92 -6.93,2.97 -2.51,0.03 -5.02,-0.88 -6.95,-2.73l0.01 -0.01 -0.07 -0.06 -173.38 -168.85c-1.94,-1.9 -2.93,-4.41 -2.97,-6.93 -0.03,-2.54 0.89,-5.08 2.78,-7.03zm98.36 -119.71l-107.73 110.61c-4.4,4.51 -6.55,10.41 -6.46,16.29 0.07,5.88 2.38,11.73 6.89,16.13l173.31 168.8 -0.01 0.01 0.07 0.06c4.52,4.4 10.41,6.55 16.3,6.47 5.85,-0.08 11.67,-2.37 16.07,-6.84l0.02 0.01 0.05 -0.07 107.73 -110.61c4.4,-4.52 6.55,-10.41 6.47,-16.29 -0.07,-5.88 -2.38,-11.73 -6.9,-16.14l-173.31 -168.79 0.01 -0.01 -0.07 -0.06c-4.52,-4.41 -10.41,-6.56 -16.29,-6.47 -5.85,0.07 -11.68,2.37 -16.08,6.84l-0.01 -0.01 -0.06 0.07 0 0z"/>
  <path class="fil3" d="M1342.8 1893.17l145.41 -51.57 0.01 0.01 0.09 -0.03c2.55,-0.9 5.24,-0.68 7.52,0.4 2.26,1.08 4.12,3 5.04,5.51l-0.02 0.01 0.04 0.09 80.9 228.09c0.9,2.55 0.68,5.24 -0.4,7.52 -1.09,2.29 -3.04,4.17 -5.6,5.08l-145.42 51.57 -0.01 -0.02 -0.08 0.04c-2.55,0.9 -5.24,0.68 -7.53,-0.4 -2.26,-1.08 -4.11,-3 -5.03,-5.52l0.02 0 -0.04 -0.08 -80.91 -228.1c-0.9,-2.55 -0.67,-5.24 0.4,-7.52 1.1,-2.3 3.04,-4.17 5.61,-5.08zm141.14 -63.91l-145.52 51.6c-5.95,2.11 -10.48,6.44 -13,11.76 -2.54,5.3 -3.05,11.58 -0.95,17.52l80.87 228.01 -0.02 0.01 0.04 0.08c2.1,5.95 6.44,10.49 11.75,13.01 5.28,2.52 11.52,3.03 17.45,0.96l0 0.02 0.09 -0.03 145.52 -51.61c5.94,-2.11 10.48,-6.45 13,-11.76 2.53,-5.31 3.05,-11.57 0.94,-17.52l-80.86 -228.01 0.01 -0.01 -0.03 -0.08c-2.11,-5.95 -6.44,-10.49 -11.76,-13 -5.28,-2.53 -11.52,-3.04 -17.44,-0.97l-0.01 -0.02 -0.08 0.04 0 0z"/>
  <path class="fil3" d="M911.58 1889.92l-145.42 -51.58 -0.01 0.02 -0.08 -0.04c-2.55,-0.9 -5.24,-0.68 -7.52,0.4 -2.27,1.09 -4.12,3 -5.04,5.52l0.02 0.01 -0.04 0.08 -80.9 228.09c-0.9,2.55 -0.68,5.25 0.4,7.53 1.09,2.29 3.04,4.16 5.6,5.07l145.42 51.58 0 -0.02 0.09 0.04c2.55,0.9 5.24,0.68 7.52,-0.4 2.27,-1.08 4.12,-3 5.04,-5.52l-0.02 0 0.04 -0.09 80.9 -228.09c0.9,-2.56 0.68,-5.25 -0.4,-7.53 -1.09,-2.29 -3.04,-4.16 -5.6,-5.07zm-141.14 -63.92l145.52 51.61c5.94,2.11 10.48,6.44 13,11.76 2.54,5.3 3.05,11.57 0.94,17.52l-80.86 228.01 0.02 0 -0.04 0.09c-2.1,5.94 -6.44,10.48 -11.76,13 -5.28,2.52 -11.52,3.04 -17.44,0.97l-0.01 0.02 -0.08 -0.04 -145.52 -51.61c-5.94,-2.1 -10.48,-6.44 -13,-11.75 -2.54,-5.31 -3.05,-11.58 -0.95,-17.53l80.87 -228.01 -0.02 0 0.04 -0.09c2.1,-5.94 6.44,-10.48 11.76,-13 5.28,-2.52 11.51,-3.04 17.44,-0.97l0.01 -0.02 0.08 0.04 0 0z"/>
  <path class="fil3" d="M1203.93 1904.35l-154.3 0.44 0 0.02 -0.09 -0.01c-2.71,0.01 -5.16,1.13 -6.95,2.91 -1.77,1.78 -2.86,4.22 -2.88,6.89l0.02 0 -0.01 0.1 0.69 242.01c0.01,2.71 1.13,5.17 2.91,6.95 1.8,1.79 4.27,2.9 6.99,2.89l154.29 -0.44 0 -0.02 0.09 0.01c2.71,-0.02 5.17,-1.13 6.95,-2.91 1.77,-1.79 2.87,-4.22 2.88,-6.9l-0.02 0.01 0.01 -0.1 -0.69 -242.02c-0.01,-2.7 -1.12,-5.16 -2.91,-6.95 -1.8,-1.79 -4.26,-2.89 -6.98,-2.88zm-154.43 -12.62l154.4 -0.45c6.31,-0.02 12.04,2.53 16.2,6.69 4.18,4.14 6.78,9.87 6.8,16.18l0.7 241.92 0.01 0 -0.01 0.09c0.03,6.31 -2.53,12.04 -6.68,16.21 -4.12,4.15 -9.82,6.74 -16.1,6.79l0 0.02 -0.09 -0.01 -154.4 0.45c-6.3,0.02 -12.04,-2.54 -16.2,-6.69 -4.18,-4.14 -6.77,-9.87 -6.79,-16.18l-0.7 -241.93 -0.02 0 0.01 -0.09c-0.02,-6.31 2.53,-12.04 6.69,-16.2 4.12,-4.15 9.82,-6.74 16.09,-6.79l0 -0.02 0.09 0.01 0 0z"/>
  <g id="_1829387244192">
   <path class="fil4" d="M550.55 1439.75c0.17,1.87 0.37,3.75 0.6,5.64 0.62,5.2 1.39,10.24 2.31,15.13 7.95,42.18 27.29,81.25 52.11,115.87 31.41,43.83 71.41,80.43 108.21,107.27 57.87,42.21 122.48,72.91 189.46,93.48 73.07,22.44 149.01,32.77 222.16,32.77 73.16,0 149.09,-10.34 222.16,-32.77 66.98,-20.57 131.59,-51.27 189.46,-93.48 36.8,-26.84 76.82,-63.44 108.21,-107.27 24.8,-34.62 44.16,-73.69 52.11,-115.87 0.92,-4.88 1.69,-9.92 2.31,-15.12 0.23,-1.9 0.43,-3.78 0.6,-5.65l-98.3 0c-6.21,23.91 -20.8,50.59 -38.32,75.38 -23.84,33.75 -53.43,64.46 -74.51,79.85 -50.7,36.97 -107.67,63.66 -166.63,81.48 -65.13,19.67 -132.75,28.58 -197.09,28.58 -64.32,0 -131.96,-8.91 -197.09,-28.58 -58.96,-17.82 -115.93,-44.52 -166.63,-81.48 -21.1,-15.39 -50.67,-46.1 -74.51,-79.85 -17.52,-24.81 -32.11,-51.48 -38.32,-75.38l-98.3 0zm-17.44 7.78c-0.63,-5.28 -1.09,-10.76 -1.36,-16.46l-0.48 -9.52 132.37 0 1.39 7.43c4.32,22.89 18.95,50.16 37,75.71 22.78,32.25 50.66,61.32 70.32,75.66 48.84,35.61 103.98,61.41 161.22,78.71 63.34,19.15 129.18,27.81 191.83,27.81 62.66,0 128.49,-8.66 191.83,-27.81 57.24,-17.3 112.38,-43.1 161.22,-78.71 19.66,-14.34 47.54,-43.41 70.32,-75.66 18.05,-25.55 32.68,-52.82 37,-75.71l1.39 -7.43 132.35 0 -0.47 9.52c-0.29,5.68 -0.75,11.18 -1.36,16.46 -0.64,5.33 -1.48,10.78 -2.53,16.33 -8.49,45.09 -28.97,86.57 -55.16,123.13 -32.56,45.45 -74.09,83.43 -112.34,111.32 -59.62,43.49 -126.03,75.07 -194.8,96.2 -74.98,23.02 -152.73,33.63 -227.49,33.63 -74.77,0 -152.52,-10.6 -227.5,-33.63 -68.76,-21.12 -135.17,-52.71 -194.8,-96.2 -38.23,-27.88 -79.77,-65.87 -112.34,-111.32 -26.19,-36.56 -46.67,-78.02 -55.16,-123.13 -1.04,-5.55 -1.89,-11 -2.52,-16.33l0.07 0z"/>
   <path class="fil5" d="M1002.32 1800.11c147.49,21.5 287.5,5.01 419.64,-50.58l5.51 16.94c-129.49,54.66 -265.96,73.4 -408.11,53.93l-17.04 -20.29z"/>
  </g>
  <polygon class="fil4" points="906.45,1229.41 930.69,1229.41 930.69,1138.71 946.44,1138.71 946.44,1119.19 890.7,1119.19 890.7,1138.71 906.45,1138.71 "/>
  <path id="1" class="fil4" d="M947.7 1174.3c0,9.86 0.58,18.37 1.73,25.51 1.16,7.13 3.02,13.01 5.59,17.63 2.57,4.62 5.96,8.03 10.16,10.23 4.2,2.21 9.34,3.31 15.43,3.31 5.98,0 11.05,-1.1 15.19,-3.31 4.15,-2.2 7.51,-5.61 10.08,-10.23 2.57,-4.62 4.44,-10.5 5.59,-17.63 1.16,-7.14 1.73,-15.65 1.73,-25.51 0,-9.87 -0.57,-18.37 -1.73,-25.51 -1.15,-7.14 -3.02,-13.02 -5.59,-17.64 -2.57,-4.62 -5.93,-8.03 -10.08,-10.23 -4.14,-2.21 -9.21,-3.31 -15.19,-3.31 -6.09,0 -11.23,1.1 -15.43,3.31 -4.2,2.2 -7.59,5.61 -10.16,10.23 -2.57,4.62 -4.43,10.5 -5.59,17.64 -1.15,7.14 -1.73,15.64 -1.73,25.51zm24.25 0c0,-7.67 0.18,-13.86 0.55,-18.58 0.37,-4.73 0.92,-8.38 1.65,-10.95 0.74,-2.57 1.66,-4.27 2.76,-5.11 1.1,-0.84 2.33,-1.26 3.7,-1.26 1.36,0 2.54,0.42 3.54,1.26 1,0.84 1.84,2.54 2.52,5.11 0.68,2.57 1.21,6.22 1.58,10.95 0.36,4.72 0.55,10.91 0.55,18.58 0,7.76 -0.19,13.98 -0.55,18.66 -0.37,4.67 -0.9,8.29 -1.58,10.86 -0.68,2.57 -1.52,4.28 -2.52,5.12 -1,0.84 -2.18,1.26 -3.54,1.26 -1.37,0 -2.6,-0.42 -3.7,-1.26 -1.1,-0.84 -2.02,-2.52 -2.76,-5.04 -0.73,-2.52 -1.28,-6.14 -1.65,-10.87 -0.37,-4.72 -0.55,-10.97 -0.55,-18.73z"/>
  <path id="2" class="fil4" d="M1020.45 1229.41l20.78 0 -2.2 -72.12c0,-1.15 -0.08,-2.44 -0.24,-3.86 -0.16,-1.41 -0.08,-2.75 0.24,-4.01 -0.21,1.26 -0.21,2.52 0,3.78 0.21,1.26 0.42,2.36 0.63,3.3l11.96 72.91 26.46 0 11.96 -72.91c0.21,-1.05 0.35,-2.36 0.4,-3.93 0.05,-1.58 0.18,-3.05 0.39,-4.41 -0.1,1.57 -0.16,3.12 -0.16,4.64l0 4.49 -2.2 72.12 20.78 0 0 -110.22 -29.28 0 -14.17 78.09c-0.21,0.95 -0.32,1.76 -0.32,2.45 0,0.68 -0.05,1.39 -0.16,2.12l-0.47 0.95 -0.47 -0.95c-0.11,-0.73 -0.16,-1.44 -0.16,-2.12 0,-0.69 -0.11,-1.5 -0.31,-2.45l-14.18 -78.09 -29.28 0 0 110.22z"/>
  <path id="3" class="fil4" d="M1118.7 1229.41l20.79 0 -2.21 -72.12c0,-1.15 -0.08,-2.44 -0.24,-3.86 -0.15,-1.41 -0.07,-2.75 0.24,-4.01 -0.21,1.26 -0.21,2.52 0,3.78 0.21,1.26 0.42,2.36 0.63,3.3l11.97 72.91 26.45 0 11.97 -72.91c0.21,-1.05 0.34,-2.36 0.39,-3.93 0.05,-1.58 0.19,-3.05 0.39,-4.41 -0.1,1.57 -0.15,3.12 -0.15,4.64l0 4.49 -2.21 72.12 20.79 0 0 -110.22 -29.29 0 -14.17 78.09c-0.21,0.95 -0.32,1.76 -0.32,2.45 0,0.68 -0.05,1.39 -0.15,2.12l-0.48 0.95 -0.47 -0.95c-0.1,-0.73 -0.16,-1.44 -0.16,-2.12 0,-0.69 -0.1,-1.5 -0.31,-2.45l-14.17 -78.09 -29.29 0 0 110.22z"/>
  <path id="4" class="fil4" d="M1233.02 1229.41l24.4 0 0 -37.79 21.26 -72.43 -23.46 0 -8.98 41.25c-0.42,1.57 -0.68,3.41 -0.79,5.51 -0.1,2.1 -0.15,4.2 -0.15,6.3 -0.21,-2.31 -0.34,-4.44 -0.4,-6.38 -0.05,-1.94 -0.28,-3.75 -0.71,-5.43l-9.28 -41.25 -23.62 0 21.73 72.43 0 37.79z"/>
  <polygon id="5" class="fil4" points="1279.94,1152.41 1296.31,1152.41 1308.28,1119.19 1285.29,1119.19 "/>
  <path id="6" class="fil4" d="M1360.08 1199.17c0,-5.98 -0.65,-10.97 -1.96,-14.95 -1.32,-3.99 -2.94,-7.35 -4.89,-10.08 -1.94,-2.73 -4.06,-5.04 -6.37,-6.93 -2.31,-1.89 -4.44,-3.75 -6.38,-5.59 -1.94,-1.84 -3.57,-3.83 -4.88,-5.98 -1.31,-2.15 -1.97,-4.91 -1.97,-8.27 0,-2.62 0.42,-4.72 1.26,-6.3 0.84,-1.57 1.92,-2.73 3.23,-3.46 1.31,-0.74 2.75,-1.21 4.33,-1.42 1.57,-0.21 3.04,-0.31 4.41,-0.31 2.41,0 4.56,0.23 6.45,0.71 1.89,0.47 3.31,0.86 4.25,1.18l1.42 -17.8c-0.73,-0.21 -1.78,-0.44 -3.15,-0.71 -1.36,-0.26 -2.91,-0.49 -4.64,-0.7 -1.73,-0.21 -3.55,-0.4 -5.43,-0.55 -1.89,-0.16 -3.73,-0.24 -5.52,-0.24 -9.76,0 -17,2.36 -21.72,7.08 -4.73,4.73 -7.09,12.55 -7.09,23.47 0,6.08 0.66,11.07 1.97,14.95 1.31,3.89 2.94,7.12 4.88,9.69 1.94,2.57 4.07,4.75 6.38,6.53 2.31,1.79 4.43,3.6 6.37,5.44 1.95,1.83 3.57,3.88 4.88,6.14 1.32,2.25 1.97,5.17 1.97,8.74 0,2.62 -0.34,4.74 -1.02,6.37 -0.68,1.63 -1.63,2.91 -2.83,3.86 -1.21,0.94 -2.66,1.57 -4.34,1.89 -1.67,0.31 -3.46,0.47 -5.35,0.47 -1.47,0 -3.59,-0.18 -6.38,-0.55 -2.78,-0.37 -5.17,-0.81 -7.16,-1.34l-1.26 17.95c1.05,0.42 2.55,0.79 4.49,1.1 1.94,0.32 4.01,0.58 6.22,0.79 2.2,0.21 4.41,0.37 6.61,0.47 2.21,0.11 4.04,0.16 5.51,0.16 3.36,0 6.69,-0.42 10,-1.26 3.31,-0.84 6.27,-2.41 8.9,-4.72 2.62,-2.31 4.75,-5.54 6.37,-9.69 1.63,-4.14 2.44,-9.52 2.44,-16.14z"/>
  <path id="7" class="fil4" d="M975.49 1310.84c0,-7.13 0.32,-13.04 0.95,-17.71 0.62,-4.67 1.57,-8.4 2.83,-11.18 1.26,-2.78 2.86,-4.72 4.8,-5.83 1.94,-1.1 4.28,-1.65 7.01,-1.65 2.1,0 4.01,0.08 5.75,0.24 1.73,0.16 3.17,0.6 4.33,1.34l3.15 -20.16c-2.94,-1.15 -5.86,-1.99 -8.74,-2.52 -2.89,-0.52 -6.01,-0.79 -9.37,-0.79 -5.46,0 -10.34,0.84 -14.65,2.52 -4.3,1.68 -7.95,4.7 -10.94,9.06 -2.99,4.35 -5.27,10.28 -6.85,17.79 -1.57,7.51 -2.36,17.03 -2.36,28.58 0,10.81 0.71,19.79 2.12,26.92 1.42,7.14 3.55,12.81 6.38,17.01 2.84,4.2 6.4,7.17 10.71,8.9 4.3,1.73 9.34,2.59 15.12,2.59 3.14,0 6.24,-0.23 9.28,-0.7 3.05,-0.48 5.94,-1.29 8.67,-2.44l-1.58 -20.95c-1.78,0.74 -3.73,1.26 -5.82,1.58 -2.1,0.31 -4.2,0.47 -6.3,0.47 -2.42,0 -4.52,-0.37 -6.3,-1.1 -1.79,-0.74 -3.28,-2.26 -4.49,-4.57 -1.21,-2.31 -2.13,-5.64 -2.75,-10 -0.63,-4.35 -0.95,-10.15 -0.95,-17.4z"/>
  <path id="8" class="fil4" d="M1076.74 1364.38l-25.04 -110.22 -22.04 0 -24.88 110.22 22.36 0 3.93 -21.1 19.21 0 3.94 21.1 22.52 0zm-42.36 -39.05l5.67 -29.92c0.1,-0.42 0.18,-1.13 0.24,-2.12l0.15 -2.99c0.05,-1 0.11,-1.87 0.16,-2.6l0.08 -1.1c0,1.78 0.05,3.49 0.16,5.11 0.1,1.63 0.26,2.86 0.47,3.7l5.51 29.92 -12.44 0z"/>
  <path id="9" class="fil4" d="M1128.07 1334.15c0,-5.98 -0.66,-10.97 -1.97,-14.96 -1.31,-3.99 -2.94,-7.35 -4.88,-10.08 -1.94,-2.73 -4.07,-5.04 -6.38,-6.93 -2.31,-1.89 -4.43,-3.75 -6.38,-5.59 -1.94,-1.83 -3.56,-3.83 -4.88,-5.98 -1.31,-2.15 -1.97,-4.91 -1.97,-8.27 0,-2.62 0.43,-4.72 1.26,-6.29 0.84,-1.58 1.92,-2.73 3.23,-3.47 1.32,-0.73 2.76,-1.21 4.33,-1.42 1.58,-0.2 3.05,-0.31 4.41,-0.31 2.42,0 4.57,0.24 6.46,0.71 1.89,0.47 3.3,0.86 4.25,1.18l1.42 -17.79c-0.74,-0.21 -1.79,-0.45 -3.15,-0.71 -1.37,-0.26 -2.92,-0.5 -4.65,-0.71 -1.73,-0.21 -3.54,-0.39 -5.43,-0.55 -1.89,-0.16 -3.73,-0.24 -5.51,-0.24 -9.76,0 -17.01,2.36 -21.73,7.09 -4.72,4.72 -7.09,12.54 -7.09,23.46 0,6.09 0.66,11.07 1.97,14.96 1.31,3.88 2.94,7.11 4.88,9.68 1.95,2.57 4.07,4.75 6.38,6.54 2.31,1.78 4.44,3.59 6.38,5.43 1.94,1.83 3.57,3.88 4.88,6.14 1.31,2.26 1.97,5.17 1.97,8.74 0,2.62 -0.34,4.75 -1.03,6.38 -0.68,1.62 -1.62,2.91 -2.83,3.85 -1.21,0.95 -2.65,1.58 -4.33,1.89 -1.68,0.32 -3.47,0.47 -5.35,0.47 -1.47,0 -3.6,-0.18 -6.38,-0.55 -2.78,-0.36 -5.17,-0.81 -7.17,-1.33l-1.26 17.95c1.05,0.42 2.55,0.78 4.49,1.1 1.94,0.31 4.02,0.57 6.22,0.79 2.21,0.21 4.41,0.36 6.61,0.47 2.21,0.1 4.05,0.15 5.52,0.15 3.35,0 6.69,-0.41 9.99,-1.25 3.31,-0.84 6.28,-2.42 8.9,-4.73 2.63,-2.31 4.75,-5.54 6.38,-9.68 1.62,-4.15 2.44,-9.53 2.44,-16.14z"/>
  <polygon id="10" class="fil4" points="1134.52,1364.38 1157.67,1364.38 1157.67,1254.16 1134.52,1254.16 "/>
  <path id="11" class="fil4" d="M1189.16 1364.38l0 -40.94c0,-3.46 -0.21,-7.22 -0.63,-11.26 -0.42,-4.04 -0.73,-7.95 -0.94,-11.73 0.31,3.15 0.71,6.33 1.18,9.53 0.47,3.2 0.92,5.38 1.34,6.53l15.11 47.87 21.89 0 0 -110.22 -21.89 0 0 60.31c-0.1,-2.31 -0.21,-4.49 -0.31,-6.54 -0.11,-2.05 -0.26,-3.49 -0.47,-4.33l-15.28 -49.44 -22.04 0 0 110.22 22.04 0z"/>
  <path id="12" class="fil4" d="M1234.35 1309.27c0,9.87 0.58,18.37 1.74,25.51 1.15,7.14 3.01,13.01 5.58,17.63 2.58,4.62 5.96,8.03 10.16,10.24 4.2,2.2 9.34,3.3 15.43,3.3 5.98,0 11.05,-1.1 15.2,-3.3 4.14,-2.21 7.5,-5.62 10.07,-10.24 2.58,-4.62 4.44,-10.49 5.59,-17.63 1.16,-7.14 1.74,-15.64 1.74,-25.51 0,-9.87 -0.58,-18.37 -1.74,-25.51 -1.15,-7.14 -3.01,-13.02 -5.59,-17.63 -2.57,-4.62 -5.93,-8.03 -10.07,-10.24 -4.15,-2.2 -9.22,-3.31 -15.2,-3.31 -6.09,0 -11.23,1.11 -15.43,3.31 -4.2,2.21 -7.58,5.62 -10.16,10.24 -2.57,4.61 -4.43,10.49 -5.58,17.63 -1.16,7.14 -1.74,15.64 -1.74,25.51zm24.25 0c0,-7.66 0.19,-13.86 0.55,-18.58 0.37,-4.72 0.92,-8.37 1.66,-10.94 0.73,-2.58 1.65,-4.28 2.75,-5.12 1.1,-0.84 2.34,-1.26 3.7,-1.26 1.37,0 2.55,0.42 3.55,1.26 0.99,0.84 1.83,2.54 2.51,5.12 0.69,2.57 1.21,6.22 1.58,10.94 0.37,4.72 0.55,10.92 0.55,18.58 0,7.77 -0.18,13.99 -0.55,18.66 -0.37,4.67 -0.89,8.29 -1.58,10.86 -0.68,2.57 -1.52,4.28 -2.51,5.12 -1,0.84 -2.18,1.26 -3.55,1.26 -1.36,0 -2.6,-0.42 -3.7,-1.26 -1.1,-0.84 -2.02,-2.52 -2.75,-5.04 -0.74,-2.52 -1.29,-6.14 -1.66,-10.86 -0.36,-4.73 -0.55,-10.97 -0.55,-18.74z"/>
  <path class="fil4" d="M979.55 1486.02l37.97 0c0.93,0 1.65,-0.22 2.13,-0.63 0.48,-0.43 0.88,-1.17 1.18,-2.26l1.49 0 0 16.99 -1.49 0c-0.3,-1.09 -0.7,-1.84 -1.18,-2.26 -0.48,-0.42 -1.2,-0.63 -2.13,-0.63l-48.33 0c-1.56,0 -2.6,0.18 -3.14,0.54 -0.55,0.37 -0.95,1.15 -1.23,2.38l-1.5 0c-0.03,-1.52 -0.04,-2.5 -0.04,-2.92 0,-3.91 0.43,-7.11 1.32,-9.64 1.79,-5.11 5.12,-9.46 10,-13.02 2.52,-1.82 6.63,-4.04 12.33,-6.66l7.68 -3.51c3.6,-1.69 6.2,-3.41 7.78,-5.2 1.59,-1.77 2.38,-3.89 2.38,-6.32 0,-2.77 -0.95,-4.88 -2.84,-6.33 -1.89,-1.45 -4.64,-2.16 -8.25,-2.16 -4.39,0 -8.48,1.07 -12.26,3.23 -3.67,2.07 -5.49,4.2 -5.49,6.4 0,0.51 0.23,1.46 0.71,2.86l-0.99 1.06 -12.14 -13.09 1.09 -0.99c1.15,0.54 2.01,0.81 2.55,0.81 0.48,0 0.92,-0.11 1.28,-0.31 0.35,-0.22 1.1,-0.83 2.22,-1.83 6.68,-5.8 14.92,-8.69 24.73,-8.69 7.04,0 12.66,1.72 16.89,5.19 4.28,3.54 6.41,8.24 6.41,14.12 0,5.77 -2.04,10.55 -6.13,14.33 -2.7,2.45 -6.31,4.71 -10.86,6.75l-7 3.16c-0.73,0.36 -2.38,1.06 -4.96,2.1 -3.15,1.27 -5.36,2.32 -6.63,3.13 -1.28,0.8 -2.46,1.94 -3.55,3.4z"/>
  <path id="1" class="fil4" d="M1086.46 1433.84c8.18,0 14.96,2.66 20.38,7.98 6.08,6.01 9.12,14.24 9.12,24.71 0,3.28 -0.45,6.61 -1.37,9.99 -0.9,3.39 -2.16,6.31 -3.74,8.82 -2.77,4.37 -6.41,7.72 -10.93,9.99 -4.02,2 -8.48,3.02 -13.42,3.02 -8.17,0 -14.95,-2.68 -20.33,-8.03 -2.59,-2.6 -4.59,-5.53 -6.02,-8.78 -2.07,-4.81 -3.1,-9.96 -3.1,-15.48 0,-7.42 1.7,-13.83 5.1,-19.26 2.68,-4.28 6.34,-7.61 10.94,-9.94 3.84,-1.97 8.29,-2.96 13.37,-3.02zm0 10.55c-4.83,0 -8.69,2.14 -11.53,6.44 -2.65,3.98 -3.97,8.93 -3.97,14.84 0,5.91 1.32,10.86 3.97,14.85 2.84,4.29 6.72,6.44 11.57,6.44 4.89,0 8.75,-2.15 11.58,-6.44 2.64,-3.99 3.97,-8.84 3.97,-14.57 0,-6.19 -1.33,-11.23 -3.97,-15.12 -2.83,-4.23 -6.71,-6.38 -11.62,-6.44z"/>
  <path id="2" class="fil4" d="M1158.77 1457.46l0 -16.53 1.5 0c0.34,1.14 0.65,1.87 0.96,2.21 0.3,0.33 0.76,0.5 1.4,0.5 0.31,0 0.73,-0.06 1.28,-0.19l3.92 -1.01 0 -2.69c0,-0.92 -0.22,-1.62 -0.64,-2.12 -0.42,-0.48 -1.17,-0.87 -2.26,-1.18l0 -1.49 18.96 0 0 1.49c-1.09,0.3 -1.84,0.69 -2.26,1.17 -0.42,0.46 -0.64,1.16 -0.64,2.11l0 52.67c0,0.95 0.22,1.67 0.64,2.15 0.42,0.48 1.17,0.87 2.26,1.18l0 1.5 -18.96 0 0 -1.5c1.09,-0.31 1.84,-0.7 2.26,-1.18 0.42,-0.48 0.64,-1.2 0.64,-2.15l0 -39.35 -4.28 1.04c-1.01,0.25 -1.73,0.6 -2.16,1.05 -0.45,0.45 -0.81,1.23 -1.12,2.32l-1.5 0z"/>
  <path id="3" class="fil4" d="M1228.68 1493.65l8.03 -14.91 1.27 0.64c-0.18,0.75 -0.26,1.35 -0.26,1.77 0,1.22 0.96,2.43 2.91,3.64 1.62,1.01 3.7,1.84 6.25,2.49 2.55,0.66 4.98,0.98 7.3,0.98 5.07,0 9.41,-1.32 12.99,-3.96 2.35,-1.78 4.08,-3.88 5.23,-6.31 1.14,-2.42 1.84,-5.63 2.12,-9.58 -3.07,2.74 -6.18,4.71 -9.32,5.91 -3.15,1.2 -6.79,1.81 -10.91,1.81 -6.6,0 -12.25,-1.57 -16.95,-4.7 -2.67,-1.81 -4.77,-4.13 -6.28,-6.99 -1.46,-2.77 -2.2,-5.8 -2.2,-9.1 0,-6.57 2.73,-11.83 8.16,-15.75 5.29,-3.84 11.98,-5.75 20.07,-5.75 8.81,0 15.71,2.22 20.69,6.66 3.32,2.92 5.78,6.67 7.39,11.23 1.54,4.39 2.32,8.96 2.32,13.74 0,9.71 -2.99,17.57 -8.98,23.56 -6.2,6.2 -14.23,9.32 -24.11,9.32 -3.47,0 -6.58,-0.32 -9.35,-0.94 -2.77,-0.62 -6.03,-1.76 -9.76,-3.4 -1.28,-0.58 -2.27,-0.86 -2.97,-0.86 -0.51,0 -1.03,0.19 -1.54,0.59 -0.41,0.33 -0.69,0.56 -0.87,0.68l-1.23 -0.77zm28.04 -49.54c-4.66,0 -8.42,1.15 -11.33,3.44 -2.43,1.88 -3.64,4.35 -3.64,7.4 0,3 1.21,5.46 3.64,7.38 2.88,2.28 6.66,3.44 11.33,3.44 4.69,0 8.48,-1.16 11.35,-3.44 2.43,-1.92 3.64,-4.35 3.64,-7.29 0,-3.08 -1.21,-5.58 -3.64,-7.49 -2.81,-2.28 -6.61,-3.41 -11.35,-3.44z"/>
  <g id="_1829387241024">
   <path class="fil1" d="M1581.31 1091.5l-48.54 0.17 0.91 249.22 48.55 -0.17 -0.23 -63.1c-0.13,-33.94 34.19,-35.36 34.09,-61.65 -0.1,-26.27 -34.42,-27.45 -34.53,-61.38l-0.23 -63.11 -0.02 0.02z"/>
   <rect class="fil6" x="1550.27" y="1110.71" width="286.33" height="215.91" rx="19.35" ry="14.59"/>
   <path class="fil2" d="M1581.31 1091.5l0.24 63.31c0.27,33.73 34.44,34.96 34.53,61.18 0.1,26.09 -33.75,27.69 -34.08,60.96l0.23 63.77 257.12 -0.4 -0.92 -249.23 -257.12 0.41z"/>
   <g>
    <path class="fil7" d="M1591.2 1180.53c-7.98,4.03 -14.13,8.78 -18.73,14.12 7.19,-3.69 15.01,-6.76 24.23,-8.45 -1.9,-1.78 -3.77,-3.65 -5.5,-5.67l0 0z"/>
    <path class="fil8" d="M1574.69 1281.46c3.15,0.17 5.55,-0.19 7.33,-1.13l-0.02 -2.72 0 -0.48c-1.78,1.76 -4.13,3.11 -7.31,4.33l0 0zm23.89 -87.72c7.19,1.92 12.62,7.43 15.62,14.79 0.79,1.95 1.42,4.03 1.85,6.21 0.01,0.42 0.03,0.82 0.03,1.25 0.03,6.61 -2.14,11.66 -5.36,16.03 2.05,-7.84 1.53,-15.55 -0.98,-21.68 -2.44,-5.98 -6.77,-10.43 -12.41,-11.95 -5.65,-1.52 -11.63,0.19 -16.72,4.14 -5.28,4.11 -9.62,10.62 -11.75,18.55 -2.12,7.93 -1.62,15.73 0.91,21.93 2.44,5.98 6.77,10.42 12.41,11.94 2.1,0.56 4.25,0.69 6.41,0.41 -1.07,1.55 -2.04,3.18 -2.89,4.94 -1.59,-0.05 -3.18,-0.28 -4.76,-0.7 -7.18,-1.92 -12.62,-7.43 -15.62,-14.79 -2.89,-7.12 -3.5,-16.02 -1.1,-24.98 2.39,-8.96 7.37,-16.36 13.45,-21.1 6.27,-4.86 13.73,-6.91 20.9,-4.99l0.01 0z"/>
    <path class="fil8" d="M1614.07 1216.35c0.66,-0.45 1.33,-0.82 1.99,-1.12 0.02,0.26 0.02,0.5 0.02,0.76 0,1.09 -0.06,2.12 -0.17,3.12l-1.85 -2.76 0.01 0zm-46.84 5.03l-16.95 1.45 0 -3.65 19.47 -2.86 -2.52 5.06z"/>
    <path class="fil7" d="M1593.98 1211.99c6.44,1.66 9.82,9.66 7.54,17.85 -2.28,8.19 -9.35,13.5 -15.79,11.82 -6.44,-1.66 -9.82,-9.67 -7.54,-17.86 2.28,-8.19 9.35,-13.49 15.79,-11.81zm-3.76 2.53c2.37,0.62 3.6,3.55 2.77,6.54 -0.83,3 -3.43,4.95 -5.78,4.34 -2.37,-0.61 -3.6,-3.55 -2.77,-6.54 0.83,-3 3.43,-4.95 5.78,-4.34z"/>
   </g>
   <path class="fil1" d="M1691.22 1091.09l0.77 249.22 262.52 -1.15c16.56,-0.07 30.06,-16.28 30,-36.01l-0.56 -177.46c-0.06,-19.74 -13.65,-35.83 -30.21,-35.76l-262.52 1.16 0 0z"/>
  </g>
  <path class="fil4" d="M1432.96 1702.83l8.29 14.27c0.38,0.64 0.74,1.08 1.12,1.33 0.37,0.26 0.82,0.35 1.34,0.3l0.6 1.04 -7.58 4.4 -0.6 -1.04c0.3,-0.46 0.43,-0.9 0.4,-1.33 -0.03,-0.43 -0.23,-0.97 -0.6,-1.61l-21.28 -36.64c-0.38,-0.66 -0.75,-1.11 -1.11,-1.35 -0.36,-0.24 -0.82,-0.35 -1.36,-0.31l-0.6 -1.04 15.17 -8.81c1.77,-1.03 3.3,-1.63 4.58,-1.81 1.29,-0.18 2.63,0.02 4.03,0.59 1.44,0.6 2.9,1.64 4.39,3.13 1.51,1.55 2.86,3.34 4.04,5.37 1.69,2.92 2.74,5.73 3.14,8.45 0.33,2.31 0.11,4.23 -0.69,5.75 -0.79,1.52 -2.31,2.94 -4.55,4.24l-8.73 5.07zm-4.14 -7.15l8.11 -4.71c1.61,-0.94 2.58,-1.9 2.87,-2.9 0.18,-0.64 0.15,-1.47 -0.11,-2.5 -0.25,-1.02 -0.68,-2.06 -1.3,-3.12 -0.6,-1.03 -1.27,-1.91 -2.04,-2.64 -0.77,-0.73 -1.47,-1.17 -2.12,-1.33 -1,-0.24 -2.31,0.11 -3.94,1.06l-8.11 4.71 6.64 11.43zm37.31 1.65l14.53 -9.31c0.36,-0.23 0.54,-0.55 0.54,-0.96 0,-0.4 -0.17,-1 -0.53,-1.81l0.57 -0.37 6.97 10.88 -0.57 0.37c-0.58,-0.67 -1.06,-1.08 -1.43,-1.24 -0.36,-0.17 -0.73,-0.14 -1.09,0.09l-20.82 13.33 -0.65 -1.01c0.28,-0.48 0.39,-0.93 0.34,-1.36 -0.04,-0.42 -0.27,-0.96 -0.68,-1.6l-22.83 -35.66c-0.41,-0.64 -0.81,-1.07 -1.18,-1.3 -0.37,-0.22 -0.83,-0.31 -1.37,-0.25l-0.65 -1.01 7.39 -4.73 0.65 1.01c-0.3,0.46 -0.42,0.89 -0.36,1.34 0.06,0.44 0.29,0.98 0.7,1.62l20.47 31.97zm33.96 -28.6l-10.42 7.22 2.46 6.9c0.35,0.96 0.67,1.67 0.99,2.13 0.62,0.89 1.43,1.25 2.42,1.06l0.69 0.99 -7.64 5.29 -0.69 -0.98c0.34,-0.48 0.49,-1 0.45,-1.56 -0.04,-0.57 -0.31,-1.54 -0.82,-2.91l-13.41 -37.49c-0.42,-1.2 -0.85,-2.09 -1.27,-2.7 -0.64,-0.93 -1.42,-1.36 -2.35,-1.31l-0.69 -0.98 8.19 -5.68 0.68 0.99c-0.43,0.8 -0.34,1.63 0.24,2.47 0.4,0.57 0.97,1.17 1.69,1.77l30.76 25.6c1.31,1.09 2.27,1.78 2.9,2.08 0.62,0.3 1.22,0.35 1.81,0.19l0.68 0.99 -8.52 5.91 -0.69 -0.99c0.59,-0.74 0.53,-1.62 -0.18,-2.65 -0.3,-0.43 -0.85,-0.97 -1.65,-1.64l-5.63 -4.7zm-5.34 -4.62l-13.78 -11.97 6.3 17.16 7.48 -5.19zm19.44 -17.48l11.04 13.08c0.49,0.57 0.93,0.95 1.34,1.13 0.4,0.17 0.86,0.19 1.39,0.07l0.77 0.92 -6.69 5.66 -0.78 -0.92c0.2,-0.5 0.26,-0.96 0.16,-1.38 -0.11,-0.43 -0.41,-0.94 -0.89,-1.51l-11.04 -13.07 -21.62 -11.51c-1.86,-0.99 -3.17,-1.59 -3.95,-1.82 -0.77,-0.23 -1.44,-0.19 -2.01,0.1l-0.77 -0.92 8.49 -7.18 0.78 0.92c-0.54,0.8 -0.4,1.68 0.4,2.62 0.28,0.34 1.12,0.89 2.52,1.66l12.54 7.02 -4.68 -13.66c-0.5,-1.46 -0.92,-2.39 -1.25,-2.78 -0.35,-0.42 -0.76,-0.72 -1.2,-0.87 -0.46,-0.14 -0.88,-0.13 -1.29,0.06l-0.77 -0.92 8.29 -7.01 0.78 0.92c-0.38,0.51 -0.53,1.16 -0.43,1.97 0.09,0.8 0.47,2.19 1.13,4.19l7.74 23.23zm38.82 -23.59l-9.32 8.59 3.39 6.5c0.48,0.9 0.89,1.55 1.27,1.96 0.74,0.81 1.6,1.05 2.55,0.72l0.82 0.89 -6.84 6.3 -0.82 -0.89c0.27,-0.52 0.35,-1.05 0.23,-1.6 -0.12,-0.56 -0.52,-1.48 -1.21,-2.77l-18.45 -35.29c-0.59,-1.12 -1.13,-1.95 -1.63,-2.49 -0.76,-0.83 -1.6,-1.15 -2.52,-0.97l-0.81 -0.88 7.33 -6.76 0.81 0.89c-0.32,0.85 -0.12,1.66 0.58,2.41 0.47,0.52 1.12,1.03 1.92,1.52l33.99 21.12c1.45,0.9 2.5,1.45 3.16,1.66 0.66,0.21 1.26,0.18 1.81,-0.06l0.82 0.88 -7.63 7.03 -0.81 -0.88c0.48,-0.82 0.3,-1.68 -0.55,-2.6 -0.36,-0.39 -0.98,-0.85 -1.86,-1.4l-6.23 -3.88zm-5.92 -3.84l-15.3 -9.95 8.6 16.12 6.7 -6.17zm3.28 -24.2l22.79 20.15c0.57,0.51 1.07,0.82 1.48,0.93 0.42,0.12 0.88,0.07 1.39,-0.13l0.9 0.8 -5.44 6.16 -0.91 -0.8c0.14,-0.53 0.13,-1 -0.03,-1.39 -0.17,-0.4 -0.53,-0.86 -1.11,-1.37l-31.74 -28.07c-0.55,-0.48 -1.04,-0.78 -1.45,-0.9 -0.42,-0.11 -0.89,-0.08 -1.39,0.13l-0.9 -0.79 6.31 -7.14 0.9 0.79c-0.19,0.62 0.04,1.21 0.69,1.78 0.44,0.39 1.04,0.67 1.83,0.86l31.81 7.35 -22.24 -19.67c-0.55,-0.49 -1.04,-0.79 -1.46,-0.9 -0.41,-0.12 -0.88,-0.08 -1.38,0.13l-0.9 -0.79 5.44 -6.16 0.9 0.79c-0.14,0.53 -0.12,1 0.04,1.4 0.17,0.4 0.52,0.84 1.08,1.33l31.74 28.07c0.57,0.51 1.07,0.82 1.48,0.93 0.42,0.12 0.88,0.07 1.39,-0.13l0.9 0.79 -5.86 6.63 -0.9 -0.8c0.22,-0.58 0.01,-1.15 -0.61,-1.69 -0.36,-0.32 -1.22,-0.64 -2.58,-0.95l-32.17 -7.34zm42.97 -2.6l-34.74 -24.21c-0.62,-0.44 -1.15,-0.68 -1.58,-0.75 -0.42,-0.07 -0.88,0.02 -1.36,0.29l-0.99 -0.69 8.97 -12.86c1.96,-2.82 4.04,-4.58 6.24,-5.29 3.17,-1.01 7.04,-0.69 11.59,0.94 3.59,1.28 7.4,3.33 11.43,6.13 7.08,4.94 11.63,9.93 13.65,14.96 0.84,2.12 1.13,4.09 0.85,5.95 -0.29,1.83 -1.18,3.82 -2.66,5.96l-8.97 12.86 -0.98 -0.69c0.07,-0.55 0.01,-1 -0.2,-1.38 -0.21,-0.38 -0.63,-0.79 -1.25,-1.22zm-0.08 -7.56l4.41 -6.33c1.41,-2.02 1.97,-3.88 1.69,-5.58 -0.58,-3.65 -3.92,-7.59 -10.03,-11.85 -4.41,-3.07 -8.21,-4.84 -11.36,-5.31 -1.76,-0.25 -3.25,-0.11 -4.44,0.44 -1.2,0.54 -2.33,1.57 -3.4,3.1l-4.41 6.33 27.54 19.2zm7.21 -62.97l22.47 19.25c1.11,1.02 1.85,1.62 2.2,1.8 0.98,0.53 1.93,0.46 2.81,-0.23l1.07 0.57 -4.25 7.97 -1.06 -0.56c0.16,-0.96 -0.36,-1.77 -1.55,-2.4 -0.32,-0.17 -1.37,-0.5 -3.15,-1.02l-36.37 -10.23c-1.8,-0.51 -3.07,-0.77 -3.79,-0.79 -0.73,-0.02 -1.33,0.19 -1.82,0.63l-1.06 -0.56 4.58 -8.6 1.06 0.57c-0.11,0.92 0.33,1.64 1.3,2.15 0.5,0.27 1.26,0.55 2.29,0.85l25.96 7.49 -20.65 -17.8c-0.88,-0.76 -1.49,-1.24 -1.81,-1.41 -1,-0.53 -1.85,-0.46 -2.56,0.2l-1.06 -0.56 4.8 -9.02 1.06 0.56c-0.05,1.03 0.43,1.82 1.44,2.35 0.35,0.19 1.05,0.43 2.11,0.73l26.02 7.38 -20.35 -17.11c-1,-0.86 -1.78,-1.44 -2.35,-1.74 -0.95,-0.51 -1.81,-0.4 -2.57,0.31l-1.06 -0.56 4.53 -8.52 1.06 0.56c-0.02,0.77 0.14,1.39 0.49,1.87 0.36,0.48 1.29,1.37 2.79,2.66l28.81 24.44c1.38,1.17 2.33,1.89 2.83,2.16 1.06,0.56 1.96,0.49 2.67,-0.24l1.06 0.57 -4.3 8.08 -1.06 -0.56c0.2,-0.98 -0.29,-1.79 -1.49,-2.43 -0.41,-0.22 -1.48,-0.54 -3.22,-0.99l-27.88 -7.82zm41.53 -16.9l-39.93 -14.2c-0.69,-0.25 -1.26,-0.34 -1.68,-0.29 -0.43,0.05 -0.85,0.26 -1.24,0.64l-1.13 -0.4 2.93 -8.27 1.13 0.41c0.05,0.54 0.22,0.95 0.55,1.27 0.31,0.31 0.81,0.6 1.51,0.84l39.92 14.2c0.72,0.26 1.29,0.36 1.74,0.31 0.45,-0.05 0.85,-0.27 1.22,-0.64l1.13 0.4 -2.94 8.26 -1.13 -0.4c-0.07,-0.55 -0.25,-0.97 -0.55,-1.28 -0.3,-0.31 -0.81,-0.59 -1.53,-0.85zm-23.39 -26.5l29.21 8.5c0.73,0.21 1.31,0.28 1.74,0.2 0.42,-0.07 0.82,-0.31 1.2,-0.71l1.15 0.34 -2.3 7.89 -1.15 -0.34c-0.1,-0.54 -0.31,-0.95 -0.63,-1.24 -0.32,-0.29 -0.84,-0.55 -1.58,-0.76l-40.68 -11.83c-0.71,-0.21 -1.28,-0.27 -1.71,-0.2 -0.42,0.08 -0.83,0.31 -1.2,0.72l-1.15 -0.34 2.66 -9.16 1.16 0.34c0.09,0.64 0.55,1.07 1.37,1.31 0.57,0.17 1.23,0.16 2.03,0l31.9 -6.93 -28.51 -8.29c-0.71,-0.21 -1.27,-0.27 -1.7,-0.2 -0.42,0.07 -0.83,0.31 -1.2,0.71l-1.15 -0.33 2.3 -7.9 1.15 0.34c0.09,0.54 0.31,0.95 0.63,1.24 0.32,0.29 0.83,0.55 1.54,0.75l40.69 11.84c0.73,0.21 1.31,0.28 1.74,0.2 0.42,-0.07 0.82,-0.31 1.19,-0.71l1.16 0.33 -2.47 8.49 -1.16 -0.33c-0.05,-0.62 -0.47,-1.04 -1.27,-1.27 -0.47,-0.14 -1.38,-0.05 -2.74,0.24l-32.22 7.1z"/>
  <path class="fil4" d="M613.18 1468.15l-16.31 2.56c-0.73,0.11 -1.27,0.3 -1.64,0.55 -0.37,0.26 -0.62,0.64 -0.77,1.15l-1.18 0.18 -1.36 -8.66 1.18 -0.18c0.33,0.44 0.69,0.73 1.1,0.85 0.42,0.13 0.99,0.14 1.72,0.03l41.86 -6.56c0.75,-0.12 1.31,-0.31 1.66,-0.56 0.36,-0.24 0.62,-0.63 0.78,-1.15l1.19 -0.19 2.72 17.34c0.31,2.02 0.32,3.66 0.02,4.93 -0.29,1.26 -0.96,2.44 -2,3.53 -1.08,1.13 -2.59,2.11 -4.51,2.96 -1.99,0.85 -4.15,1.46 -6.46,1.83 -3.34,0.52 -6.34,0.48 -9.02,-0.13 -2.28,-0.54 -3.99,-1.44 -5.12,-2.73 -1.12,-1.29 -1.89,-3.22 -2.3,-5.78l-1.56 -9.97zm8.16 -1.28l1.46 9.27c0.29,1.85 0.83,3.09 1.66,3.72 0.53,0.41 1.32,0.68 2.37,0.81 1.04,0.14 2.17,0.11 3.38,-0.08 1.17,-0.18 2.24,-0.5 3.19,-0.95 0.96,-0.45 1.63,-0.94 2.01,-1.49 0.6,-0.84 0.74,-2.19 0.45,-4.06l-1.46 -9.26 -13.06 2.04zm-13.37 33.44l5.11 16.48c0.13,0.41 0.39,0.67 0.78,0.78 0.38,0.11 1.01,0.1 1.89,-0.03l0.2 0.65 -12.34 3.82 -0.2 -0.64c0.8,-0.39 1.32,-0.75 1.58,-1.05 0.25,-0.31 0.33,-0.67 0.2,-1.08l-7.32 -23.61 1.15 -0.36c0.38,0.4 0.78,0.62 1.21,0.69 0.43,0.07 1.01,-0.01 1.74,-0.23l40.44 -12.53c0.72,-0.23 1.24,-0.5 1.56,-0.79 0.31,-0.3 0.52,-0.72 0.61,-1.26l1.14 -0.35 2.6 8.37 -1.15 0.36c-0.36,-0.4 -0.75,-0.64 -1.19,-0.7 -0.45,-0.06 -1.02,0.02 -1.75,0.24l-36.26 11.24zm20.09 38.39l-5.24 -11.54 -7.24 1.18c-1,0.17 -1.76,0.37 -2.27,0.6 -0.99,0.45 -1.48,1.19 -1.48,2.19l-1.09 0.5 -3.85 -8.46 1.1 -0.5c0.41,0.41 0.89,0.66 1.45,0.72 0.57,0.06 1.57,-0.03 3.01,-0.29l39.29 -6.49c1.25,-0.2 2.21,-0.46 2.88,-0.77 1.02,-0.46 1.59,-1.15 1.7,-2.08l1.1 -0.5 4.12 9.07 -1.1 0.5c-0.71,-0.57 -1.54,-0.64 -2.47,-0.21 -0.64,0.29 -1.33,0.74 -2.04,1.35l-30.69 25.69c-1.31,1.09 -2.16,1.91 -2.56,2.47 -0.41,0.56 -0.57,1.14 -0.52,1.75l-1.09 0.5 -4.29 -9.45 1.1 -0.49c0.62,0.71 1.49,0.81 2.63,0.29 0.48,-0.22 1.12,-0.66 1.91,-1.33l5.64 -4.7zm5.49 -4.43l14.24 -11.42 -18 3.13 3.76 8.29zm13.62 21.17l-14.53 9.03c-0.63,0.4 -1.07,0.79 -1.31,1.16 -0.23,0.37 -0.32,0.82 -0.27,1.37l-1.02 0.63 -4.63 -7.45 1.02 -0.63c0.46,0.27 0.91,0.39 1.34,0.36 0.44,-0.05 0.98,-0.27 1.62,-0.66l14.53 -9.04 14.52 -19.73c1.25,-1.69 2.03,-2.9 2.37,-3.64 0.34,-0.73 0.39,-1.4 0.19,-2l1.02 -0.64 5.88 9.44 -1.03 0.64c-0.7,-0.64 -1.6,-0.63 -2.65,0.02 -0.37,0.23 -1.04,0.98 -2.01,2.25l-8.75 11.4 14.19 -2.66c1.52,-0.28 2.5,-0.56 2.93,-0.83 0.47,-0.29 0.82,-0.65 1.03,-1.07 0.21,-0.43 0.26,-0.85 0.14,-1.28l1.02 -0.63 5.73 9.22 -1.02 0.63c-0.45,-0.44 -1.07,-0.68 -1.88,-0.7 -0.82,-0.03 -2.24,0.14 -4.31,0.51l-24.12 4.3zm18.95 39.86l-7.89 -9.92 -6.73 2.9c-0.93,0.41 -1.62,0.78 -2.06,1.13 -0.85,0.68 -1.15,1.51 -0.9,2.49l-0.94 0.74 -5.78 -7.28 0.94 -0.74c0.5,0.3 1.02,0.42 1.58,0.34 0.56,-0.07 1.52,-0.41 2.85,-1l36.54 -15.83c1.17,-0.5 2.03,-0.98 2.61,-1.44 0.88,-0.7 1.26,-1.51 1.15,-2.44l0.94 -0.75 6.2 7.8 -0.94 0.75c-0.83,-0.38 -1.65,-0.24 -2.45,0.4 -0.56,0.43 -1.11,1.04 -1.66,1.8l-23.54 32.37c-1,1.37 -1.63,2.38 -1.89,3.02 -0.25,0.64 -0.27,1.24 -0.07,1.82l-0.94 0.74 -6.45 -8.12 0.94 -0.74c0.78,0.53 1.64,0.42 2.63,-0.36 0.41,-0.33 0.92,-0.91 1.53,-1.75l4.33 -5.93zm4.25 -5.62l11.05 -14.54 -16.71 7.4 5.66 7.14zm23.97 5.04l-21.71 21.31c-0.54,0.53 -0.89,1 -1.03,1.41 -0.14,0.41 -0.13,0.87 0.03,1.39l-0.85 0.85 -5.76 -5.87 0.86 -0.84c0.52,0.17 0.98,0.19 1.39,0.06 0.41,-0.14 0.89,-0.47 1.43,-1.01l30.25 -29.67c0.53,-0.52 0.86,-0.98 1.01,-1.39 0.14,-0.41 0.14,-0.88 -0.04,-1.39l0.86 -0.85 6.68 6.81 -0.86 0.84c-0.6,-0.23 -1.21,-0.05 -1.82,0.56 -0.42,0.41 -0.74,0.99 -0.99,1.77l-9.59 31.21 21.2 -20.8c0.53,-0.51 0.86,-0.98 1,-1.39 0.15,-0.4 0.14,-0.87 -0.03,-1.39l0.86 -0.84 5.75 5.87 -0.85 0.84c-0.52,-0.18 -0.99,-0.2 -1.4,-0.06 -0.41,0.13 -0.88,0.46 -1.41,0.98l-30.24 29.67c-0.55,0.53 -0.89,1.01 -1.03,1.42 -0.15,0.4 -0.14,0.86 0.03,1.39l-0.86 0.84 -6.19 -6.31 0.86 -0.84c0.56,0.25 1.14,0.09 1.73,-0.49 0.35,-0.34 0.72,-1.18 1.13,-2.51l9.59 -31.57zm0.17 42.98l27.43 -32.25c0.49,-0.58 0.79,-1.08 0.9,-1.5 0.1,-0.42 0.06,-0.89 -0.16,-1.39l0.77 -0.91 11.95 10.16c2.61,2.22 4.17,4.47 4.67,6.72 0.7,3.25 0.01,7.07 -2.06,11.45 -1.62,3.45 -4.02,7.04 -7.2,10.78 -5.59,6.58 -11,10.63 -16.2,12.15 -2.19,0.64 -4.18,0.73 -6,0.27 -1.8,-0.46 -3.69,-1.53 -5.68,-3.21l-11.94 -10.16 0.78 -0.92c0.54,0.13 1,0.11 1.4,-0.06 0.39,-0.18 0.84,-0.55 1.34,-1.13zm7.52 0.65l5.88 5c1.87,1.59 3.67,2.33 5.39,2.22 3.68,-0.24 7.93,-3.18 12.76,-8.85 3.48,-4.09 5.61,-7.7 6.37,-10.8 0.42,-1.73 0.43,-3.22 0,-4.46 -0.42,-1.25 -1.34,-2.47 -2.77,-3.68l-5.87 -5 -21.76 25.57zm62.26 13.91l-21.92 19.87c-1.15,0.98 -1.83,1.63 -2.06,1.96 -0.64,0.91 -0.69,1.86 -0.13,2.82l-0.69 0.99 -7.38 -5.21 0.7 -0.98c0.93,0.27 1.79,-0.15 2.56,-1.24 0.21,-0.3 0.68,-1.3 1.42,-3l14.71 -34.8c0.73,-1.73 1.15,-2.95 1.26,-3.66 0.11,-0.72 -0.02,-1.34 -0.4,-1.88l0.69 -0.98 7.96 5.61 -0.69 0.99c-0.91,-0.23 -1.67,0.12 -2.31,1.02 -0.32,0.46 -0.7,1.17 -1.12,2.16l-10.7 24.82 20.26 -18.25c0.86,-0.78 1.41,-1.33 1.62,-1.63 0.65,-0.91 0.69,-1.78 0.12,-2.56l0.7 -0.98 8.34 5.89 -0.69 0.98c-1.01,-0.17 -1.86,0.21 -2.52,1.14 -0.23,0.33 -0.55,0.99 -0.98,2l-10.59 24.89 19.53 -18.04c0.98,-0.89 1.65,-1.59 2.02,-2.11 0.62,-0.88 0.63,-1.75 0.02,-2.6l0.69 -0.98 7.88 5.57 -0.69 0.98c-0.76,-0.12 -1.4,-0.04 -1.92,0.25 -0.52,0.29 -1.52,1.11 -2.98,2.43l-27.87 25.52c-1.33,1.22 -2.16,2.07 -2.5,2.54 -0.69,0.98 -0.73,1.87 -0.09,2.67l-0.7 0.98 -7.48 -5.28 0.7 -0.98c0.94,0.33 1.8,-0.06 2.59,-1.17 0.26,-0.38 0.72,-1.41 1.38,-3.07l11.26 -26.68zm8.15 42.13l21.3 -36.63c0.37,-0.63 0.57,-1.17 0.6,-1.6 0.03,-0.43 -0.1,-0.88 -0.41,-1.34l0.61 -1.04 7.58 4.41 -0.6 1.04c-0.54,-0.05 -0.99,0.04 -1.36,0.3 -0.36,0.25 -0.73,0.69 -1.1,1.33l-21.3 36.63c-0.39,0.66 -0.59,1.21 -0.62,1.65 -0.04,0.46 0.1,0.89 0.4,1.32l-0.6 1.04 -7.58 -4.41 0.6 -1.04c0.55,0.03 1,-0.07 1.36,-0.31 0.36,-0.24 0.73,-0.69 1.12,-1.35zm31.06 -17.37l-14.28 26.85c-0.36,0.68 -0.54,1.23 -0.56,1.66 -0.01,0.44 0.14,0.87 0.45,1.32l-0.56 1.06 -7.26 -3.86 0.57 -1.06c0.55,0.01 0.99,-0.11 1.34,-0.36 0.35,-0.25 0.71,-0.71 1.07,-1.39l19.89 -37.41c0.35,-0.65 0.53,-1.19 0.54,-1.63 0.02,-0.43 -0.13,-0.87 -0.45,-1.31l0.57 -1.06 8.41 4.47 -0.56 1.06c-0.64,-0.04 -1.16,0.32 -1.57,1.08 -0.27,0.52 -0.41,1.17 -0.41,1.98l0.27 32.65 13.94 -26.21c0.34,-0.65 0.52,-1.2 0.54,-1.63 0.01,-0.43 -0.13,-0.88 -0.46,-1.32l0.57 -1.06 7.26 3.86 -0.57 1.06c-0.54,-0.02 -0.99,0.11 -1.34,0.37 -0.35,0.25 -0.7,0.7 -1.05,1.35l-19.9 37.41c-0.36,0.68 -0.54,1.23 -0.55,1.66 -0.02,0.43 0.13,0.87 0.45,1.32l-0.57 1.06 -7.8 -4.15 0.56 -1.06c0.62,0.07 1.12,-0.26 1.51,-0.98 0.23,-0.44 0.33,-1.35 0.31,-2.74l-0.36 -32.99z"/>
  <path class="fil4" d="M963.81 1692.18l-17.79 98.14 16.88 3.06c2.47,0.45 5.02,0.55 7.66,0.3 2.63,-0.24 5.15,-1.26 7.56,-3.04 2.42,-1.78 4.61,-4.5 6.58,-8.15 1.98,-3.65 3.55,-8.7 4.72,-15.15 1.23,-6.82 1.49,-12.64 0.77,-17.45 -0.72,-4.81 -2.98,-8.29 -6.78,-10.43 2.74,-0.66 5.09,-2.57 7.05,-5.74 1.96,-3.17 3.42,-7.42 4.38,-12.75 1.44,-7.94 0.96,-13.94 -1.46,-18 -2.42,-4.06 -6.99,-6.7 -13.72,-7.92l-15.85 -2.87zm-0.53 85.63l5.46 -30.14 2.16 0.39c1.24,0.22 2.2,0.81 2.88,1.75 0.68,0.94 1.13,2.16 1.35,3.65 0.23,1.49 0.26,3.21 0.08,5.15 -0.18,1.95 -0.46,4 -0.85,6.15 -0.81,4.49 -1.92,7.95 -3.32,10.4 -1.4,2.45 -3.3,3.46 -5.7,3.02l-2.06 -0.37zm8.46 -46.69l3.81 -21.03 1.13 0.21c1.93,0.34 3.2,1.35 3.82,3 0.62,1.66 0.6,4.31 -0.06,7.96 -0.59,3.27 -1.49,5.86 -2.68,7.77 -1.2,1.9 -2.76,2.68 -4.68,2.33l-1.34 -0.24zm17.29 66.23l31.57 4.65 2.72 -18.47 -16.35 -2.41 11.81 -80.21 -15.21 -2.24 -14.54 98.68zm79.18 9.09l-8.52 -100.77 -14.59 -1.18 -24.54 98.08 14.8 1.2 4.15 -18.82 12.73 1.03 1.06 19.25 14.91 1.21zm-25.19 -37.5l5.94 -26.68c0.1,-0.38 0.2,-1.01 0.31,-1.91l0.32 -2.69c0.11,-0.89 0.21,-1.67 0.3,-2.33l0.13 -0.99c-0.13,1.61 -0.22,3.15 -0.27,4.62 -0.05,1.47 -0.03,2.6 0.04,3.37l1.46 27.28 -8.23 -0.67zm42.53 -9.61c0.31,-6.45 0.78,-11.78 1.4,-15.98 0.63,-4.2 1.42,-7.54 2.38,-10.02 0.95,-2.47 2.1,-4.17 3.44,-5.11 1.34,-0.93 2.91,-1.35 4.72,-1.27 1.39,0.07 2.66,0.2 3.8,0.4 1.15,0.2 2.08,0.65 2.82,1.35l2.97 -18.11c-1.9,-1.14 -3.79,-2 -5.69,-2.56 -1.89,-0.57 -3.95,-0.91 -6.18,-1.02 -3.62,-0.17 -6.9,0.43 -9.83,1.81 -2.93,1.38 -5.48,3.99 -7.66,7.83 -2.17,3.84 -3.95,9.13 -5.32,15.86 -1.38,6.74 -2.32,15.32 -2.82,25.76 -0.48,9.77 -0.4,17.91 0.22,24.4 0.63,6.5 1.79,11.7 3.49,15.58 1.7,3.89 3.94,6.68 6.72,8.39 2.78,1.7 6.08,2.65 9.91,2.83 2.09,0.11 4.16,-0.01 6.2,-0.34 2.04,-0.33 3.99,-0.97 5.85,-1.93l-0.12 -18.97c-1.22,0.6 -2.53,1.01 -3.94,1.23 -1.41,0.22 -2.8,0.29 -4.2,0.22 -1.6,-0.07 -2.98,-0.47 -4.13,-1.19 -1.15,-0.73 -2.08,-2.15 -2.78,-4.28 -0.7,-2.12 -1.16,-5.16 -1.39,-9.12 -0.22,-3.96 -0.18,-9.21 0.14,-15.76zm27.8 48.91l15.38 -0.25 -0.69 -42.89 7.07 42.79 16.42 -0.27 -9.7 -49.86 8.41 -49.87 -15.59 0.25 -6.83 43.86 -0.7 -43.74 -15.38 0.25 1.61 99.73zm64.1 -24.98l0 0 -3.68 -75.86 -15.37 0.74 3.68 75.72c0.15,3.04 -0.24,5.1 -1.17,6.19 -0.92,1.09 -1.97,1.67 -3.16,1.72 -1.04,0.05 -1.9,0.05 -2.57,-0.01 -0.66,-0.07 -1.38,-0.17 -2.16,-0.33l0.27 16.25c0.86,0.44 2.29,0.82 4.29,1.15 2.01,0.33 4.02,0.45 6.04,0.35 2.16,-0.11 4.15,-0.63 5.95,-1.57 1.8,-0.95 3.34,-2.43 4.6,-4.44 1.27,-2.01 2.19,-4.64 2.76,-7.91 0.58,-3.26 0.75,-7.26 0.52,-12zm51.56 19.76l-24.65 -98.08 -14.59 1.18 -8.42 100.76 14.81 -1.2 1.06 -19.24 12.72 -1.03 4.16 18.81 14.91 -1.2zm-30.91 -32.95l1.57 -27.29c0.03,-0.39 0.03,-1.03 0,-1.93l-0.12 -2.71c-0.04,-0.9 -0.06,-1.69 -0.08,-2.35l-0.03 -1c0.13,1.61 0.29,3.15 0.48,4.61 0.19,1.46 0.38,2.56 0.58,3.31l5.84 26.69 -8.24 0.67zm40.32 -17.62c-0.73,-6.42 -1.13,-11.75 -1.19,-16 -0.06,-4.25 0.18,-7.67 0.72,-10.26 0.55,-2.6 1.41,-4.47 2.58,-5.6 1.17,-1.14 2.65,-1.81 4.45,-2.02 1.39,-0.16 2.66,-0.23 3.82,-0.22 1.16,0.01 2.16,0.31 3,0.88l0.01 -18.36c-2.06,-0.82 -4.07,-1.35 -6.03,-1.61 -1.96,-0.25 -4.05,-0.25 -6.26,0 -3.6,0.41 -6.74,1.53 -9.41,3.37 -2.67,1.83 -4.77,4.82 -6.3,8.96 -1.53,4.14 -2.43,9.65 -2.7,16.51 -0.27,6.87 0.19,15.5 1.37,25.88 1.11,9.72 2.5,17.74 4.16,24.05 1.67,6.31 3.66,11.25 5.96,14.81 2.3,3.56 4.96,5.96 7.98,7.19 3.01,1.24 6.43,1.64 10.24,1.2 2.08,-0.23 4.1,-0.68 6.06,-1.33 1.96,-0.66 3.79,-1.61 5.47,-2.85l-3.19 -18.71c-1.1,0.79 -2.33,1.41 -3.68,1.85 -1.35,0.44 -2.72,0.74 -4.11,0.9 -1.59,0.18 -3.02,0.01 -4.27,-0.51 -1.26,-0.53 -2.4,-1.79 -3.43,-3.77 -1.04,-1.99 -1.98,-4.92 -2.84,-8.79 -0.87,-3.87 -1.67,-9.06 -2.41,-15.57zm28.35 45.3l15.14 -2.74 -7.65 -42.2 13.93 41.06 16.16 -2.93 -17.67 -47.63 0.19 -50.57 -15.34 2.78 0.39 44.39 -7.8 -43.05 -15.13 2.75 17.78 98.14z"/>
 </g>
</svg>
