<svg xmlns="http://www.w3.org/2000/svg" width="2480" height="3508" version="1" viewBox="0 0 2480 3507" shape-rendering="geometricPrecision" text-rendering="geometricPrecision" image-rendering="optimizeQuality" fill-rule="evenodd" clip-rule="evenodd">
  <defs>
    <style>
      .fil7{fill:#5e875e}.fil0{fill:#5e995e}.fil1{fill:#9bcc9b}.fil2{fill:#c5ebc5}.fil3,.fil4,.fil8{fill:#5e875e;fill-rule:nonzero}.fil3,.fil4{fill:#9bcc9b}
    </style>
  </defs>
  <g id="Layer_x0020_1">
    <path class="fil0" d="M2027 789c0 377-441 682-985 682S56 1166 56 789V271c0-90 74-163 164-163h1644c90 0 163 73 163 163v518z"/>
    <path class="fil1" d="M533 35a62 62 0 0 1 0 124H254c-27 0-53 11-72 30s-29 44-29 71v519c0 182 117 331 261 431 190 131 434 188 662 188s472-57 662-188c144-100 262-249 262-431V260c0-27-11-52-30-71s-45-30-72-30h-279a62 62 0 0 1 0-124h279a225 225 0 0 1 225 225v519c0 224-136 409-315 532a1303 1303 0 0 1-732 211c-253 0-521-65-732-211-179-123-315-308-315-532V260A225 225 0 0 1 254 35h280-1z"/>
    <path class="fil2" d="M533 74H254A186 186 0 0 0 67 260v519c0 211 131 384 299 501 204 141 464 204 710 204s506-63 710-204c168-117 299-290 299-501V260a186 186 0 0 0-187-186h-279a23 23 0 0 0 0 46h279a140 140 0 0 1 140 140v519c0 195-124 356-278 463a1217 1217 0 0 1-684 195c-236 0-487-60-684-195-154-107-278-268-278-463V260a140 140 0 0 1 140-140h279a23 23 0 1 0 0-46z"/>
    <path class="fil1" d="M766 603h121v10H766v-10zm499 0h121v10h-121v-10z"/>
    <path class="fil0" d="M1101 935h121c10 0 18 8 18 18v190c0 9-8 17-18 17h-121c-10 0-18-8-18-17V953c0-10 8-18 18-18z"/>
    <path class="fil3" d="M607 930L499 819a10 10 0 0 0-14 0L312 988a10 10 0 0 0 0 14l107 111a10 10 0 0 0 14 0l174-169a10 10 0 0 0 0-14zm-99-120l108 111c5 4 7 10 7 16s-3 12-7 16l-174 169a23 23 0 0 1-32 0l-108-111a23 23 0 0 1 1-32l173-169c5-5 10-7 16-7s12 3 16 7zM1546 922l107-111a10 10 0 0 1 14 0l174 169a10 10 0 0 1 0 14l-108 110a10 10 0 0 1-14 1l-173-169a10 10 0 0 1 0-14zm98-120l-108 111c-4 4-6 10-6 16s2 12 7 16l173 169c5 4 10 7 16 6 6 0 12-2 16-6l108-111c5-5 7-10 7-16s-3-12-7-16l-174-169c-4-5-10-7-16-7s-12 3-16 7zM1293 1034l146-51a10 10 0 0 1 13 6h-1 1l80 228a10 10 0 0 1-6 13l-145 51a10 10 0 0 1-13-6l-81-228a10 10 0 0 1 6-13zm142-63l-146 51c-6 2-10 7-13 12-2 5-3 12-1 17l81 228v1c2 5 6 10 12 13 5 2 11 3 17 1l146-52c6-2 10-7 13-12 2-5 3-11 1-17l-81-228c-2-6-7-11-12-13-5-3-11-4-17-1zM862 1031l-145-51a10 10 0 0 0-13 6l-81 228a10 10 0 0 0 6 12l146 52a10 10 0 0 0 12-6l81-228a10 10 0 0 0-6-13zm-141-64l146 52c6 2 10 6 13 12 2 5 3 11 1 17l-81 228c-2 6-7 11-12 13-5 3-12 3-18 1l-145-51c-6-2-11-7-13-12-3-5-3-12-1-18l81-228c2-6 6-10 12-13 5-2 11-3 17-1zM1155 1046h-155a10 10 0 0 0-10 10l1 242a10 10 0 0 0 10 10l154-1a10 10 0 0 0 10-9l-1-242a10 10 0 0 0-9-10zm-155-13h155c6 0 12 2 16 6s7 10 7 16v242c0 7-2 13-6 17-5 4-10 6-17 6l-154 1c-6 0-12-3-16-7s-7-10-7-16l-1-242c0-6 3-12 7-16s10-7 16-7z"/>
    <g id="_1829396671968">
      <path class="fil4" d="M501 581a189 189 0 0 0 3 21c8 42 27 81 52 116 32 44 72 80 108 107 58 42 123 73 190 93a761 761 0 0 0 444 0c67-20 132-51 190-93 36-27 76-63 108-107a295 295 0 0 0 55-137h-98a376 376 0 0 1-113 155c-51 37-108 64-167 82a686 686 0 0 1-394 0c-59-18-116-45-167-82a376 376 0 0 1-113-155h-98zm-17 8l-2-17v-9h132l2 7c4 23 19 50 37 76 22 32 50 61 70 76 49 35 104 61 161 78a668 668 0 0 0 384 0c57-17 112-43 161-78 20-15 48-44 70-76 18-26 33-53 37-76l2-7h132v9a251 251 0 0 1-4 33c-9 45-29 87-55 123-33 46-74 84-113 112-59 43-126 75-195 96a779 779 0 0 1-454 0c-69-21-136-53-195-96-39-28-80-66-113-112a312 312 0 0 1-57-139z"/>
      <path d="M953 941c147 22 287 5 420-50l5 17a766 766 0 0 1-408 54l-17-21z" fill="#9bcc9b"/>
    </g>
    <path class="fil4" d="M857 371h24v-91h16v-19h-56v19h16z"/>
    <path id="1" class="fil4" d="M898 316l2 25c1 7 3 13 6 18 2 4 6 8 10 10s9 3 15 3 11-1 15-3c5-2 8-6 11-10l5-18a162 162 0 0 0 0-51l-5-18c-3-4-6-8-11-10-4-2-9-3-15-3s-11 1-15 3-8 6-10 10c-3 5-5 11-6 18l-2 26zm25 0a249 249 0 0 1 2-30c1-2 1-4 3-5l3-1 4 1 2 5 2 11a248 248 0 0 1-2 48c0 3-1 4-2 5l-4 2-3-2c-2-1-2-2-3-5l-2-11v-18z"/>
    <path id="2" class="fil4" d="M971 371h21l-2-72-1-4 1-4v7l12 73h27l12-73v-4-5 10l-2 72h21V261h-29l-15 78v4l-1 1v-1-2-2l-15-78h-29v110z"/>
    <path id="3" class="fil4" d="M1069 371h21l-2-72v-4-4 4l1 3 12 73h26l12-73v-4l1-5v10l-3 72h21V261h-29l-14 78-1 2v3l-1-1v-2-2l-14-78h-30v110z"/>
    <path id="4" class="fil4" d="M1184 371h24v-38l21-72h-23l-9 41-1 5-1-5-9-41h-24l22 72v38z"/>
    <path id="5" class="fil4" d="M1231 294h16l12-33h-23z"/>
    <path id="6" class="fil4" d="M1311 340l-2-14a38 38 0 0 0-11-17l-7-6-5-6-2-8 2-7 3-3 4-1a33 33 0 0 1 15 1l2-18a37 37 0 0 0-8-1 154 154 0 0 0-11-1c-10 0-17 2-22 7s-7 13-7 24l2 15a34 34 0 0 0 11 16l7 5 5 6 2 9-2 6a9 9 0 0 1-7 6l-5 1a52 52 0 0 1-14-2l-1 18 5 1a99 99 0 0 0 28 0c3-1 6-2 9-5 3-2 5-5 6-9 2-5 3-10 3-17z"/>
    <path id="7" class="fil4" d="M926 452l1-18 3-11c1-3 3-4 5-6l7-1h5l5 1 3-20a48 48 0 0 0-33-1c-4 2-8 5-11 9l-7 18-2 29 2 27c2 7 4 13 7 17 2 4 6 7 10 9l15 2h10l8-3-1-21-6 2h-6l-7-1-4-4-3-10-1-18z"/>
    <path id="8" class="fil4" d="M1027 506l-25-111h-22l-25 111h23l4-21h19l4 21h22zm-42-39l6-30v-5-4a84 84 0 0 0 1 9l5 30h-12z"/>
    <path id="9" class="fil4" d="M1079 475l-2-15a38 38 0 0 0-12-16l-6-6-5-6-2-8 2-7 3-3 4-2a34 34 0 0 1 11 1l4 1 2-18a38 38 0 0 0-8-1 151 151 0 0 0-11-1c-10 0-17 2-22 7s-7 13-7 24l2 15a34 34 0 0 0 11 16l7 5 5 6 1 9c1 3 0 5-1 6l-2 4-5 2-5 1a54 54 0 0 1-14-2l-1 18 5 1a92 92 0 0 0 28 0c3-1 6-2 9-5 3-2 5-5 6-9 2-5 3-10 3-17z"/>
    <path id="10" class="fil4" d="M1085 506h23V395h-23z"/>
    <path id="11" class="fil4" d="M1140 506v-41l-1-11a246 246 0 0 1 2 4l15 48h22V395h-22v54l-1-4-15-50h-22v111h22z"/>
    <path id="12" class="fil4" d="M1185 451l2 25 5 18c3 4 6 8 10 10 5 2 10 3 16 3s11-1 15-3 8-6 10-10c3-5 5-11 6-18a162 162 0 0 0 0-51c-1-7-3-13-6-18-2-4-6-8-10-10s-9-3-15-3-11 1-16 3c-4 2-7 6-10 10l-5 18-2 26zm24 0a249 249 0 0 1 2-30l3-5 4-1 3 1 3 5 2 11a254 254 0 0 1-2 48l-3 5-3 1-4-1-3-5-1-11-1-18z"/>
    <path class="fil4" d="M930 627h40l1-3h2v17h-2l-1-2h-53l-2 2h-1v-2l1-10c2-5 5-10 10-13l13-7 7-3 8-5c2-2 2-4 2-7l-2-6c-2-2-5-2-9-2l-12 3c-4 2-5 4-5 6v3l-1 1-12-13 1-1 3 1h1l2-2c7-6 15-9 25-9 7 0 13 2 17 5 4 4 6 9 6 14 0 6-2 11-6 15l-11 7-7 3-5 2-6 3-4 3z"/>
    <path id="1" class="fil4" d="M1037 575c8 0 15 3 20 8 7 6 10 14 10 25a38 38 0 0 1-6 19c-2 4-6 7-10 10-4 2-9 3-14 3a28 28 0 0 1-26-17c-2-5-3-10-3-16 0-7 1-13 5-19 2-4 6-7 11-10 4-2 8-3 13-3zm0 11c-5 0-9 2-11 6-3 4-4 9-4 15s1 11 4 15c2 4 6 6 11 6s9-2 12-6c2-4 4-9 4-15s-2-11-4-15c-3-4-7-6-12-6z"/>
    <path id="2" class="fil4" d="M1109 599v-17h2l1 2 1 1h2l3-1v-3-2l-2-1v-2h19v2l-3 1v57l3 1v2h-19v-2l2-1v-42l-4 1-2 1-1 3h-2z"/>
    <path id="3" class="fil4" d="M1179 635l8-15 2 1-1 1c0 2 1 3 3 4l7 3 7 1c5 0 9-2 13-4l5-7 2-9-9 6-11 1c-7 0-12-1-17-4a19 19 0 0 1-9-16c0-7 3-12 9-16 5-4 12-6 20-6 9 0 15 2 20 7 4 3 6 6 8 11l2 14c0 9-3 17-9 23-6 7-14 10-24 10a43 43 0 0 1-19-5l-3-1-2 1v1l-2-1zm28-50c-4 0-8 2-11 4-2 2-4 4-4 7s2 6 4 8c3 2 7 3 11 3 5 0 9-1 12-3 2-2 3-5 3-8s-1-5-3-7c-3-2-7-4-12-4z"/>
    <g id="_1829396666912">
      <path class="fil1" d="M1532 233h-49l1 249h49v-63c0-34 34-35 34-62 0-26-35-27-35-61v-63z"/>
      <rect x="1501" y="252" width="286" height="216" rx="19" ry="15" fill="#fefefe"/>
      <path class="fil2" d="M1532 233v63c0 34 35 35 35 61s-34 28-34 61v64h257l-1-250-257 1z"/>
      <path class="fil7" d="M1542 322c-8 4-14 9-19 14 7-4 15-7 24-8l-5-6z"/>
      <path class="fil8" d="M1525 423l8-1v-4c-2 2-4 4-8 5zm24-88c7 2 13 7 16 15l2 6v1c0 7-2 12-6 16 2-8 2-15-1-21-2-6-6-11-12-12-6-2-12 0-17 4s-9 10-12 18c-2 8-1 16 1 22 3 6 7 11 13 12l6 1-3 5-4-1c-8-2-13-8-16-15s-4-16-1-25c2-9 7-16 13-21 7-5 14-7 21-5z"/>
      <path class="fil8" d="M1565 358l2-1v3l-2-2zm-47 5l-17 1v-4l19-2-2 5z"/>
      <path class="fil7" d="M1545 353c6 2 9 10 7 18s-9 14-16 12c-6-2-9-10-7-18s9-13 16-12zm-4 3c2 0 3 3 3 6-1 3-4 5-6 5-3-1-4-4-3-7s4-5 6-4z"/>
      <path class="fil1" d="M1642 232l1 250 262-2c17 0 30-16 30-36V267c0-20-14-36-31-36l-262 1z"/>
    </g>
    <path class="fil4" d="M1384 844l8 14 1 2h1l1 1-8 4v-1-1-1l-22-37-1-1-1-1-1-1 15-9 5-1h4l4 3a27 27 0 0 1 8 14l-1 6c-1 1-2 3-5 4l-8 5zm-5-7l9-5 2-3v-2l-1-3-2-3-2-1-4 1-8 5 6 11zm38 2l14-10 1-1-1-1 1-1 7 11h-1l-1-1h-1l-21 14-1-1 1-2-1-1-23-36-1-1-1-1-1-1 7-4 1 1v3l21 32zm34-29l-11 7 3 7 1 2c0 1 1 2 2 1l1 1-8 6v-1-2l-1-3-13-37-2-3-2-1-1-1 9-6v1l1 2 1 2 31 26 3 2h2v1l-8 6-1-1v-3l-2-1-5-5zm-6-5l-13-12 6 18 7-6zm20-17l11 13 1 1h2v1l-6 6-1-1v-2l-1-1-11-13-21-12-4-1h-2l-1-1 8-7 1 1v2l3 2 13 7-5-14-1-3h-2-1l-1-1 9-7v3l1 4 8 23zm39-24l-10 9 4 6 1 2 3 1v1l-6 6-1-1v-1l-1-3-19-35-1-3-3-1-1-1 8-6v1l1 2 2 1 34 22 3 1h2l1 1-8 7-1-1v-2l-2-2-6-4zm-6-3l-16-10 9 16 7-6zm3-25l23 20 1 1h2l1 1-6 6-1-1v-1l-1-1-32-28-1-1h-2v-1l6-7 1 1v1l2 1 32 8-22-20-2-1h-1l-1-1 6-6v1l1 1 1 2 31 28 2 1h2l-6 7-1-1v-1l-3-1-32-8zm43-2l-35-25h-3l-1-1 9-13 7-5c3-1 7 0 11 1l12 6c7 5 11 10 13 15l1 6-3 6-9 13-1-1v-1l-1-1zm0-8l4-6c2-2 2-4 2-6-1-3-4-7-10-12-4-3-8-4-11-5l-5 1-3 3-5 6 28 19zm7-63l23 19 2 2h3l1 1-5 8-1-1c1-1 0-2-1-2l-3-1-37-11h-4-2l4-9 1 1 2 2 2 1 26 7-21-18-2-1h-2l-1-1 5-9 1 1 1 2 2 1 26 8-20-18-3-1h-2l-1-1 4-8h1l1 2 3 3 29 24 2 3 3-1 1 1-4 8-1-1-2-2-3-1-28-8zm42-17l-40-14h-2-2l3-8h1v1l2 1 40 14 1 1 2-1 1 1-3 8-1-1-1-1-1-1zm-24-26l29 8h5l-3 8h-1l-1-2h-1l-41-12h-2-2l3-9h1l1 2 2-1 32-6-28-9h-2l-1 1-1-1 2-7h1l1 1 1 1 41 12h2l1-1 1 1-2 8h-2l-1-2-3 1-32 7zM564 609l-16 3-2 1-1 1h-1l-1-9h1l1 1h2l41-7h2l1-1 1-1 3 18v5l-2 3-5 3a27 27 0 0 1-15 2c-2-1-4-1-5-3l-3-6-1-10zm8-1l1 9 2 4 2 1h4l3-1 2-2 1-4-2-9-13 2zm-13 34l5 16 1 1h1l1 1-13 3 2-1v-1l-7-24h4l40-12 2-1v-2h1l3 8-1 1-1-1h-2l-36 12zm20 38l-6-12-7 2h-2l-2 2-1 1-3-9h1l1 1 3-1 39-6 3-1 2-2h1l4 9h-3l-2 1-31 26-3 2v2l-1 1-5-10h4l2-1 6-5zm5-4l14-12-18 3 4 9zm14 21l-15 9-1 1v1l-1 1-5-8h4l15-9 14-20 2-4 1-2h1l6 9-1 1h-3l-2 2-9 11 14-2 3-1 1-1v-2h1l6 9-1 1-2-1h-4l-24 5zm19 40l-8-10-7 3-2 1-1 2-1 1-6-7 1-1h2l3-1 36-16 3-1 1-2 1-1 6 8h-1l-2 1-2 2-23 32-2 3v2l-1 1-7-9h1l3-1 1-1 5-6zm4-6l11-15-17 8 6 7zm24 5l-22 21-1 2v1l-1 1-5-6 1-1h1l1-1 31-29 1-2v-2l7 7-1 1h-2l-1 2-9 31 21-21 1-1v-1l1-1 6 6-1 1-2-1-1 1-30 30-1 2v1l-1 1-6-7h1l1-1 1-2 10-32zm0 43l28-32v-2-1l1-1 12 10c3 2 4 5 5 7 0 3 0 7-2 11l-8 11c-5 7-11 11-16 12l-6 1-5-4-12-10v-1h2l1-1zm8 1l6 5 5 2c4 0 8-3 13-9l6-11v-4l-3-4-6-5-21 26zm62 14l-22 19-2 2v3l-1 1-7-5v-1l3-1 1-3 15-35 1-4v-2l1-1 8 6-1 1-2 1-1 2-11 25 20-18 2-2v-2l1-1 8 6-1 1c-1-1-2 0-2 1l-1 2-11 25 20-19 2-2v-3l8 5v1l-2 1-3 2-28 26-3 2v3l-1 1-7-6 1-1c1 1 2 0 2-1l2-3 11-26zm8 42l21-37 1-2v-2l8 4-1 2h-1l-1 1-22 37v4l-8-5 1-1h1l1-1zm31-18l-14 27-1 2 1 1-1 1-7-4v-1h2l1-1 20-38v-1-3l9 5-1 1-1 1-1 2 1 32 14-26v-1-3l7 4v1h-1l-2 2-19 37-1 2v2l-8-4 1-1 1-1 1-3-1-33zM914 833l-17 99 17 3h7c3 0 5-1 8-3l6-8 5-15c1-7 2-13 1-18s-3-8-7-10c3-1 5-3 7-6s4-7 4-13c2-8 1-14-1-18s-7-6-14-8l-16-3zm0 86l5-30h3l2 2 2 4v5l-1 6-3 10c-2 3-4 4-6 3h-2zm8-47l4-21 1 1c2 0 4 1 4 3v8c-1 3-1 5-3 7-1 2-2 3-4 3l-2-1zm18 67l31 4 3-18-16-3 11-80-15-2-14 99zm79 9l-9-101-14-1-25 98 15 1 4-19 13 1 1 20 15 1zm-25-38l6-26v-5l1-2v-1a100 100 0 0 0-1 8l2 27-8-1zm42-9a168 168 0 0 1 4-26l3-5 5-2 4 1 3 1 3-18a25 25 0 0 0-12-4l-10 2-8 8c-2 4-4 9-5 16a175 175 0 0 0 1 66l7 8c2 2 6 3 10 3l6-1 6-1-1-19-3 1h-5l-4-1-3-4-1-10v-15zm28 49l15-1v-43l7 43h16l-10-50 9-50h-16l-7 44v-43h-16l2 100zm64-25l-4-76h-15l4 76-1 6-4 2a19 19 0 0 1-4 0v16l4 1h6l6-1c2-1 4-2 5-5l3-7v-12zm52 19l-25-98-15 1-8 101 15-1 1-19 13-1 4 19 15-2zm-31-33l1-27v-5-3a110 110 0 0 0 1 8l6 27h-8zm40-17a167 167 0 0 1 0-26l2-6 5-2h3l3 1v-19a25 25 0 0 0-12-1c-3 0-7 1-9 3-3 2-5 5-7 9l-2 16a176 176 0 0 0 11 65c3 4 5 6 8 7 3 2 7 2 10 2l7-2 5-3-3-18-4 2h-8l-4-4-3-9-2-15zm28 45l16-3-8-42 14 41 16-3-18-47 1-51-16 3 1 44-8-43-15 3 17 98z"/>
  </g>
</svg>
