<?xml version="1.0" encoding="UTF-8"?>
<!DOCTYPE svg PUBLIC "-//W3C//DTD SVG 1.1//EN" "http://www.w3.org/Graphics/SVG/1.1/DTD/svg11.dtd">
<!-- Creator: CorelDRAW 2019 (64-Bit) -->
<svg xmlns="http://www.w3.org/2000/svg" xml:space="preserve" width="2480px" height="3508px" version="1.1" style="shape-rendering:geometricPrecision; text-rendering:geometricPrecision; image-rendering:optimizeQuality; fill-rule:evenodd; clip-rule:evenodd"
viewBox="0 0 2480 3507.43"
 xmlns:xlink="http://www.w3.org/1999/xlink"
 xmlns:xodm="http://www.corel.com/coreldraw/odm/2003">
 <defs>
  <style type="text/css">
   <![CDATA[
    .fil6 {fill:#FEFEFE}
    .fil7 {fill:#5E875E}
    .fil0 {fill:#5E995E}
    .fil1 {fill:#9BCC9B}
    .fil5 {fill:#9BCC9B}
    .fil2 {fill:#C5EBC5}
    .fil8 {fill:#5E875E;fill-rule:nonzero}
    .fil3 {fill:#9BCC9B;fill-rule:nonzero}
    .fil4 {fill:#9BCC9B;fill-rule:nonzero}
   ]]>
  </style>
 </defs>
 <g id="Layer_x0020_1">
  <metadata id="CorelCorpID_0Corel-Layer"/>
  <path class="fil0" d="M2027.27 789.21c0,376.44 -441.19,681.61 -985.42,681.61 -544.25,0 -985.43,-305.17 -985.43,-681.61l0 -518.33c0,-89.81 73.49,-163.3 163.3,-163.3l1644.28 0c89.81,0 163.3,73.49 163.3,163.3l0 518.33 -0.03 0z"/>
  <path class="fil1" d="M533.46 35.07c34.2,0 61.94,27.74 61.94,61.95 0,34.2 -27.74,61.94 -61.94,61.94l-279.56 0c-26.96,0 -52.49,10.79 -71.52,29.82 -19.04,19.03 -29.82,44.57 -29.82,71.52l0 518.33c0,182.19 117.68,331.43 261.82,431.12 189.67,131.21 433.32,188.55 661.67,188.55 228.36,0 472,-57.34 661.68,-188.55 144.14,-99.69 261.82,-248.93 261.82,-431.12l0 -518.33c0,-26.96 -10.79,-52.49 -29.82,-71.52 -19.03,-19.03 -44.58,-29.82 -71.53,-29.82l-279.55 0c-34.21,0 -61.95,-27.74 -61.95,-61.94 0,-34.21 27.74,-61.95 61.95,-61.95l279.55 0c59.88,0 116.82,23.81 159.13,66.12 42.31,42.31 66.12,99.23 66.12,159.13l0 518.32c0,224.39 -136.55,409.09 -315.44,532.83 -210.38,145.5 -478.4,210.73 -731.93,210.73 -253.53,0 -521.57,-65.23 -731.92,-210.73 -178.89,-123.74 -315.45,-308.44 -315.45,-532.83l0 -518.32c0,-59.88 23.81,-116.82 66.12,-159.13 42.31,-42.31 99.23,-66.12 159.13,-66.12l279.56 0 -0.06 0z"/>
  <path class="fil2" d="M533.46 73.75l-279.56 0c-49.61,0 -96.71,19.74 -131.78,54.79 -35.05,35.05 -54.78,82.17 -54.78,131.78l0 518.32c0,211.51 130.8,384.85 298.76,501.02 203.79,140.95 464.23,203.86 709.92,203.86 245.71,0 506.14,-62.91 709.93,-203.86 167.96,-116.17 298.76,-289.51 298.76,-501.02l0 -518.32c0,-49.61 -19.72,-96.71 -54.79,-131.78 -35.05,-35.05 -82.16,-54.79 -131.77,-54.79l-279.56 0c-12.85,0 -23.26,10.42 -23.26,23.27 0,12.85 10.41,23.26 23.26,23.26l279.56 0c37.22,0 72.58,14.86 98.87,41.15 26.29,26.29 41.15,61.67 41.15,98.87l0 518.33c0,195.54 -123.76,355.9 -278.48,462.94 -196.22,135.72 -447.22,195.41 -683.68,195.41 -236.47,0 -487.46,-59.69 -683.68,-195.41 -154.74,-107.03 -278.48,-267.4 -278.48,-462.94l0 -518.33c0,-37.22 14.86,-72.58 41.15,-98.87 26.29,-26.29 61.67,-41.15 98.87,-41.15l279.56 0c12.85,0 23.26,-10.41 23.26,-23.26 0,-12.85 -10.41,-23.27 -23.26,-23.27l0.03 0z"/>
  <path class="fil1" d="M765.63 602.68l121.13 0 0 10.8 -121.13 0 0 -10.8zm499.67 0l121.13 0 0 10.8 -121.13 0 0 -10.8z"/>
  <path class="fil0" d="M1101.15 935.43l120.98 0c9.72,0 17.67,7.96 17.67,17.67l0 189.63c0,9.73 -7.96,17.67 -17.67,17.67l-120.98 0c-9.72,0 -17.67,-7.96 -17.67,-17.67l0 -189.63c0,-9.72 7.96,-17.67 17.67,-17.67z"/>
  <path class="fil3" d="M606.82 929.96l-107.65 -110.53 -0.01 0.01 -0.06 -0.07c-1.9,-1.94 -4.4,-2.93 -6.93,-2.97 -2.51,-0.03 -5.02,0.87 -6.96,2.73l0.02 0.01 -0.07 0.06 -173.39 168.85c-1.93,1.89 -2.92,4.4 -2.96,6.93 -0.03,2.53 0.89,5.08 2.78,7.02l107.65 110.54 0.01 -0.02 0.06 0.08c1.89,1.93 4.41,2.92 6.93,2.97 2.51,0.03 5.02,-0.88 6.95,-2.73l-0.01 -0.01 0.07 -0.06 173.39 -168.85c1.93,-1.89 2.92,-4.41 2.96,-6.93 0.03,-2.54 -0.89,-5.08 -2.78,-7.03zm-98.36 -119.71l107.73 110.61c4.4,4.51 6.55,10.4 6.46,16.29 -0.06,5.88 -2.38,11.73 -6.89,16.13l-173.31 168.8 0.01 0.01 -0.07 0.06c-4.52,4.4 -10.41,6.55 -16.29,6.47 -5.86,-0.07 -11.68,-2.37 -16.08,-6.85l-0.01 0.02 -0.06 -0.07 -107.73 -110.61c-4.4,-4.52 -6.55,-10.41 -6.47,-16.29 0.08,-5.88 2.38,-11.73 6.9,-16.14l173.32 -168.79 -0.02 -0.01 0.07 -0.06c4.52,-4.4 10.41,-6.56 16.3,-6.47 5.84,0.07 11.67,2.37 16.07,6.84l0.01 -0.01 0.06 0.07 0 0z"/>
  <path class="fil3" d="M1545.58 921.83l107.65 -110.54 0.01 0.01 0.06 -0.07c1.89,-1.93 4.41,-2.92 6.93,-2.96 2.51,-0.03 5.02,0.87 6.95,2.72l-0.01 0.01 0.07 0.06 173.39 168.85c1.93,1.89 2.92,4.4 2.96,6.93 0.03,2.54 -0.89,5.08 -2.78,7.03l-107.65 110.53 -0.02 -0.01 -0.05 0.07c-1.89,1.93 -4.4,2.93 -6.93,2.97 -2.51,0.03 -5.02,-0.88 -6.96,-2.73l0.02 -0.01 -0.07 -0.06 -173.39 -168.85c-1.93,-1.89 -2.92,-4.4 -2.96,-6.93 -0.03,-2.54 0.89,-5.07 2.78,-7.02zm98.36 -119.72l-107.73 110.61c-4.4,4.52 -6.55,10.41 -6.46,16.29 0.07,5.88 2.38,11.73 6.89,16.13l173.31 168.8 -0.01 0.01 0.07 0.06c4.52,4.41 10.41,6.56 16.29,6.47 5.86,-0.07 11.68,-2.37 16.08,-6.84l0.01 0.01 0.06 -0.07 107.73 -110.61c4.4,-4.51 6.55,-10.41 6.47,-16.29 -0.08,-5.88 -2.38,-11.73 -6.9,-16.13l-173.31 -168.8 0.01 -0.01 -0.07 -0.06c-4.52,-4.4 -10.41,-6.56 -16.3,-6.46 -5.85,0.07 -11.67,2.36 -16.07,6.83l-0.02 -0.01 -0.05 0.07 0 0z"/>
  <path class="fil3" d="M1293.43 1034.49l145.42 -51.58 0.01 0.02 0.08 -0.04c2.56,-0.9 5.25,-0.68 7.53,0.4 2.26,1.08 4.12,3 5.03,5.52l-0.02 0.01 0.05 0.08 80.9 228.09c0.9,2.55 0.68,5.24 -0.4,7.53 -1.09,2.29 -3.04,4.16 -5.6,5.07l-145.43 51.57 0 -0.01 -0.08 0.04c-2.55,0.9 -5.25,0.68 -7.53,-0.4 -2.26,-1.08 -4.12,-3.01 -5.03,-5.52l0.02 -0.01 -0.04 -0.08 -80.91 -228.1c-0.9,-2.55 -0.68,-5.24 0.4,-7.52 1.1,-2.29 3.04,-4.16 5.6,-5.07zm141.14 -63.92l-145.51 51.61c-5.95,2.1 -10.48,6.44 -13,11.75 -2.54,5.31 -3.05,11.58 -0.95,17.52l80.86 228.02 -0.01 0 0.04 0.09c2.1,5.94 6.44,10.48 11.75,13 5.28,2.52 11.52,3.04 17.45,0.97l0 0.02 0.09 -0.04 145.51 -51.61c5.95,-2.11 10.48,-6.44 13.01,-11.76 2.53,-5.3 3.05,-11.57 0.94,-17.52l-80.87 -228.01 0.02 -0.01 -0.04 -0.08c-2.1,-5.95 -6.44,-10.48 -11.75,-13 -5.28,-2.52 -11.52,-3.04 -17.45,-0.97l0 -0.02 -0.09 0.04 0 0z"/>
  <path class="fil3" d="M862.22 1031.23l-145.42 -51.57 -0.01 0.01 -0.08 -0.04c-2.55,-0.9 -5.24,-0.67 -7.52,0.4 -2.27,1.09 -4.12,3.01 -5.04,5.52l0.02 0.01 -0.04 0.08 -80.9 228.1c-0.9,2.55 -0.68,5.24 0.4,7.52 1.09,2.29 3.04,4.16 5.6,5.08l145.42 51.57 0 -0.02 0.09 0.04c2.55,0.9 5.24,0.68 7.52,-0.4 2.27,-1.08 4.12,-3 5.04,-5.52l-0.02 0 0.03 -0.09 80.91 -228.09c0.9,-2.55 0.68,-5.24 -0.4,-7.53 -1.09,-2.29 -3.04,-4.16 -5.6,-5.07zm-141.14 -63.92l145.52 51.61c5.94,2.11 10.48,6.44 13,11.76 2.53,5.3 3.05,11.57 0.94,17.52l-80.86 228.01 0.02 0.01 -0.04 0.08c-2.11,5.95 -6.44,10.48 -11.76,13 -5.28,2.53 -11.52,3.04 -17.44,0.97l-0.01 0.02 -0.08 -0.04 -145.52 -51.6c-5.95,-2.11 -10.48,-6.45 -13,-11.76 -2.54,-5.31 -3.05,-11.58 -0.95,-17.52l80.87 -228.02 -0.02 0 0.04 -0.08c2.1,-5.95 6.44,-10.49 11.76,-13 5.28,-2.53 11.51,-3.04 17.44,-0.97l0.01 -0.03 0.08 0.04 0 0z"/>
  <path class="fil3" d="M1154.57 1045.66l-154.3 0.44 0 0.02 -0.09 -0.01c-2.71,0.01 -5.16,1.13 -6.95,2.91 -1.77,1.79 -2.87,4.22 -2.88,6.9l0.02 0 -0.01 0.09 0.69 242.01c0.01,2.71 1.13,5.17 2.91,6.95 1.8,1.79 4.27,2.9 6.99,2.89l154.29 -0.44 0 -0.02 0.09 0.01c2.7,-0.01 5.17,-1.13 6.95,-2.91 1.77,-1.78 2.87,-4.22 2.88,-6.9l-0.02 0.01 0.01 -0.1 -0.69 -242.01c-0.01,-2.71 -1.13,-5.17 -2.91,-6.95 -1.8,-1.79 -4.27,-2.9 -6.98,-2.89zm-154.43 -12.62l154.4 -0.45c6.31,-0.02 12.04,2.53 16.2,6.69 4.18,4.14 6.77,9.87 6.8,16.18l0.7 241.92 0.01 0 -0.01 0.1c0.03,6.3 -2.53,12.04 -6.68,16.2 -4.12,4.15 -9.82,6.74 -16.1,6.79l0 0.02 -0.09 -0.01 -154.4 0.45c-6.31,0.02 -12.04,-2.54 -16.2,-6.69 -4.18,-4.14 -6.77,-9.87 -6.79,-16.18l-0.7 -241.93 -0.02 0.01 0.01 -0.1c-0.02,-6.3 2.53,-12.04 6.69,-16.2 4.12,-4.15 9.81,-6.74 16.09,-6.79l0 -0.02 0.09 0.01 0 0z"/>
  <g id="_1829396671968">
   <path class="fil4" d="M501.19 581.07c0.17,1.86 0.37,3.74 0.6,5.63 0.62,5.21 1.39,10.24 2.31,15.13 7.95,42.18 27.29,81.25 52.1,115.87 31.41,43.83 71.41,80.43 108.22,107.27 57.87,42.21 122.48,72.91 189.46,93.48 73.07,22.45 149.01,32.77 222.16,32.77 73.16,0 149.08,-10.34 222.16,-32.77 66.98,-20.57 131.59,-51.27 189.46,-93.48 36.8,-26.84 76.82,-63.44 108.21,-107.27 24.8,-34.62 44.16,-73.69 52.11,-115.87 0.91,-4.87 1.69,-9.92 2.31,-15.11 0.22,-1.91 0.43,-3.79 0.6,-5.65l-98.3 0c-6.21,23.9 -20.8,50.58 -38.33,75.38 -23.83,33.74 -53.42,64.45 -74.5,79.84 -50.7,36.98 -107.67,63.67 -166.63,81.48 -65.13,19.68 -132.75,28.58 -197.09,28.58 -64.33,0 -131.96,-8.9 -197.09,-28.58 -58.96,-17.81 -115.93,-44.52 -166.63,-81.48 -21.1,-15.39 -50.67,-46.1 -74.51,-79.84 -17.52,-24.81 -32.11,-51.49 -38.32,-75.38l-98.3 0zm-17.44 7.77c-0.63,-5.28 -1.09,-10.76 -1.36,-16.45l-0.48 -9.52 132.37 0 1.39 7.42c4.31,22.89 18.94,50.16 37,75.72 22.78,32.24 50.66,61.31 70.32,75.65 48.84,35.61 103.98,61.42 161.22,78.71 63.34,19.15 129.18,27.81 191.83,27.81 62.66,0 128.49,-8.66 191.82,-27.81 57.24,-17.29 112.39,-43.1 161.22,-78.71 19.67,-14.34 47.55,-43.41 70.32,-75.65 18.06,-25.56 32.69,-52.83 37.01,-75.72l1.39 -7.42 132.35 0 -0.47 9.52c-0.29,5.68 -0.75,11.17 -1.37,16.45 -0.63,5.33 -1.47,10.78 -2.52,16.33 -8.49,45.1 -28.97,86.57 -55.16,123.13 -32.56,45.45 -74.09,83.43 -112.34,111.33 -59.62,43.48 -126.03,75.06 -194.8,96.19 -74.98,23.02 -152.73,33.63 -227.49,33.63 -74.77,0 -152.52,-10.6 -227.5,-33.63 -68.76,-21.11 -135.18,-52.71 -194.8,-96.19 -38.23,-27.89 -79.77,-65.88 -112.34,-111.33 -26.19,-36.56 -46.67,-78.02 -55.16,-123.13 -1.05,-5.55 -1.89,-11 -2.52,-16.33l0.07 0z"/>
   <path class="fil5" d="M952.96 941.43c147.48,21.49 287.5,5.01 419.63,-50.58l5.51 16.93c-129.48,54.67 -265.95,73.4 -408.1,53.93l-17.04 -20.28z"/>
  </g>
  <polygon class="fil4" points="857.08,370.72 881.33,370.72 881.33,280.02 897.08,280.02 897.08,260.5 841.34,260.5 841.34,280.02 857.08,280.02 "/>
  <path id="1" class="fil4" d="M898.34 315.61c0,9.87 0.58,18.37 1.73,25.51 1.16,7.14 3.02,13.01 5.59,17.63 2.57,4.62 5.96,8.03 10.16,10.24 4.2,2.2 9.34,3.3 15.43,3.3 5.98,0 11.05,-1.1 15.19,-3.3 4.15,-2.21 7.51,-5.62 10.08,-10.24 2.57,-4.62 4.44,-10.49 5.59,-17.63 1.16,-7.14 1.73,-15.64 1.73,-25.51 0,-9.87 -0.57,-18.37 -1.73,-25.51 -1.15,-7.14 -3.02,-13.02 -5.59,-17.63 -2.57,-4.62 -5.93,-8.03 -10.08,-10.24 -4.14,-2.2 -9.21,-3.31 -15.19,-3.31 -6.09,0 -11.23,1.11 -15.43,3.31 -4.2,2.21 -7.59,5.62 -10.16,10.24 -2.57,4.61 -4.43,10.49 -5.59,17.63 -1.15,7.14 -1.73,15.64 -1.73,25.51zm24.25 0c0,-7.66 0.18,-13.86 0.55,-18.58 0.37,-4.72 0.92,-8.37 1.65,-10.94 0.74,-2.58 1.66,-4.28 2.76,-5.12 1.1,-0.84 2.33,-1.26 3.7,-1.26 1.36,0 2.54,0.42 3.54,1.26 1,0.84 1.84,2.54 2.52,5.12 0.68,2.57 1.21,6.22 1.57,10.94 0.37,4.72 0.56,10.92 0.56,18.58 0,7.77 -0.19,13.99 -0.56,18.66 -0.36,4.67 -0.89,8.29 -1.57,10.86 -0.68,2.57 -1.52,4.28 -2.52,5.12 -1,0.84 -2.18,1.26 -3.54,1.26 -1.37,0 -2.6,-0.42 -3.7,-1.26 -1.1,-0.84 -2.02,-2.52 -2.76,-5.04 -0.73,-2.52 -1.28,-6.14 -1.65,-10.86 -0.37,-4.73 -0.55,-10.97 -0.55,-18.74z"/>
  <path id="2" class="fil4" d="M971.09 370.72l20.78 0 -2.2 -72.12c0,-1.15 -0.08,-2.44 -0.24,-3.85 -0.16,-1.42 -0.08,-2.76 0.24,-4.02 -0.21,1.26 -0.21,2.52 0,3.78 0.21,1.26 0.42,2.36 0.62,3.31l11.97 72.9 26.45 0 11.97 -72.9c0.21,-1.05 0.34,-2.37 0.4,-3.94 0.05,-1.57 0.18,-3.04 0.39,-4.41 -0.11,1.58 -0.16,3.12 -0.16,4.65l0 4.48 -2.2 72.12 20.78 0 0 -110.22 -29.29 0 -14.17 78.1c-0.21,0.94 -0.31,1.76 -0.31,2.44 0,0.68 -0.05,1.39 -0.16,2.12l-0.47 0.95 -0.47 -0.95c-0.11,-0.73 -0.16,-1.44 -0.16,-2.12 0,-0.68 -0.11,-1.5 -0.32,-2.44l-14.17 -78.1 -29.28 0 0 110.22z"/>
  <path id="3" class="fil4" d="M1069.34 370.72l20.78 0 -2.2 -72.12c0,-1.15 -0.08,-2.44 -0.24,-3.85 -0.15,-1.42 -0.08,-2.76 0.24,-4.02 -0.21,1.26 -0.21,2.52 0,3.78 0.21,1.26 0.42,2.36 0.63,3.31l11.97 72.9 26.45 0 11.97 -72.9c0.21,-1.05 0.34,-2.37 0.39,-3.94 0.05,-1.57 0.18,-3.04 0.39,-4.41 -0.1,1.58 -0.15,3.12 -0.15,4.65l0 4.48 -2.21 72.12 20.79 0 0 -110.22 -29.29 0 -14.17 78.1c-0.21,0.94 -0.32,1.76 -0.32,2.44 0,0.68 -0.05,1.39 -0.15,2.12l-0.48 0.95 -0.47 -0.95c-0.1,-0.73 -0.16,-1.44 -0.16,-2.12 0,-0.68 -0.1,-1.5 -0.31,-2.44l-14.17 -78.1 -29.29 0 0 110.22z"/>
  <path id="4" class="fil4" d="M1183.65 370.72l24.41 0 0 -37.79 21.26 -72.43 -23.46 0 -8.98 41.25c-0.42,1.58 -0.68,3.41 -0.79,5.51 -0.1,2.1 -0.15,4.2 -0.15,6.3 -0.21,-2.31 -0.34,-4.43 -0.4,-6.37 -0.05,-1.95 -0.29,-3.76 -0.71,-5.44l-9.29 -41.25 -23.62 0 21.73 72.43 0 37.79z"/>
  <polygon id="5" class="fil4" points="1230.58,293.72 1246.95,293.72 1258.92,260.5 1235.93,260.5 "/>
  <path id="6" class="fil4" d="M1310.72 340.49c0,-5.99 -0.65,-10.97 -1.96,-14.96 -1.32,-3.99 -2.94,-7.35 -4.89,-10.08 -1.94,-2.73 -4.06,-5.04 -6.37,-6.93 -2.31,-1.89 -4.44,-3.75 -6.38,-5.59 -1.94,-1.83 -3.57,-3.83 -4.88,-5.98 -1.31,-2.15 -1.97,-4.91 -1.97,-8.27 0,-2.62 0.42,-4.72 1.26,-6.29 0.84,-1.58 1.91,-2.73 3.23,-3.47 1.31,-0.73 2.75,-1.21 4.33,-1.42 1.57,-0.21 3.04,-0.31 4.41,-0.31 2.41,0 4.56,0.24 6.45,0.71 1.89,0.47 3.31,0.86 4.25,1.18l1.42 -17.79c-0.73,-0.21 -1.78,-0.45 -3.15,-0.71 -1.36,-0.27 -2.91,-0.5 -4.64,-0.71 -1.74,-0.21 -3.55,-0.39 -5.44,-0.55 -1.89,-0.16 -3.72,-0.24 -5.51,-0.24 -9.76,0 -17,2.36 -21.73,7.09 -4.72,4.72 -7.08,12.54 -7.08,23.46 0,6.09 0.65,11.07 1.97,14.96 1.31,3.88 2.94,7.11 4.88,9.68 1.94,2.57 4.07,4.75 6.38,6.54 2.3,1.78 4.43,3.59 6.37,5.43 1.94,1.83 3.57,3.88 4.88,6.14 1.32,2.26 1.97,5.17 1.97,8.74 0,2.62 -0.34,4.75 -1.02,6.38 -0.68,1.62 -1.63,2.91 -2.84,3.85 -1.2,0.95 -2.65,1.58 -4.33,1.89 -1.68,0.32 -3.46,0.47 -5.35,0.47 -1.47,0 -3.6,-0.18 -6.38,-0.55 -2.78,-0.36 -5.17,-0.81 -7.16,-1.34l-1.26 17.96c1.05,0.42 2.54,0.78 4.49,1.1 1.94,0.31 4.01,0.57 6.22,0.78 2.2,0.21 4.41,0.37 6.61,0.48 2.2,0.1 4.04,0.15 5.51,0.15 3.36,0 6.69,-0.42 10,-1.25 3.3,-0.84 6.27,-2.42 8.9,-4.73 2.62,-2.31 4.75,-5.54 6.37,-9.68 1.63,-4.15 2.44,-9.53 2.44,-16.14z"/>
  <path id="7" class="fil4" d="M926.13 452.16c0,-7.14 0.31,-13.05 0.94,-17.72 0.63,-4.67 1.58,-8.39 2.84,-11.18 1.26,-2.78 2.86,-4.72 4.8,-5.82 1.94,-1.1 4.28,-1.66 7.01,-1.66 2.1,0 4.01,0.08 5.75,0.24 1.73,0.16 3.17,0.6 4.32,1.34l3.15 -20.16c-2.94,-1.15 -5.85,-1.99 -8.73,-2.52 -2.89,-0.52 -6.01,-0.78 -9.37,-0.78 -5.46,0 -10.34,0.84 -14.65,2.52 -4.3,1.68 -7.95,4.69 -10.94,9.05 -2.99,4.36 -5.28,10.29 -6.85,17.79 -1.57,7.51 -2.36,17.04 -2.36,28.58 0,10.81 0.71,19.79 2.12,26.93 1.42,7.14 3.55,12.8 6.38,17 2.83,4.2 6.4,7.17 10.71,8.9 4.3,1.73 9.34,2.6 15.11,2.6 3.15,0 6.25,-0.24 9.29,-0.71 3.05,-0.47 5.93,-1.29 8.66,-2.44l-1.57 -20.94c-1.79,0.73 -3.73,1.26 -5.83,1.57 -2.1,0.32 -4.2,0.47 -6.29,0.47 -2.42,0 -4.52,-0.36 -6.3,-1.1 -1.79,-0.73 -3.28,-2.26 -4.49,-4.56 -1.21,-2.31 -2.13,-5.65 -2.76,-10 -0.63,-4.36 -0.94,-10.16 -0.94,-17.4z"/>
  <path id="8" class="fil4" d="M1027.38 505.69l-25.04 -110.22 -22.04 0 -24.88 110.22 22.36 0 3.93 -21.1 19.21 0 3.94 21.1 22.52 0zm-42.36 -39.05l5.67 -29.91c0.1,-0.42 0.18,-1.13 0.23,-2.13l0.16 -2.99c0.05,-1 0.11,-1.86 0.16,-2.6l0.08 -1.1c0,1.78 0.05,3.49 0.15,5.12 0.11,1.62 0.27,2.86 0.48,3.7l5.51 29.91 -12.44 0z"/>
  <path id="9" class="fil4" d="M1078.71 475.46c0,-5.98 -0.66,-10.97 -1.97,-14.96 -1.31,-3.99 -2.94,-7.34 -4.88,-10.08 -1.94,-2.72 -4.07,-5.03 -6.38,-6.92 -2.31,-1.89 -4.43,-3.76 -6.38,-5.59 -1.94,-1.84 -3.57,-3.83 -4.88,-5.99 -1.31,-2.15 -1.97,-4.9 -1.97,-8.26 0,-2.63 0.42,-4.73 1.26,-6.3 0.84,-1.58 1.92,-2.73 3.23,-3.47 1.31,-0.73 2.76,-1.2 4.33,-1.41 1.58,-0.21 3.05,-0.32 4.41,-0.32 2.42,0 4.57,0.24 6.46,0.71 1.89,0.47 3.3,0.87 4.25,1.18l1.41 -17.79c-0.73,-0.21 -1.78,-0.45 -3.14,-0.71 -1.37,-0.26 -2.92,-0.5 -4.65,-0.71 -1.73,-0.21 -3.54,-0.39 -5.43,-0.55 -1.89,-0.16 -3.73,-0.23 -5.51,-0.23 -9.77,0 -17.01,2.36 -21.73,7.08 -4.73,4.72 -7.09,12.55 -7.09,23.46 0,6.09 0.66,11.08 1.97,14.96 1.31,3.88 2.94,7.11 4.88,9.68 1.94,2.58 4.07,4.75 6.38,6.54 2.31,1.78 4.43,3.59 6.38,5.43 1.94,1.84 3.57,3.89 4.88,6.14 1.31,2.26 1.96,5.17 1.96,8.74 0,2.63 -0.34,4.75 -1.02,6.38 -0.68,1.62 -1.63,2.91 -2.83,3.86 -1.21,0.94 -2.65,1.57 -4.33,1.89 -1.68,0.31 -3.47,0.47 -5.36,0.47 -1.47,0 -3.59,-0.19 -6.37,-0.55 -2.79,-0.37 -5.17,-0.82 -7.17,-1.34l-1.26 17.95c1.05,0.42 2.55,0.79 4.49,1.1 1.94,0.32 4.02,0.58 6.22,0.79 2.2,0.21 4.41,0.37 6.61,0.47 2.21,0.11 4.04,0.16 5.51,0.16 3.36,0 6.7,-0.42 10,-1.26 3.31,-0.84 6.27,-2.42 8.9,-4.73 2.62,-2.31 4.75,-5.53 6.38,-9.68 1.62,-4.15 2.44,-9.53 2.44,-16.14z"/>
  <polygon id="10" class="fil4" points="1085.16,505.69 1108.31,505.69 1108.31,395.47 1085.16,395.47 "/>
  <path id="11" class="fil4" d="M1139.8 505.69l0 -40.94c0,-3.46 -0.21,-7.21 -0.63,-11.25 -0.42,-4.05 -0.73,-7.96 -0.94,-11.74 0.31,3.15 0.71,6.33 1.18,9.53 0.47,3.2 0.92,5.38 1.34,6.54l15.11 47.86 21.89 0 0 -110.22 -21.89 0 0 60.31c-0.1,-2.31 -0.21,-4.49 -0.31,-6.54 -0.11,-2.04 -0.27,-3.49 -0.47,-4.33l-15.28 -49.44 -22.04 0 0 110.22 22.04 0z"/>
  <path id="12" class="fil4" d="M1184.99 450.58c0,9.87 0.58,18.37 1.73,25.51 1.16,7.14 3.02,13.02 5.59,17.64 2.58,4.62 5.96,8.03 10.16,10.23 4.2,2.21 9.34,3.31 15.43,3.31 5.98,0 11.05,-1.1 15.19,-3.31 4.15,-2.2 7.51,-5.61 10.08,-10.23 2.57,-4.62 4.44,-10.5 5.59,-17.64 1.16,-7.14 1.73,-15.64 1.73,-25.51 0,-9.87 -0.57,-18.37 -1.73,-25.51 -1.15,-7.13 -3.02,-13.01 -5.59,-17.63 -2.57,-4.62 -5.93,-8.03 -10.08,-10.24 -4.14,-2.2 -9.21,-3.3 -15.19,-3.3 -6.09,0 -11.23,1.1 -15.43,3.3 -4.2,2.21 -7.58,5.62 -10.16,10.24 -2.57,4.62 -4.43,10.5 -5.59,17.63 -1.15,7.14 -1.73,15.64 -1.73,25.51zm24.25 0c0,-7.66 0.18,-13.85 0.55,-18.58 0.37,-4.72 0.92,-8.37 1.65,-10.94 0.74,-2.57 1.66,-4.28 2.76,-5.12 1.1,-0.84 2.34,-1.26 3.7,-1.26 1.36,0 2.55,0.42 3.54,1.26 1,0.84 1.84,2.55 2.52,5.12 0.69,2.57 1.21,6.22 1.58,10.94 0.36,4.73 0.55,10.92 0.55,18.58 0,7.77 -0.19,13.99 -0.55,18.66 -0.37,4.67 -0.89,8.29 -1.58,10.87 -0.68,2.57 -1.52,4.27 -2.52,5.11 -0.99,0.84 -2.18,1.26 -3.54,1.26 -1.36,0 -2.6,-0.42 -3.7,-1.26 -1.1,-0.84 -2.02,-2.52 -2.76,-5.04 -0.73,-2.51 -1.28,-6.14 -1.65,-10.86 -0.37,-4.72 -0.55,-10.97 -0.55,-18.74z"/>
  <path class="fil4" d="M930.19 627.34l37.96 0c0.94,0 1.65,-0.22 2.14,-0.64 0.48,-0.42 0.88,-1.17 1.18,-2.26l1.49 0 0 16.99 -1.49 0c-0.3,-1.09 -0.7,-1.83 -1.18,-2.25 -0.49,-0.42 -1.2,-0.64 -2.14,-0.64l-48.32 0c-1.56,0 -2.6,0.19 -3.15,0.54 -0.54,0.38 -0.94,1.15 -1.22,2.38l-1.5 0c-0.03,-1.52 -0.04,-2.5 -0.04,-2.92 0,-3.91 0.43,-7.11 1.32,-9.63 1.79,-5.12 5.12,-9.46 10,-13.03 2.52,-1.82 6.63,-4.04 12.33,-6.66l7.68 -3.51c3.6,-1.68 6.19,-3.41 7.78,-5.2 1.59,-1.77 2.38,-3.89 2.38,-6.31 0,-2.77 -0.95,-4.89 -2.85,-6.34 -1.88,-1.45 -4.63,-2.16 -8.24,-2.16 -4.39,0 -8.48,1.07 -12.26,3.24 -3.68,2.07 -5.5,4.2 -5.5,6.39 0,0.51 0.24,1.46 0.72,2.86l-1 1.06 -12.13 -13.08 1.09 -1c1.15,0.54 2,0.81 2.55,0.81 0.48,0 0.92,-0.11 1.28,-0.31 0.35,-0.22 1.1,-0.83 2.22,-1.82 6.68,-5.81 14.92,-8.7 24.72,-8.7 7.05,0 12.67,1.73 16.9,5.2 4.28,3.53 6.41,8.23 6.41,14.11 0,5.77 -2.04,10.55 -6.13,14.33 -2.71,2.46 -6.32,4.71 -10.86,6.75l-7 3.16c-0.73,0.36 -2.38,1.06 -4.96,2.1 -3.15,1.28 -5.36,2.32 -6.63,3.13 -1.28,0.81 -2.46,1.94 -3.55,3.41z"/>
  <path id="1" class="fil4" d="M1037.09 575.15c8.19,0 14.97,2.66 20.39,7.98 6.08,6.01 9.11,14.24 9.11,24.71 0,3.28 -0.45,6.61 -1.36,9.99 -0.91,3.39 -2.17,6.32 -3.74,8.82 -2.77,4.37 -6.41,7.72 -10.94,9.99 -4.01,2.01 -8.48,3.02 -13.41,3.02 -8.17,0 -14.95,-2.68 -20.33,-8.03 -2.59,-2.6 -4.59,-5.52 -6.03,-8.78 -2.06,-4.8 -3.09,-9.95 -3.09,-15.48 0,-7.42 1.69,-13.83 5.1,-19.26 2.68,-4.28 6.33,-7.61 10.94,-9.94 3.84,-1.96 8.29,-2.96 13.36,-3.02zm0 10.55c-4.82,0 -8.68,2.15 -11.52,6.44 -2.65,3.98 -3.97,8.93 -3.97,14.84 0,5.92 1.32,10.86 3.97,14.85 2.84,4.29 6.72,6.44 11.57,6.44 4.89,0 8.75,-2.15 11.58,-6.44 2.64,-3.99 3.97,-8.84 3.97,-14.57 0,-6.19 -1.33,-11.23 -3.97,-15.12 -2.83,-4.23 -6.71,-6.38 -11.63,-6.44z"/>
  <path id="2" class="fil4" d="M1109.41 598.77l0 -16.53 1.5 0c0.34,1.14 0.65,1.87 0.96,2.21 0.3,0.33 0.76,0.5 1.4,0.5 0.31,0 0.73,-0.06 1.28,-0.18l3.92 -1.02 0 -2.69c0,-0.91 -0.22,-1.62 -0.64,-2.11 -0.42,-0.49 -1.17,-0.87 -2.26,-1.19l0 -1.49 18.95 0 0 1.49c-1.09,0.3 -1.83,0.69 -2.25,1.17 -0.42,0.47 -0.64,1.17 -0.64,2.12l0 52.67c0,0.94 0.22,1.66 0.64,2.14 0.42,0.48 1.16,0.87 2.25,1.18l0 1.5 -18.95 0 0 -1.5c1.09,-0.31 1.84,-0.7 2.26,-1.18 0.42,-0.48 0.64,-1.2 0.64,-2.14l0 -39.35 -4.28 1.04c-1.01,0.25 -1.73,0.59 -2.17,1.04 -0.45,0.45 -0.8,1.23 -1.11,2.32l-1.5 0z"/>
  <path id="3" class="fil4" d="M1179.32 634.96l8.02 -14.91 1.28 0.64c-0.19,0.75 -0.26,1.36 -0.26,1.78 0,1.21 0.96,2.42 2.91,3.64 1.61,1.01 3.7,1.83 6.25,2.49 2.55,0.65 4.98,0.98 7.3,0.98 5.07,0 9.41,-1.33 12.99,-3.97 2.35,-1.78 4.08,-3.88 5.23,-6.3 1.13,-2.43 1.83,-5.64 2.11,-9.59 -3.06,2.74 -6.17,4.72 -9.32,5.92 -3.14,1.19 -6.78,1.8 -10.9,1.8 -6.6,0 -12.25,-1.57 -16.95,-4.7 -2.67,-1.8 -4.77,-4.12 -6.28,-6.98 -1.47,-2.77 -2.2,-5.81 -2.2,-9.11 0,-6.56 2.73,-11.82 8.16,-15.74 5.29,-3.85 11.98,-5.76 20.07,-5.76 8.8,0 15.71,2.22 20.69,6.66 3.32,2.92 5.77,6.67 7.39,11.23 1.54,4.39 2.32,8.97 2.32,13.74 0,9.71 -2.99,17.57 -8.98,23.56 -6.21,6.21 -14.23,9.32 -24.11,9.32 -3.47,0 -6.59,-0.31 -9.36,-0.93 -2.76,-0.63 -6.02,-1.76 -9.75,-3.41 -1.28,-0.58 -2.27,-0.86 -2.97,-0.86 -0.52,0 -1.03,0.19 -1.54,0.59 -0.41,0.33 -0.69,0.56 -0.87,0.69l-1.23 -0.78zm28.03 -49.54c-4.65,0 -8.41,1.15 -11.32,3.44 -2.43,1.88 -3.64,4.35 -3.64,7.4 0,3.01 1.21,5.47 3.64,7.38 2.88,2.29 6.66,3.44 11.32,3.44 4.7,0 8.48,-1.15 11.36,-3.44 2.43,-1.91 3.64,-4.34 3.64,-7.28 0,-3.08 -1.21,-5.59 -3.64,-7.5 -2.81,-2.27 -6.61,-3.41 -11.36,-3.44z"/>
  <g id="_1829396666912">
   <path class="fil1" d="M1531.95 232.81l-48.55 0.17 0.92 249.23 48.55 -0.18 -0.23 -63.1c-0.13,-33.93 34.19,-35.36 34.09,-61.64 -0.1,-26.28 -34.42,-27.45 -34.53,-61.39l-0.23 -63.1 -0.02 0.01z"/>
   <rect class="fil6" x="1500.91" y="252.03" width="286.33" height="215.91" rx="19.35" ry="14.59"/>
   <path class="fil2" d="M1531.95 232.81l0.24 63.32c0.27,33.72 34.44,34.95 34.53,61.17 0.1,26.1 -33.75,27.7 -34.09,60.96l0.24 63.77 257.11 -0.4 -0.92 -249.22 -257.11 0.4z"/>
   <g>
    <path class="fil7" d="M1541.83 321.84c-7.97,4.04 -14.12,8.78 -18.73,14.12 7.2,-3.69 15.02,-6.76 24.24,-8.45 -1.91,-1.78 -3.77,-3.64 -5.51,-5.67l0 0z"/>
    <path class="fil8" d="M1525.33 422.77c3.15,0.17 5.55,-0.19 7.33,-1.13l-0.02 -2.71 0 -0.49c-1.78,1.76 -4.13,3.11 -7.31,4.33l0 0zm23.89 -87.71c7.19,1.92 12.62,7.42 15.62,14.78 0.79,1.95 1.42,4.03 1.85,6.21 0.01,0.42 0.03,0.82 0.03,1.25 0.03,6.61 -2.14,11.66 -5.37,16.03 2.05,-7.84 1.54,-15.54 -0.97,-21.68 -2.44,-5.98 -6.77,-10.43 -12.41,-11.95 -5.65,-1.52 -11.63,0.19 -16.72,4.15 -5.28,4.1 -9.62,10.61 -11.75,18.54 -2.12,7.93 -1.62,15.73 0.91,21.93 2.44,5.98 6.77,10.43 12.4,11.95 2.11,0.56 4.26,0.69 6.41,0.4 -1.06,1.55 -2.03,3.18 -2.88,4.95 -1.59,-0.06 -3.18,-0.29 -4.76,-0.71 -7.19,-1.92 -12.62,-7.42 -15.62,-14.78 -2.9,-7.13 -3.5,-16.02 -1.1,-24.99 2.39,-8.96 7.37,-16.36 13.45,-21.09 6.27,-4.87 13.73,-6.92 20.9,-4.99l0.01 0z"/>
    <path class="fil8" d="M1564.71 357.66c0.66,-0.45 1.33,-0.82 1.99,-1.12 0.02,0.26 0.02,0.5 0.02,0.76 0,1.09 -0.06,2.12 -0.17,3.13l-1.86 -2.77 0.02 0zm-46.84 5.03l-16.95 1.45 0 -3.64 19.47 -2.87 -2.52 5.06z"/>
    <path class="fil7" d="M1544.62 353.3c6.44,1.66 9.82,9.66 7.54,17.85 -2.28,8.19 -9.35,13.5 -15.79,11.82 -6.44,-1.66 -9.82,-9.67 -7.54,-17.85 2.28,-8.19 9.35,-13.5 15.79,-11.82zm-3.76 2.54c2.37,0.61 3.6,3.54 2.77,6.54 -0.83,2.99 -3.43,4.95 -5.78,4.33 -2.37,-0.6 -3.6,-3.54 -2.77,-6.54 0.83,-3 3.43,-4.95 5.78,-4.33z"/>
   </g>
   <path class="fil1" d="M1641.86 232.4l0.77 249.23 262.52 -1.16c16.56,-0.07 30.06,-16.28 30,-36.01l-0.56 -177.46c-0.06,-19.73 -13.65,-35.83 -30.21,-35.75l-262.52 1.15 0 0z"/>
  </g>
  <path class="fil4" d="M1383.6 844.14l8.29 14.28c0.37,0.64 0.74,1.07 1.11,1.32 0.38,0.26 0.82,0.35 1.35,0.31l0.6 1.03 -7.58 4.41 -0.6 -1.04c0.3,-0.47 0.43,-0.91 0.4,-1.34 -0.03,-0.43 -0.23,-0.96 -0.6,-1.6l-21.28 -36.65c-0.38,-0.66 -0.76,-1.1 -1.11,-1.35 -0.36,-0.24 -0.82,-0.35 -1.36,-0.31l-0.61 -1.04 15.18 -8.81c1.77,-1.02 3.3,-1.62 4.58,-1.8 1.29,-0.18 2.62,0.01 4.02,0.59 1.45,0.59 2.91,1.64 4.39,3.12 1.52,1.55 2.87,3.34 4.05,5.37 1.69,2.92 2.74,5.73 3.14,8.45 0.33,2.31 0.1,4.24 -0.69,5.76 -0.79,1.51 -2.31,2.93 -4.55,4.23l-8.73 5.07zm-4.15 -7.15l8.12 -4.71c1.61,-0.94 2.58,-1.9 2.87,-2.89 0.18,-0.65 0.15,-1.48 -0.11,-2.5 -0.25,-1.03 -0.68,-2.07 -1.3,-3.13 -0.6,-1.03 -1.28,-1.91 -2.04,-2.63 -0.77,-0.73 -1.47,-1.18 -2.12,-1.34 -1,-0.24 -2.31,0.12 -3.94,1.06l-8.11 4.71 6.63 11.43zm37.32 1.65l14.53 -9.31c0.36,-0.23 0.54,-0.55 0.54,-0.95 0,-0.4 -0.17,-1.01 -0.53,-1.82l0.57 -0.36 6.97 10.88 -0.57 0.36c-0.59,-0.67 -1.06,-1.07 -1.43,-1.24 -0.37,-0.17 -0.73,-0.14 -1.1,0.09l-20.81 13.33 -0.65 -1.01c0.28,-0.48 0.39,-0.92 0.34,-1.35 -0.05,-0.43 -0.27,-0.97 -0.69,-1.61l-22.82 -35.65c-0.42,-0.65 -0.81,-1.08 -1.18,-1.3 -0.37,-0.23 -0.83,-0.32 -1.37,-0.26l-0.65 -1.01 7.39 -4.73 0.65 1.01c-0.3,0.46 -0.42,0.9 -0.36,1.35 0.06,0.44 0.29,0.97 0.7,1.62l20.47 31.96zm33.96 -28.6l-10.42 7.22 2.46 6.9c0.35,0.96 0.67,1.67 0.99,2.13 0.62,0.9 1.43,1.25 2.42,1.06l0.69 0.99 -7.64 5.3 -0.69 -0.99c0.34,-0.48 0.49,-0.99 0.45,-1.56 -0.04,-0.57 -0.31,-1.53 -0.82,-2.91l-13.41 -37.49c-0.42,-1.2 -0.85,-2.09 -1.27,-2.7 -0.64,-0.92 -1.42,-1.36 -2.36,-1.3l-0.68 -0.99 8.19 -5.68 0.68 0.99c-0.43,0.8 -0.35,1.63 0.24,2.47 0.4,0.58 0.97,1.18 1.69,1.77l30.76 25.6c1.31,1.09 2.27,1.78 2.9,2.08 0.62,0.3 1.22,0.36 1.8,0.19l0.69 0.99 -8.53 5.91 -0.68 -0.99c0.59,-0.74 0.53,-1.61 -0.18,-2.64 -0.3,-0.44 -0.85,-0.98 -1.65,-1.65l-5.63 -4.7zm-5.34 -4.62l-13.78 -11.96 6.3 17.15 7.48 -5.19zm19.44 -17.47l11.04 13.07c0.48,0.57 0.93,0.95 1.33,1.13 0.41,0.17 0.87,0.19 1.4,0.07l0.77 0.92 -6.7 5.66 -0.77 -0.92c0.2,-0.5 0.26,-0.95 0.16,-1.38 -0.11,-0.43 -0.41,-0.93 -0.89,-1.51l-11.05 -13.07 -21.61 -11.51c-1.86,-0.99 -3.17,-1.59 -3.95,-1.82 -0.77,-0.23 -1.44,-0.19 -2.01,0.1l-0.77 -0.92 8.49 -7.17 0.78 0.91c-0.54,0.8 -0.4,1.68 0.4,2.63 0.28,0.33 1.12,0.89 2.52,1.66l12.54 7.01 -4.68 -13.66c-0.5,-1.46 -0.92,-2.39 -1.25,-2.78 -0.35,-0.42 -0.76,-0.71 -1.21,-0.86 -0.45,-0.15 -0.87,-0.13 -1.28,0.05l-0.77 -0.92 8.29 -7.01 0.78 0.92c-0.38,0.52 -0.53,1.17 -0.43,1.97 0.09,0.81 0.46,2.19 1.13,4.19l7.74 23.24zm38.82 -23.6l-9.32 8.59 3.39 6.5c0.47,0.9 0.89,1.55 1.27,1.97 0.74,0.8 1.59,1.04 2.55,0.72l0.81 0.88 -6.83 6.3 -0.82 -0.88c0.27,-0.52 0.35,-1.06 0.23,-1.61 -0.12,-0.55 -0.52,-1.48 -1.21,-2.77l-18.45 -35.28c-0.59,-1.13 -1.13,-1.96 -1.63,-2.5 -0.77,-0.83 -1.6,-1.15 -2.52,-0.97l-0.81 -0.88 7.33 -6.75 0.81 0.88c-0.32,0.86 -0.12,1.66 0.57,2.42 0.48,0.51 1.12,1.03 1.92,1.51l34 21.12c1.45,0.9 2.49,1.45 3.16,1.66 0.66,0.21 1.25,0.18 1.81,-0.06l0.82 0.88 -7.63 7.03 -0.82 -0.88c0.48,-0.82 0.31,-1.67 -0.54,-2.6 -0.36,-0.38 -0.98,-0.85 -1.86,-1.4l-6.23 -3.88zm-5.92 -3.83l-15.3 -9.96 8.6 16.13 6.7 -6.17zm3.28 -24.2l22.79 20.15c0.57,0.5 1.07,0.81 1.48,0.93 0.42,0.11 0.88,0.07 1.39,-0.14l0.9 0.8 -5.45 6.16 -0.9 -0.8c0.14,-0.53 0.13,-0.99 -0.04,-1.39 -0.16,-0.4 -0.53,-0.86 -1.1,-1.36l-31.74 -28.07c-0.55,-0.49 -1.04,-0.79 -1.46,-0.91 -0.41,-0.11 -0.88,-0.07 -1.38,0.14l-0.9 -0.8 6.31 -7.14 0.9 0.79c-0.19,0.62 0.04,1.21 0.69,1.78 0.44,0.39 1.04,0.67 1.83,0.86l31.81 7.36 -22.24 -19.67c-0.55,-0.49 -1.04,-0.79 -1.46,-0.91 -0.41,-0.11 -0.88,-0.08 -1.39,0.14l-0.9 -0.8 5.45 -6.16 0.9 0.8c-0.15,0.52 -0.13,0.99 0.04,1.39 0.16,0.4 0.52,0.85 1.07,1.33l31.74 28.07c0.58,0.51 1.07,0.82 1.49,0.93 0.42,0.12 0.88,0.07 1.39,-0.13l0.9 0.8 -5.86 6.62 -0.9 -0.8c0.21,-0.58 0.01,-1.14 -0.61,-1.69 -0.36,-0.32 -1.22,-0.63 -2.59,-0.94l-32.16 -7.34zm42.97 -2.61l-34.74 -24.21c-0.62,-0.43 -1.15,-0.68 -1.58,-0.75 -0.43,-0.07 -0.89,0.03 -1.36,0.29l-0.99 -0.68 8.97 -12.87c1.96,-2.82 4.04,-4.57 6.24,-5.29 3.17,-1.01 7.03,-0.69 11.59,0.94 3.59,1.28 7.4,3.33 11.43,6.13 7.08,4.94 11.63,9.93 13.65,14.97 0.84,2.11 1.13,4.09 0.84,5.94 -0.29,1.84 -1.17,3.82 -2.65,5.96l-8.97 12.86 -0.98 -0.69c0.07,-0.54 0.01,-1 -0.2,-1.38 -0.21,-0.38 -0.63,-0.79 -1.25,-1.22zm-0.08 -7.56l4.41 -6.33c1.41,-2.01 1.97,-3.87 1.69,-5.58 -0.58,-3.64 -3.92,-7.59 -10.03,-11.85 -4.41,-3.07 -8.21,-4.84 -11.36,-5.3 -1.77,-0.25 -3.25,-0.12 -4.44,0.43 -1.2,0.54 -2.33,1.58 -3.4,3.11l-4.41 6.33 27.54 19.19zm7.21 -62.97l22.46 19.26c1.12,1.01 1.85,1.61 2.21,1.8 0.98,0.52 1.93,0.45 2.81,-0.23l1.06 0.56 -4.24 7.97 -1.06 -0.56c0.16,-0.96 -0.36,-1.76 -1.55,-2.39 -0.32,-0.17 -1.37,-0.51 -3.15,-1.03l-36.37 -10.23c-1.81,-0.5 -3.07,-0.77 -3.79,-0.79 -0.73,-0.02 -1.33,0.2 -1.82,0.64l-1.06 -0.57 4.58 -8.6 1.06 0.57c-0.11,0.92 0.33,1.64 1.3,2.16 0.5,0.26 1.26,0.55 2.29,0.84l25.96 7.49 -20.65 -17.8c-0.88,-0.76 -1.49,-1.24 -1.81,-1.41 -1,-0.53 -1.86,-0.46 -2.56,0.21l-1.07 -0.57 4.8 -9.02 1.07 0.57c-0.05,1.02 0.43,1.81 1.44,2.35 0.35,0.19 1.05,0.42 2.11,0.72l26.02 7.38 -20.35 -17.1c-1,-0.86 -1.78,-1.45 -2.35,-1.75 -0.95,-0.5 -1.81,-0.4 -2.57,0.31l-1.06 -0.56 4.53 -8.52 1.06 0.56c-0.03,0.77 0.14,1.39 0.49,1.88 0.35,0.48 1.29,1.36 2.79,2.65l28.81 24.44c1.38,1.17 2.32,1.89 2.83,2.16 1.06,0.57 1.95,0.49 2.67,-0.24l1.06 0.57 -4.3 8.08 -1.06 -0.56c0.2,-0.98 -0.29,-1.79 -1.49,-2.43 -0.41,-0.21 -1.49,-0.54 -3.22,-0.98l-27.88 -7.83zm41.52 -16.9l-39.92 -14.19c-0.69,-0.25 -1.26,-0.35 -1.69,-0.3 -0.43,0.05 -0.85,0.26 -1.23,0.64l-1.14 -0.4 2.94 -8.26 1.13 0.4c0.05,0.54 0.22,0.96 0.55,1.27 0.31,0.32 0.81,0.6 1.5,0.85l39.93 14.19c0.72,0.26 1.29,0.36 1.74,0.31 0.45,-0.05 0.85,-0.27 1.22,-0.64l1.13 0.4 -2.94 8.27 -1.13 -0.41c-0.07,-0.54 -0.25,-0.97 -0.55,-1.28 -0.31,-0.3 -0.81,-0.59 -1.54,-0.85zm-23.38 -26.49l29.21 8.49c0.73,0.21 1.31,0.28 1.74,0.21 0.42,-0.08 0.82,-0.32 1.19,-0.72l1.16 0.34 -2.3 7.89 -1.15 -0.33c-0.1,-0.55 -0.31,-0.96 -0.63,-1.25 -0.32,-0.29 -0.85,-0.54 -1.58,-0.76l-40.69 -11.83c-0.71,-0.21 -1.27,-0.27 -1.7,-0.2 -0.43,0.08 -0.83,0.31 -1.2,0.72l-1.15 -0.34 2.66 -9.15 1.15 0.33c0.09,0.64 0.55,1.08 1.38,1.32 0.57,0.16 1.23,0.16 2.02,-0.01l31.91 -6.93 -28.51 -8.29c-0.71,-0.21 -1.27,-0.27 -1.7,-0.19 -0.43,0.07 -0.83,0.3 -1.2,0.71l-1.15 -0.34 2.29 -7.89 1.16 0.33c0.09,0.54 0.31,0.96 0.63,1.25 0.32,0.29 0.83,0.54 1.54,0.75l40.68 11.83c0.74,0.21 1.32,0.28 1.74,0.2 0.43,-0.07 0.82,-0.31 1.2,-0.71l1.16 0.34 -2.47 8.49 -1.16 -0.34c-0.05,-0.62 -0.48,-1.04 -1.27,-1.27 -0.47,-0.14 -1.38,-0.05 -2.74,0.25l-32.22 7.1z"/>
  <path class="fil4" d="M563.82 609.47l-16.31 2.55c-0.73,0.12 -1.27,0.3 -1.64,0.56 -0.38,0.26 -0.62,0.64 -0.77,1.14l-1.19 0.19 -1.35 -8.67 1.18 -0.18c0.33,0.44 0.69,0.73 1.1,0.86 0.42,0.13 0.98,0.14 1.72,0.02l41.86 -6.56c0.75,-0.12 1.31,-0.31 1.66,-0.55 0.35,-0.25 0.62,-0.63 0.78,-1.16l1.19 -0.18 2.72 17.33c0.31,2.02 0.32,3.67 0.02,4.93 -0.3,1.26 -0.96,2.44 -2.01,3.53 -1.07,1.13 -2.58,2.12 -4.5,2.96 -1.99,0.86 -4.15,1.47 -6.46,1.83 -3.34,0.52 -6.34,0.48 -9.02,-0.13 -2.28,-0.53 -3.99,-1.44 -5.12,-2.73 -1.13,-1.28 -1.9,-3.21 -2.3,-5.78l-1.56 -9.96zm8.16 -1.28l1.46 9.26c0.28,1.85 0.83,3.1 1.66,3.73 0.53,0.4 1.32,0.67 2.37,0.81 1.04,0.13 2.17,0.11 3.38,-0.09 1.17,-0.18 2.24,-0.5 3.19,-0.94 0.96,-0.45 1.63,-0.95 2.01,-1.5 0.59,-0.84 0.74,-2.19 0.45,-4.05l-1.46 -9.27 -13.06 2.05zm-13.37 33.43l5.11 16.49c0.13,0.41 0.39,0.66 0.78,0.77 0.38,0.11 1.01,0.11 1.89,-0.03l0.2 0.65 -12.34 3.82 -0.2 -0.64c0.8,-0.39 1.32,-0.74 1.58,-1.05 0.25,-0.31 0.32,-0.67 0.2,-1.08l-7.32 -23.61 1.15 -0.36c0.38,0.4 0.78,0.63 1.21,0.69 0.43,0.07 1.01,0 1.73,-0.23l40.44 -12.53c0.73,-0.23 1.25,-0.49 1.57,-0.79 0.31,-0.3 0.52,-0.71 0.61,-1.25l1.14 -0.36 2.6 8.38 -1.15 0.35c-0.36,-0.4 -0.75,-0.63 -1.2,-0.69 -0.44,-0.06 -1.02,0.01 -1.75,0.24l-36.25 11.23zm20.09 38.39l-5.25 -11.54 -7.23 1.19c-1,0.17 -1.76,0.36 -2.27,0.59 -0.99,0.45 -1.48,1.19 -1.48,2.2l-1.09 0.49 -3.85 -8.46 1.1 -0.5c0.41,0.42 0.89,0.66 1.45,0.72 0.57,0.06 1.57,-0.03 3.01,-0.28l39.29 -6.49c1.25,-0.21 2.21,-0.47 2.88,-0.77 1.02,-0.47 1.59,-1.16 1.7,-2.09l1.1 -0.5 4.12 9.08 -1.1 0.49c-0.71,-0.57 -1.54,-0.63 -2.47,-0.21 -0.64,0.29 -1.33,0.74 -2.04,1.35l-30.69 25.69c-1.31,1.09 -2.16,1.91 -2.56,2.48 -0.41,0.56 -0.57,1.14 -0.52,1.74l-1.09 0.5 -4.29 -9.45 1.09 -0.49c0.63,0.71 1.5,0.81 2.64,0.29 0.48,-0.22 1.11,-0.66 1.91,-1.32l5.64 -4.71zm5.49 -4.42l14.24 -11.43 -18 3.13 3.76 8.3zm13.62 21.16l-14.53 9.04c-0.64,0.39 -1.07,0.78 -1.31,1.15 -0.23,0.37 -0.32,0.83 -0.27,1.37l-1.02 0.63 -4.64 -7.44 1.03 -0.64c0.46,0.28 0.9,0.4 1.34,0.36 0.44,-0.04 0.98,-0.27 1.62,-0.66l14.53 -9.04 14.52 -19.73c1.24,-1.69 2.03,-2.9 2.36,-3.64 0.34,-0.73 0.4,-1.39 0.2,-2l1.02 -0.63 5.87 9.44 -1.02 0.63c-0.71,-0.64 -1.6,-0.63 -2.65,0.02 -0.38,0.23 -1.04,0.98 -2.01,2.25l-8.75 11.41 14.19 -2.67c1.52,-0.28 2.5,-0.55 2.93,-0.83 0.47,-0.29 0.82,-0.65 1.03,-1.07 0.21,-0.42 0.26,-0.84 0.14,-1.27l1.02 -0.64 5.73 9.22 -1.02 0.64c-0.45,-0.45 -1.08,-0.69 -1.88,-0.71 -0.82,-0.02 -2.24,0.14 -4.31,0.51l-24.12 4.3zm18.94 39.87l-7.88 -9.93 -6.73 2.9c-0.93,0.41 -1.62,0.78 -2.06,1.13 -0.85,0.68 -1.15,1.51 -0.9,2.49l-0.94 0.75 -5.78 -7.28 0.94 -0.75c0.49,0.3 1.02,0.42 1.58,0.35 0.56,-0.08 1.51,-0.42 2.85,-1.01l36.54 -15.82c1.17,-0.51 2.03,-0.99 2.61,-1.45 0.88,-0.7 1.26,-1.51 1.15,-2.44l0.94 -0.75 6.2 7.81 -0.94 0.74c-0.83,-0.38 -1.65,-0.24 -2.46,0.4 -0.55,0.44 -1.1,1.04 -1.65,1.81l-23.54 32.36c-1,1.38 -1.63,2.38 -1.89,3.02 -0.25,0.65 -0.27,1.24 -0.07,1.82l-0.94 0.75 -6.45 -8.12 0.94 -0.75c0.78,0.54 1.64,0.42 2.62,-0.36 0.42,-0.32 0.93,-0.91 1.54,-1.75l4.32 -5.92zm4.26 -5.63l11.05 -14.54 -16.71 7.41 5.66 7.13zm23.97 5.05l-21.71 21.3c-0.55,0.53 -0.89,1.01 -1.03,1.41 -0.15,0.41 -0.13,0.87 0.03,1.4l-0.86 0.84 -5.75 -5.87 0.85 -0.84c0.53,0.17 0.99,0.2 1.4,0.06 0.41,-0.14 0.89,-0.47 1.43,-1.01l30.25 -29.67c0.53,-0.52 0.86,-0.98 1,-1.39 0.15,-0.4 0.14,-0.87 -0.03,-1.39l0.86 -0.84 6.68 6.8 -0.86 0.85c-0.6,-0.24 -1.21,-0.05 -1.82,0.55 -0.42,0.41 -0.75,1 -0.99,1.77l-9.59 31.21 21.2 -20.79c0.52,-0.52 0.86,-0.99 1,-1.39 0.14,-0.41 0.14,-0.88 -0.03,-1.4l0.85 -0.84 5.76 5.87 -0.86 0.84c-0.51,-0.18 -0.98,-0.19 -1.39,-0.06 -0.41,0.14 -0.88,0.46 -1.41,0.98l-30.24 29.67c-0.55,0.54 -0.89,1.01 -1.03,1.42 -0.15,0.4 -0.14,0.87 0.03,1.39l-0.86 0.84 -6.19 -6.31 0.86 -0.84c0.56,0.25 1.14,0.09 1.73,-0.49 0.35,-0.34 0.72,-1.17 1.13,-2.51l9.59 -31.56zm0.16 42.97l27.43 -32.25c0.5,-0.58 0.8,-1.08 0.9,-1.5 0.11,-0.42 0.07,-0.88 -0.15,-1.38l0.77 -0.92 11.95 10.16c2.61,2.23 4.16,4.47 4.67,6.72 0.7,3.26 0.01,7.07 -2.06,11.45 -1.62,3.45 -4.02,7.05 -7.2,10.78 -5.6,6.58 -11,10.63 -16.2,12.15 -2.19,0.64 -4.19,0.73 -6,0.28 -1.8,-0.47 -3.7,-1.54 -5.68,-3.22l-11.94 -10.16 0.78 -0.92c0.54,0.13 1,0.11 1.39,-0.06 0.4,-0.17 0.85,-0.55 1.34,-1.13zm7.53 0.65l5.88 5c1.87,1.59 3.67,2.34 5.39,2.22 3.68,-0.23 7.93,-3.18 12.76,-8.85 3.48,-4.09 5.61,-7.7 6.37,-10.8 0.42,-1.73 0.43,-3.22 0,-4.45 -0.42,-1.25 -1.35,-2.48 -2.77,-3.69l-5.88 -5 -21.75 25.57zm62.26 13.91l-21.92 19.87c-1.15,0.98 -1.83,1.64 -2.06,1.96 -0.65,0.91 -0.7,1.86 -0.13,2.83l-0.69 0.98 -7.38 -5.21 0.69 -0.98c0.94,0.27 1.8,-0.14 2.57,-1.24 0.21,-0.29 0.68,-1.3 1.42,-3l14.71 -34.8c0.73,-1.72 1.15,-2.94 1.26,-3.66 0.11,-0.72 -0.03,-1.34 -0.4,-1.88l0.69 -0.98 7.96 5.62 -0.7 0.98c-0.9,-0.22 -1.67,0.12 -2.3,1.02 -0.32,0.46 -0.7,1.18 -1.12,2.17l-10.7 24.81 20.25 -18.25c0.87,-0.78 1.42,-1.33 1.63,-1.62 0.65,-0.92 0.69,-1.78 0.12,-2.57l0.69 -0.98 8.35 5.89 -0.69 0.98c-1.01,-0.17 -1.86,0.21 -2.52,1.14 -0.23,0.33 -0.55,0.99 -0.98,2l-10.59 24.89 19.53 -18.04c0.98,-0.89 1.65,-1.59 2.02,-2.11 0.62,-0.88 0.62,-1.75 0.02,-2.59l0.69 -0.99 7.88 5.57 -0.69 0.98c-0.76,-0.12 -1.4,-0.03 -1.92,0.26 -0.52,0.29 -1.52,1.1 -2.98,2.43l-27.87 25.51c-1.33,1.22 -2.17,2.07 -2.5,2.54 -0.69,0.98 -0.73,1.88 -0.1,2.67l-0.69 0.99 -7.48 -5.28 0.69 -0.99c0.94,0.33 1.81,-0.05 2.6,-1.17 0.26,-0.38 0.72,-1.4 1.38,-3.07l11.26 -26.68zm8.14 42.14l21.31 -36.63c0.37,-0.64 0.56,-1.18 0.6,-1.61 0.03,-0.43 -0.1,-0.88 -0.41,-1.33l0.61 -1.04 7.58 4.4 -0.61 1.04c-0.53,-0.05 -0.98,0.04 -1.35,0.3 -0.36,0.25 -0.73,0.69 -1.1,1.33l-21.3 36.63c-0.39,0.66 -0.59,1.21 -0.62,1.65 -0.04,0.46 0.1,0.89 0.4,1.32l-0.6 1.04 -7.59 -4.4 0.61 -1.04c0.55,0.03 1,-0.07 1.36,-0.32 0.36,-0.24 0.73,-0.68 1.11,-1.34zm31.07 -17.38l-14.28 26.86c-0.36,0.67 -0.55,1.23 -0.56,1.66 -0.02,0.43 0.14,0.86 0.45,1.32l-0.56 1.06 -7.26 -3.86 0.56 -1.06c0.55,0.01 1,-0.11 1.35,-0.36 0.35,-0.26 0.71,-0.72 1.07,-1.4l19.89 -37.41c0.35,-0.65 0.53,-1.19 0.54,-1.62 0.02,-0.43 -0.13,-0.88 -0.45,-1.32l0.56 -1.06 8.42 4.48 -0.56 1.06c-0.65,-0.05 -1.17,0.31 -1.57,1.07 -0.28,0.52 -0.41,1.18 -0.41,1.99l0.26 32.65 13.95 -26.22c0.34,-0.65 0.52,-1.19 0.54,-1.62 0.01,-0.44 -0.13,-0.88 -0.46,-1.32l0.57 -1.07 7.26 3.87 -0.57 1.06c-0.54,-0.02 -0.99,0.11 -1.34,0.36 -0.35,0.25 -0.7,0.7 -1.05,1.36l-19.9 37.41c-0.36,0.67 -0.54,1.22 -0.56,1.66 -0.01,0.43 0.14,0.86 0.46,1.32l-0.57 1.06 -7.8 -4.15 0.56 -1.07c0.62,0.08 1.12,-0.25 1.51,-0.98 0.22,-0.43 0.33,-1.34 0.31,-2.74l-0.36 -32.99z"/>
  <path class="fil4" d="M914.45 833.49l-17.79 98.15 16.88 3.06c2.47,0.44 5.02,0.54 7.65,0.3 2.64,-0.25 5.16,-1.26 7.57,-3.05 2.42,-1.78 4.61,-4.5 6.58,-8.15 1.97,-3.64 3.55,-8.69 4.71,-15.14 1.24,-6.83 1.5,-12.64 0.78,-17.46 -0.73,-4.81 -2.98,-8.29 -6.78,-10.42 2.74,-0.66 5.09,-2.58 7.05,-5.75 1.96,-3.17 3.42,-7.42 4.38,-12.74 1.44,-7.95 0.95,-13.95 -1.47,-18.01 -2.41,-4.06 -6.99,-6.7 -13.71,-7.92l-15.85 -2.87zm-0.53 85.63l5.46 -30.14 2.16 0.39c1.24,0.23 2.2,0.81 2.87,1.75 0.68,0.95 1.14,2.16 1.36,3.65 0.23,1.49 0.25,3.21 0.08,5.16 -0.18,1.94 -0.46,3.99 -0.85,6.14 -0.81,4.49 -1.92,7.96 -3.32,10.41 -1.4,2.45 -3.3,3.45 -5.7,3.02l-2.06 -0.38zm8.46 -46.68l3.81 -21.04 1.13 0.21c1.92,0.35 3.2,1.35 3.82,3.01 0.62,1.66 0.6,4.31 -0.06,7.95 -0.59,3.27 -1.49,5.86 -2.69,7.77 -1.19,1.91 -2.75,2.69 -4.67,2.34l-1.34 -0.24zm17.29 66.22l31.57 4.65 2.72 -18.47 -16.35 -2.41 11.81 -80.21 -15.21 -2.24 -14.54 98.68zm79.18 9.09l-8.52 -100.77 -14.6 -1.18 -24.53 98.08 14.8 1.2 4.15 -18.82 12.72 1.04 1.07 19.24 14.91 1.21zm-25.19 -37.5l5.94 -26.68c0.1,-0.37 0.2,-1.01 0.31,-1.9l0.32 -2.7c0.11,-0.89 0.21,-1.67 0.3,-2.33l0.13 -0.99c-0.13,1.61 -0.22,3.15 -0.27,4.62 -0.05,1.48 -0.04,2.6 0.04,3.37l1.46 27.28 -8.23 -0.67zm42.53 -9.61c0.31,-6.45 0.78,-11.78 1.4,-15.98 0.63,-4.2 1.42,-7.54 2.37,-10.01 0.96,-2.48 2.11,-4.18 3.45,-5.11 1.33,-0.94 2.91,-1.36 4.72,-1.27 1.39,0.07 2.66,0.2 3.8,0.4 1.15,0.19 2.08,0.64 2.82,1.35l2.97 -18.12c-1.9,-1.14 -3.79,-1.99 -5.69,-2.56 -1.89,-0.57 -3.95,-0.9 -6.18,-1.01 -3.62,-0.18 -6.9,0.42 -9.83,1.8 -2.93,1.38 -5.48,3.99 -7.66,7.83 -2.17,3.84 -3.95,9.13 -5.32,15.86 -1.38,6.74 -2.32,15.32 -2.83,25.76 -0.47,9.78 -0.39,17.91 0.23,24.41 0.63,6.5 1.79,11.69 3.49,15.57 1.7,3.89 3.93,6.69 6.71,8.39 2.78,1.71 6.09,2.65 9.92,2.84 2.09,0.1 4.16,-0.02 6.2,-0.34 2.04,-0.33 3.99,-0.98 5.85,-1.93l-0.12 -18.98c-1.22,0.61 -2.53,1.02 -3.94,1.23 -1.41,0.22 -2.81,0.3 -4.2,0.23 -1.6,-0.08 -2.98,-0.48 -4.13,-1.2 -1.15,-0.72 -2.08,-2.15 -2.78,-4.27 -0.7,-2.13 -1.16,-5.17 -1.39,-9.13 -0.22,-3.96 -0.18,-9.21 0.14,-15.76zm27.8 48.91l15.38 -0.25 -0.69 -42.88 7.07 42.78 16.42 -0.26 -9.7 -49.87 8.41 -49.87 -15.59 0.25 -6.83 43.86 -0.7 -43.74 -15.38 0.25 1.61 99.73zm64.1 -24.98l0 0 -3.69 -75.86 -15.36 0.75 3.68 75.71c0.15,3.04 -0.24,5.1 -1.17,6.2 -0.92,1.09 -1.98,1.66 -3.16,1.72 -1.05,0.05 -1.9,0.04 -2.57,-0.02 -0.66,-0.06 -1.39,-0.17 -2.16,-0.32l0.27 16.25c0.85,0.43 2.29,0.81 4.29,1.14 2.01,0.33 4.02,0.45 6.04,0.35 2.16,-0.1 4.14,-0.63 5.95,-1.57 1.8,-0.94 3.34,-2.42 4.6,-4.43 1.26,-2.01 2.18,-4.65 2.76,-7.91 0.57,-3.26 0.75,-7.27 0.52,-12.01zm51.56 19.76l-24.65 -98.08 -14.6 1.19 -8.41 100.75 14.81 -1.2 1.06 -19.24 12.72 -1.03 4.15 18.82 14.92 -1.21zm-30.91 -32.95l1.57 -27.29c0.03,-0.38 0.03,-1.03 0,-1.93l-0.12 -2.71c-0.04,-0.9 -0.07,-1.68 -0.09,-2.35l-0.02 -1c0.13,1.61 0.29,3.15 0.47,4.61 0.19,1.46 0.39,2.57 0.59,3.31l5.84 26.69 -8.24 0.67zm40.32 -17.62c-0.73,-6.41 -1.13,-11.75 -1.19,-16 -0.07,-4.24 0.18,-7.66 0.72,-10.26 0.55,-2.6 1.41,-4.46 2.58,-5.6 1.16,-1.14 2.65,-1.81 4.45,-2.01 1.39,-0.16 2.66,-0.24 3.82,-0.22 1.16,0.01 2.16,0.3 3,0.87l0.01 -18.36c-2.06,-0.81 -4.07,-1.35 -6.03,-1.6 -1.96,-0.26 -4.05,-0.26 -6.26,-0.01 -3.61,0.41 -6.74,1.54 -9.41,3.37 -2.67,1.83 -4.77,4.82 -6.3,8.97 -1.53,4.14 -2.43,9.64 -2.7,16.51 -0.27,6.87 0.19,15.49 1.37,25.87 1.11,9.72 2.5,17.74 4.16,24.05 1.67,6.31 3.65,11.25 5.96,14.81 2.3,3.57 4.96,5.96 7.98,7.2 3.01,1.23 6.43,1.63 10.24,1.2 2.08,-0.24 4.1,-0.69 6.06,-1.34 1.96,-0.65 3.78,-1.6 5.47,-2.85l-3.19 -18.71c-1.1,0.8 -2.33,1.41 -3.68,1.86 -1.36,0.44 -2.73,0.74 -4.11,0.89 -1.6,0.19 -3.02,0.01 -4.27,-0.51 -1.26,-0.53 -2.4,-1.79 -3.43,-3.77 -1.04,-1.99 -1.98,-4.91 -2.85,-8.78 -0.86,-3.87 -1.66,-9.06 -2.4,-15.58zm28.35 45.31l15.14 -2.75 -7.65 -42.2 13.92 41.07 16.17 -2.93 -17.67 -47.63 0.19 -50.58 -15.34 2.78 0.39 44.39 -7.8 -43.04 -15.14 2.74 17.79 98.15z"/>
 </g>
</svg>
