<?xml version="1.0" encoding="UTF-8"?>
<!DOCTYPE svg PUBLIC "-//W3C//DTD SVG 1.1//EN" "http://www.w3.org/Graphics/SVG/1.1/DTD/svg11.dtd">
<!-- Creator: CorelDRAW 2019 (64-Bit) -->
<svg xmlns="http://www.w3.org/2000/svg" xml:space="preserve" width="2480px" height="3508px" version="1.1" style="shape-rendering:geometricPrecision; text-rendering:geometricPrecision; image-rendering:optimizeQuality; fill-rule:evenodd; clip-rule:evenodd"
viewBox="0 0 2480 3507.43"
 xmlns:xlink="http://www.w3.org/1999/xlink"
 xmlns:xodm="http://www.corel.com/coreldraw/odm/2003">
 <defs>
  <style type="text/css">
   <![CDATA[
    .fil1 {fill:#5E875E;fill-rule:nonzero}
    .fil0 {fill:#E55B5F;fill-rule:nonzero}
   ]]>
  </style>
 </defs>
 <g id="Layer_x0020_1">
  <metadata id="CorelCorpID_0Corel-Layer"/>
  <path class="fil0" d="M1618.66 616.59c0,-112.78 -91.63,-204.42 -204.43,-204.42 -112.45,0 -204.09,90.97 -204.43,203.41 -0.34,-112.46 -91.63,-203.41 -204.43,-203.41 -112.79,0 -204.43,91.63 -204.43,204.42 0,302.45 406.85,534.4 408.86,535.42 0,0 408.86,-232.97 408.86,-535.42z"/>
  <polygon class="fil0" points="568.29,1324.55 842.45,1697.76 568.29,2071 293.83,1697.76 "/>
  <path class="fil1" d="M1146.03 2715.1c-89.07,0 -161.5,-72.43 -161.5,-161.5 0,-87.62 69.8,-158.89 156.55,-161.23 -7.3,-19.28 -11.1,-40.31 -11.1,-62.21 0,-97.84 79.44,-177.27 177.27,-177.27 98.14,0 177.28,79.44 177.28,177.27 0,21.9 -4.07,42.63 -11.1,62.21 87.04,2.63 156.84,73.9 156.84,161.23 0,89.07 -72.13,161.5 -161.51,161.5 -66.28,0 -123.23,-40.02 -148.06,-96.96 49.65,232.19 220.79,269.57 220.79,269.57l-468.48 -0.01c0,0 171.15,-37.38 220.8,-269.57 -24.82,56.95 -81.77,96.96 -148.07,96.96l0.29 0.01z"/>
  <path class="fil1" d="M2107.25 1923.64c86.86,0 157.47,-70.62 157.47,-157.48 0,-232.96 -313.26,-411.51 -314.97,-412.36 0,0 -314.97,179.4 -314.97,412.36 0,86.86 70.63,157.48 157.49,157.48 64.64,0 119.89,-38.73 144.38,-94.26 -48.7,226.11 -215.3,262.58 -215.3,262.58l456.81 -0.01c0,0 -166.6,-36.47 -215.29,-262.58 24.2,55.53 79.73,94.54 144.38,94.54l0 -0.27z"/>
 </g>
</svg>
