<svg xmlns="http://www.w3.org/2000/svg" width="2094" height="1487.167" viewBox="0 0 2094 1487.167"><defs><style>.a{fill:#5e995e;}.a,.b,.c,.f{fill-rule:evenodd;}.b,.d{fill:#9bcc9b;}.c{fill:#c5ebc5;}.e{fill:#fefefe;}.f,.g{fill:#5e875e;}</style></defs><g transform="translate(-29 -35)"><path class="a" d="M2027,789c0,377-441,682-985,682S56,1166,56,789V271c0-90,74-163,164-163H1864a163.029,163.029,0,0,1,163,163Z"/><path class="b" d="M533,35a62,62,0,0,1,0,124H254a102.238,102.238,0,0,0-72,30c-19,19-29,44-29,71V779c0,182,117,331,261,431,190,131,434,188,662,188s472-57,662-188c144-100,262-249,262-431V260c0-27-11-52-30-71a102.238,102.238,0,0,0-72-30H1619a62,62,0,1,1,0-124h279c124.264,0,225,100.736,225,225V779c0,224-136,409-315,532a1303,1303,0,0,1-732,211c-253,0-521-65-732-211C165,1188,29,1003,29,779V260C29,135.736,129.736,35,254,35H533Z"/><path class="c" d="M533,74H254A186,186,0,0,0,67,260V779c0,211,131,384,299,501,204,141,464,204,710,204s506-63,710-204c168-117,299-290,299-501V260A186,186,0,0,0,1898,74H1619a23,23,0,0,0,0,46h279a140,140,0,0,1,140,140V779c0,195-124,356-278,463a1217,1217,0,0,1-684,195c-236,0-487-60-684-195C238,1135,114,974,114,779V260A140,140,0,0,1,254,120H533a23,23,0,1,0,0-46Z"/><path class="b" d="M766,603H887v10H766Zm499,0h121v10H1265Z"/><path class="a" d="M1101,935h121a17.925,17.925,0,0,1,18,18v190c0,9-8,17-18,17H1101c-10,0-18-8-18-17V953A17.925,17.925,0,0,1,1101,935Z"/><path class="d" d="M607,930,499,819a10,10,0,0,0-14,0L312,988a10,10,0,0,0,0,14l107,111a10,10,0,0,0,14,0L607,944A10,10,0,0,0,607,930ZM508,810,616,921c5,4,7,10,7,16s-3,12-7,16L442,1122a23,23,0,0,1-32,0L302,1011a23,23,0,0,1,1-32L476,810c5-5,10-7,16-7S504,806,508,810ZM1546,922l107-111a10,10,0,0,1,14,0l174,169a10,10,0,0,1,0,14l-108,110a10,10,0,0,1-14,1L1546,936A10,10,0,0,1,1546,922Zm98-120L1536,913c-4,4-6,10-6,16s2,12,7,16l173,169c5,4,10,7,16,6,6,0,12-2,16-6l108-111c5-5,7-10,7-16s-3-12-7-16L1676,802c-4-5-10-7-16-7S1648,798,1644,802Zm-351,232,146-51a10,10,0,0,1,13,6h0l80,228a10,10,0,0,1-6,13l-145,51a10,10,0,0,1-13-6l-81-228a10,10,0,0,1,6-13Zm142-63-146,51c-6,2-10,7-13,12-2,5-3,12-1,17l81,228v1a25.03,25.03,0,0,0,12,13c5,2,11,3,17,1l146-52c6-2,10-7,13-12,2-5,3-11,1-17l-81-228a22.11,22.11,0,0,0-12-13C1447,969,1441,968,1435,971Zm-573,60L717,980a10,10,0,0,0-13,6l-81,228a10,10,0,0,0,6,12l146,52a10,10,0,0,0,12-6l81-228a10,10,0,0,0-6-13ZM721,967l146,52c6,2,10,6,13,12,2,5,3,11,1,17l-81,228a22.11,22.11,0,0,1-12,13c-5,3-12,3-18,1l-145-51a22.11,22.11,0,0,1-13-12c-3-5-3-12-1-18l81-228c2-6,6-10,12-13C709,966,715,965,721,967Zm434,79H1000a10,10,0,0,0-10,10l1,242a10,10,0,0,0,10,10l154-1a10,10,0,0,0,10-9l-1-242A10,10,0,0,0,1155,1046Zm-155-13h155c6,0,12,2,16,6s7,10,7,16v242c0,7-2,13-6,17a25.232,25.232,0,0,1-17,6l-154,1c-6,0-12-3-16-7s-7-10-7-16l-1-242c0-6,3-12,7-16S994,1033,1000,1033Z"/><path class="d" d="M501,581a189,189,0,0,0,3,21c8,42,27,81,52,116,32,44,72,80,108,107,58,42,123,73,190,93a761,761,0,0,0,444,0c67-20,132-51,190-93,36-27,76-63,108-107a295,295,0,0,0,55-137h-98a376,376,0,0,1-113,155c-51,37-108,64-167,82a686,686,0,0,1-394,0c-59-18-116-45-167-82A376,376,0,0,1,599,581Zm-17,8-2-17v-9H614l2,7c4,23,19,50,37,76,22,32,50,61,70,76,49,35,104,61,161,78a668,668,0,0,0,384,0c57-17,112-43,161-78,20-15,48-44,70-76,18-26,33-53,37-76l2-7h132v9a251.006,251.006,0,0,1-4,33c-9,45-29,87-55,123-33,46-74,84-113,112-59,43-126,75-195,96a779,779,0,0,1-454,0c-69-21-136-53-195-96-39-28-80-66-113-112a312,312,0,0,1-57-139Z"/><path class="b" d="M953,941c147,22,287,5,420-50l5,17a766,766,0,0,1-408,54Z"/><path class="d" d="M857,371h24V280h16V261H841v19h16Z"/><path class="d" d="M898,316l2,25a47.792,47.792,0,0,0,6,18,24.1,24.1,0,0,0,10,10q6,3,15,3t15-3c5-2,8-6,11-10l5-18a162,162,0,0,0,0-51l-5-18c-3-4-6-8-11-10q-6-3-15-3t-15,3a24.1,24.1,0,0,0-10,10,47.792,47.792,0,0,0-6,18Zm25,0a248.982,248.982,0,0,1,2-30c1-2,1-4,3-5l3-1,4,1,2,5,2,11a248,248,0,0,1-2,48,5.876,5.876,0,0,1-2,5l-4,2-3-2c-2-1-2-2-3-5l-2-11Z"/><path class="d" d="M971,371h21l-2-72-1-4,1-4v7l12,73h27l12-73v1l-2,72h21V261h-29l-15,78v4l-1,1v-5l-15-78H971Z"/><path class="d" d="M1069,371h21l-2-72v-4l1,3,12,73h26l12-73v-4l1-5v10l-3,72h21V261h-29l-14,78-1,2v3l-1-1v-4l-14-78h-30Z"/><path class="d" d="M1184,371h24V333l21-72h-23l-9,41-1,5-1-5-9-41h-24l22,72Z"/><path class="d" d="M1231,294h16l12-33h-23Z"/><path class="d" d="M1311,340l-2-14a38,38,0,0,0-11-17l-7-6-5-6-2-8,2-7,3-3,4-1a33,33,0,0,1,15,1l2-18a37,37,0,0,0-8-1q-5.481-.7-11-1c-10,0-17,2-22,7s-7,13-7,24l2,15a34,34,0,0,0,11,16l7,5,5,6,2,9-2,6a9,9,0,0,1-7,6l-5,1a52,52,0,0,1-14-2l-1,18,5,1a99,99,0,0,0,28,0c3-1,6-2,9-5a14.562,14.562,0,0,0,6-9A43.1,43.1,0,0,0,1311,340Z"/><path class="d" d="M926,452l1-18,3-11c1-3,3-4,5-6l7-1h5l5,1,3-20a48,48,0,0,0-33-1,31.259,31.259,0,0,0-11,9l-7,18-2,29,2,27c2,7,4,13,7,17,2,4,6,7,10,9l15,2h10l8-3-1-21-6,2h-6l-7-1-4-4-3-10Z"/><path class="d" d="M1027,506l-25-111H980L955,506h23l4-21h19l4,21Zm-42-39,6-30v-9a83.992,83.992,0,0,0,1,9l5,30Z"/><path class="d" d="M1079,475l-2-15a38,38,0,0,0-12-16l-6-6-5-6-2-8,2-7,3-3,4-2a34,34,0,0,1,11,1l4,1,2-18a38,38,0,0,0-8-1q-5.48-.7-11-1c-10,0-17,2-22,7s-7,13-7,24l2,15a34,34,0,0,0,11,16l7,5,5,6,1,9c1,3,0,5-1,6l-2,4-5,2-5,1a54,54,0,0,1-14-2l-1,18,5,1a92,92,0,0,0,28,0c3-1,6-2,9-5a14.562,14.562,0,0,0,6-9A43.1,43.1,0,0,0,1079,475Z"/><path class="d" d="M1085,506h23V395h-23Z"/><path class="d" d="M1140,506V465l-1-11q1.018,1.991,2,4l15,48h22V395h-22v54l-1-4-15-50h-22V506Z"/><path class="d" d="M1185,451l2,25,5,18c3,4,6,8,10,10a41.456,41.456,0,0,0,16,3q9,0,15-3a24.1,24.1,0,0,0,10-10,47.792,47.792,0,0,0,6-18,162,162,0,0,0,0-51,47.792,47.792,0,0,0-6-18,24.1,24.1,0,0,0-10-10q-6-3-15-3a41.456,41.456,0,0,0-16,3c-4,2-7,6-10,10l-5,18Zm24,0a249.021,249.021,0,0,1,2-30l3-5,4-1,3,1,3,5,2,11a254,254,0,0,1-2,48l-3,5-3,1-4-1-3-5-1-11Z"/><path class="d" d="M930,627h40l1-3h2v17h-2l-1-2H917l-2,2h-1v-2l1-10c2-5,5-10,10-13l13-7,7-3,8-5c2-2,2-4,2-7l-2-6c-2-2-5-2-9-2l-12,3c-4,2-5,4-5,6v3l-1,1-12-13,1-1,3,1h1l2-2c7-6,15-9,25-9,7,0,13,2,17,5a19.743,19.743,0,0,1,6,14,20.352,20.352,0,0,1-6,15l-11,7-7,3-5,2-6,3Z"/><path class="d" d="M1037,575a27.921,27.921,0,0,1,20,8c7,6,10,14,10,25a38,38,0,0,1-6,19c-2,4-6,7-10,10a31.94,31.94,0,0,1-14,3,28,28,0,0,1-26-17,41.456,41.456,0,0,1-3-16c0-7,1-13,5-19,2-4,6-7,11-10A27.681,27.681,0,0,1,1037,575Zm0,11c-5,0-9,2-11,6-3,4-4,9-4,15s1,11,4,15c2,4,6,6,11,6a14.255,14.255,0,0,0,12-6,30.125,30.125,0,0,0,0-30A14.255,14.255,0,0,0,1037,586Z"/><path class="d" d="M1109,599V582h2l1,2,1,1h2l3-1v-5l-2-1v-2h19v2l-3,1v57l3,1v2h-19v-2l2-1V594l-4,1-2,1-1,3Z"/><path class="d" d="M1179,635l8-15,2,1-1,1c0,2,1,3,3,4l7,3,7,1c5,0,9-2,13-4l5-7,2-9-9,6-11,1c-7,0-12-1-17-4a19,19,0,0,1-9-16c0-7,3-12,9-16,5-4,12-6,20-6,9,0,15,2,20,7,4,3,6,6,8,11l2,14c0,9-3,17-9,23-6,7-14,10-24,10a43,43,0,0,1-19-5l-3-1-2,1v1Zm28-50c-4,0-8,2-11,4-2,2-4,4-4,7s2,6,4,8a20.158,20.158,0,0,0,11,3q7.5,0,12-3a11.355,11.355,0,0,0,3-8,9.078,9.078,0,0,0-3-7A21.443,21.443,0,0,0,1207,585Z"/><path class="b" d="M1532,233h-49l1,249h49V419c0-34,34-35,34-62,0-26-35-27-35-61Z"/><rect class="e" width="286" height="216" rx="19" transform="translate(1501 252)"/><path class="c" d="M1532,233v63c0,34,35,35,35,61s-34,28-34,61v64h257l-1-250Z"/><path class="f" d="M1542,322a72.081,72.081,0,0,0-19,14,61.934,61.934,0,0,1,24-8Z"/><path class="g" d="M1525,423l8-1v-4C1531,420,1529,422,1525,423Zm24-88a23.842,23.842,0,0,1,16,15l2,6v1c0,7-2,12-6,16,2-8,2-15-1-21-2-6-6-11-12-12-6-2-12,0-17,4s-9,10-12,18a40.18,40.18,0,0,0,1,22c3,6,7,11,13,12l6,1-3,5-4-1c-8-2-13-8-16-15a35.4,35.4,0,0,1-1-25,37.9,37.9,0,0,1,13-21C1535,335,1542,333,1549,335Z"/><path class="g" d="M1565,358l2-1v3Zm-47,5-17,1v-4l19-2Z"/><path class="f" d="M1545,353c6,2,9,10,7,18s-9,14-16,12c-6-2-9-10-7-18S1538,352,1545,353Zm-4,3c2,0,3,3,3,6-1,3-4,5-6,5-3-1-4-4-3-7S1539,355,1541,356Z"/><path class="b" d="M1642,232l1,250,262-2c17,0,30-16,30-36V267c0-20-14-36-31-36Z"/><path class="d" d="M1384,844l8,14,1,2h1l1,1-8,4v-3l-22-37-1-1-1-1-1-1,15-9,5-1h4l4,3a27,27,0,0,1,8,14l-1,6c-1,1-2,3-5,4Zm-5-7,9-5,2-3v-2l-1-3-2-3-2-1-4,1-8,5Zm38,2,14-10,1-1-1-1,1-1,7,11h-1l-1-1h-1l-21,14-1-1,1-2-1-1-23-36-1-1-1-1-1-1,7-4,1,1v3Zm34-29-11,7,3,7,1,2c0,1,1,2,2,1l1,1-8,6v-3l-1-3-13-37-2-3-2-1-1-1,9-6v1l1,2,1,2,31,26,3,2h2v1l-8,6-1-1v-3l-2-1Zm-6-5-13-12,6,18Zm20-17,11,13,1,1h2v1l-6,6-1-1v-2l-1-1-11-13-21-12-4-1h-2l-1-1,8-7,1,1v2l3,2,13,7-5-14-1-3h-3l-1-1,9-7v3l1,4Zm39-24-10,9,4,6,1,2,3,1v1l-6,6-1-1v-1l-1-3-19-35-1-3-3-1-1-1,8-6v1l1,2,2,1,34,22,3,1h2l1,1-8,7-1-1v-2l-2-2Zm-6-3-16-10,9,16Zm3-25,23,20,1,1h2l1,1-6,6-1-1v-1l-1-1-32-28-1-1h-2v-1l6-7,1,1v1l2,1,32,8-22-20-2-1h-1l-1-1,6-6v1l1,1,1,2,31,28,2,1h2l-6,7-1-1v-1l-3-1Zm43-2-35-25h-3l-1-1,9-13,7-5c3-1,7,0,11,1l12,6c7,5,11,10,13,15l1,6-3,6-9,13-1-1v-1Zm0-8,4-6c2-2,2-4,2-6-1-3-4-7-10-12-4-3-8-4-11-5l-5,1-3,3-5,6Zm7-63,23,19,2,2h3l1,1-5,8-1-1c1-1,0-2-1-2l-3-1-37-11h-6l4-9,1,1,2,2,2,1,26,7-21-18-2-1h-2l-1-1,5-9,1,1,1,2,2,1,26,8-20-18-3-1h-2l-1-1,4-8h1l1,2,3,3,29,24,2,3,3-1,1,1-4,8-1-1-2-2-3-1Zm42-17-40-14h-4l3-8h1v1l2,1,40,14,1,1,2-1,1,1-3,8-1-1-1-1Zm-24-26,29,8h5l-3,8h-1l-1-2h-1l-41-12h-4l3-9h1l1,2,2-1,32-6-28-9h-2l-1,1-1-1,2-7h1l1,1,1,1,41,12h2l1-1,1,1-2,8h-2l-1-2-3,1ZM564,609l-16,3-2,1-1,1h-1l-1-9h1l1,1h2l41-7h2l1-1,1-1,3,18v5l-2,3-5,3a27,27,0,0,1-15,2c-2-1-4-1-5-3l-3-6Zm8-1,1,9,2,4,2,1h4l3-1,2-2,1-4-2-9Zm-13,34,5,16,1,1h1l1,1-13,3,2-1v-1l-7-24h4l40-12,2-1v-2h1l3,8-1,1-1-1h-2Zm20,38-6-12-7,2h-2l-2,2-1,1-3-9h1l1,1,3-1,39-6,3-1,2-2h1l4,9h-3l-2,1-31,26-3,2v2l-1,1-5-10h4l2-1Zm5-4,14-12-18,3Zm14,21-15,9-1,1v1l-1,1-5-8h4l15-9,14-20,2-4,1-2h1l6,9-1,1h-3l-2,2-9,11,14-2,3-1,1-1v-2h1l6,9-1,1-2-1h-4Zm19,40-8-10-7,3-2,1-1,2-1,1-6-7,1-1h2l3-1,36-16,3-1,1-2,1-1,6,8h-1l-2,1-2,2-23,32-2,3v2l-1,1-7-9h1l3-1,1-1Zm4-6,11-15-17,8Zm24,5-22,21-1,2v1l-1,1-5-6,1-1h1l1-1,31-29,1-2v-2l7,7-1,1h-2l-1,2-9,31,21-21,1-1v-1l1-1,6,6-1,1-2-1-1,1-30,30-1,2v1l-1,1-6-7h1l1-1,1-2Zm0,43,28-32v-3l1-1,12,10c3,2,4,5,5,7,0,3,0,7-2,11l-8,11c-5,7-11,11-16,12l-6,1-5-4-12-10v-1h2Zm8,1,6,5,5,2c4,0,8-3,13-9l6-11v-4l-3-4-6-5Zm62,14-22,19-2,2v3l-1,1-7-5v-1l3-1,1-3,15-35,1-4v-2l1-1,8,6-1,1-2,1-1,2-11,25,20-18,2-2v-2l1-1,8,6-1,1c-1-1-2,0-2,1l-1,2-11,25,20-19,2-2v-3l8,5v1l-2,1-3,2-28,26-3,2v3l-1,1-7-6,1-1c1,1,2,0,2-1l2-3Zm8,42,21-37,1-2v-2l8,4-1,2h-1l-1,1-22,37v4l-8-5,1-1h1Zm31-18-14,27-1,2,1,1-1,1-7-4v-1h2l1-1,20-38v-4l9,5-1,1-1,1-1,2,1,32,14-26v-4l7,4v1h-1l-2,2-19,37-1,2v2l-8-4,1-1,1-1,1-3Zm160,15-17,99,17,3h7c3,0,5-1,8-3l6-8,5-15c1-7,2-13,1-18s-3-8-7-10c3-1,5-3,7-6a22.264,22.264,0,0,0,4-13c2-8,1-14-1-18s-7-6-14-8Zm0,86,5-30h3l2,2,2,4v5l-1,6-3,10q-3,4.5-6,3Zm8-47,4-21,1,1c2,0,4,1,4,3v8c-1,3-1,5-3,7-1,2-2,3-4,3Zm18,67,31,4,3-18-16-3,11-80-15-2Zm79,9-9-101-14-1-25,98,15,1,4-19,13,1,1,20Zm-25-38,6-26v-5l1-2v-1q-.661,3.978-1,8l2,27Zm42-9a168.029,168.029,0,0,1,4-26l3-5,5-2,4,1,3,1,3-18a25,25,0,0,0-12-4l-10,2-8,8a50.338,50.338,0,0,0-5,16,175,175,0,0,0,1,66l7,8c2,2,6,3,10,3l6-1,6-1-1-19-3,1h-5l-4-1-3-4-1-10Zm28,49,15-1V906l7,43h16l-10-50,9-50h-16l-7,44V850h-16Zm64-25-4-76h-15l4,76-1,6-4,2a19.007,19.007,0,0,1-4,0v16l4,1h6l6-1c2-1,4-2,5-5l3-7Zm52,19-25-98-15,1-8,101,15-1,1-19,13-1,4,19Zm-31-33,1-27v-8q.353,4.017,1,8l6,27Zm40-17a167,167,0,0,1,0-26l2-6,5-2h3l3,1V842a25,25,0,0,0-12-1c-3,0-7,1-9,3-3,2-5,5-7,9l-2,16a176,176,0,0,0,11,65c3,4,5,6,8,7,3,2,7,2,10,2l7-2,5-3-3-18-4,2h-8l-4-4-3-9Zm28,45,16-3-8-42,14,41,16-3-18-47,1-51-16,3,1,44-8-43-15,3Z"/></g></svg>