<?xml version="1.0" encoding="UTF-8"?>
<!DOCTYPE svg PUBLIC "-//W3C//DTD SVG 1.1//EN" "http://www.w3.org/Graphics/SVG/1.1/DTD/svg11.dtd">
<!-- Creator: CorelDRAW 2019 (64-Bit) -->
<svg xmlns="http://www.w3.org/2000/svg" xml:space="preserve" width="1920px" height="3508px" version="1.1" style="shape-rendering:geometricPrecision; text-rendering:geometricPrecision; image-rendering:optimizeQuality; fill-rule:evenodd; clip-rule:evenodd"
viewBox="0 0 1920 3507.88"
 xmlns:xlink="http://www.w3.org/1999/xlink"
 xmlns:xodm="http://www.corel.com/coreldraw/odm/2003">
 <defs>
  <style type="text/css">
   <![CDATA[
    .fil0 {fill:#5E995E}
    .fil1 {fill:#9BCC9B}
    .fil5 {fill:#9BCC9B}
    .fil2 {fill:#C5EBC5}
    .fil3 {fill:#9BCC9B;fill-rule:nonzero}
    .fil4 {fill:#9BCC9B;fill-rule:nonzero}
   ]]>
  </style>
 </defs>
 <g id="Layer_x0020_1">
  <metadata id="CorelCorpID_0Corel-Layer"/>
  <path class="fil0" d="M1851.89 1482.74c0,350.78 -411.13,635.16 -918.27,635.16 -507.16,0 -918.27,-284.38 -918.27,-635.16l0 -483.01c0,-83.69 68.48,-152.17 152.17,-152.17l1532.22 0c83.69,0 152.18,68.48 152.18,152.17l0 483.01 -0.03 0z"/>
  <path class="fil1" d="M459.88 779.99c31.87,0 57.72,25.85 57.72,57.72 0,31.88 -25.85,57.72 -57.72,57.72l-260.51 0c-25.13,0 -48.92,10.05 -66.65,27.79 -17.74,17.73 -27.79,41.54 -27.79,66.65l0 483c0,169.78 109.66,308.85 243.98,401.75 176.75,122.26 403.79,175.69 616.58,175.69 212.8,0 439.84,-53.43 616.59,-175.69 134.32,-92.9 243.98,-231.97 243.98,-401.75l-0.01 -483c0,-25.13 -10.05,-48.92 -27.78,-66.65 -17.74,-17.74 -41.54,-27.79 -66.65,-27.79l-260.51 0c-31.87,0 -57.72,-25.84 -57.72,-57.72 0,-31.87 25.85,-57.72 57.72,-57.72l260.51 0c55.8,0 108.86,22.18 148.28,61.61 39.43,39.43 61.61,92.47 61.61,148.28l0 483.01c0,209.09 -127.24,381.2 -293.94,496.51 -196.04,135.59 -445.8,196.37 -682.05,196.37 -236.25,0 -486.02,-60.78 -682.05,-196.37 -166.7,-115.31 -293.94,-287.42 -293.94,-496.51l0 -483.01c0,-55.79 22.18,-108.85 61.61,-148.28 39.43,-39.43 92.47,-61.61 148.28,-61.61l260.51 0 -0.05 0z"/>
  <path class="fil2" d="M459.88 816.03l-260.51 0c-46.23,0 -90.12,18.39 -122.8,51.06 -32.66,32.66 -51.05,76.56 -51.05,122.79l0 483.01c0,197.09 121.89,358.62 278.4,466.87 189.9,131.35 432.59,189.97 661.55,189.97 228.96,0 471.64,-58.62 661.54,-189.97 156.52,-108.25 278.41,-269.78 278.41,-466.87l-0.01 -483.01c0,-46.23 -18.37,-90.12 -51.05,-122.79 -32.66,-32.67 -76.57,-51.06 -122.79,-51.06l-260.51 0c-11.98,0 -21.68,9.71 -21.68,21.68 0,11.97 9.7,21.68 21.68,21.68l260.51 0c34.68,0 67.63,13.84 92.13,38.34 24.5,24.5 38.35,57.47 38.35,92.14l0 483c0,182.22 -115.33,331.65 -259.51,431.39 -182.84,126.48 -416.74,182.1 -637.09,182.1 -220.36,0 -454.24,-55.62 -637.08,-182.1 -144.2,-99.72 -259.51,-249.17 -259.51,-431.39l0 -483c0,-34.68 13.85,-67.64 38.35,-92.14 24.49,-24.5 57.46,-38.34 92.13,-38.34l260.51 0c11.97,0 21.68,-9.7 21.68,-21.68 0,-11.97 -9.71,-21.68 -21.68,-21.68l0.03 0z"/>
  <path class="fil1" d="M676.23 1308.91l112.87 0 0 10.07 -112.87 0 0 -10.07zm465.61 0l112.88 0 0 10.07 -112.88 0 0 -10.07z"/>
  <path class="fil0" d="M988.88 1618.99l112.73 0c9.07,0 16.47,7.42 16.47,16.47l0 176.71c0,9.06 -7.42,16.46 -16.47,16.46l-112.73 0c-9.06,0 -16.46,-7.41 -16.46,-16.46l0 -176.71c0,-9.06 7.41,-16.47 16.46,-16.47z"/>
  <path class="fil3" d="M528.24 1613.9l-100.32 -103.01 -0.01 0.02 -0.05 -0.07c-1.77,-1.81 -4.11,-2.73 -6.46,-2.77 -2.34,-0.02 -4.68,0.82 -6.48,2.54l0.01 0.02 -0.06 0.05 -161.57 157.35c-1.81,1.76 -2.73,4.1 -2.77,6.45 -0.03,2.36 0.83,4.73 2.6,6.55l100.31 103 0.01 -0.01 0.06 0.06c1.76,1.81 4.1,2.73 6.45,2.77 2.34,0.03 4.68,-0.82 6.48,-2.54l-0.01 -0.01 0.07 -0.06 161.57 -157.34c1.8,-1.76 2.72,-4.1 2.76,-6.46 0.03,-2.36 -0.83,-4.73 -2.59,-6.54zm-91.66 -111.56l100.39 103.07c4.1,4.21 6.11,9.7 6.02,15.18 -0.06,5.48 -2.21,10.93 -6.42,15.04l-161.5 157.29 0.01 0.01 -0.07 0.05c-4.21,4.11 -9.7,6.11 -15.18,6.03 -5.45,-0.06 -10.88,-2.2 -14.98,-6.37l-0.01 0.01 -0.06 -0.07 -100.38 -103.07c-4.11,-4.2 -6.11,-9.7 -6.03,-15.18 0.07,-5.48 2.22,-10.93 6.43,-15.03l161.5 -157.3 -0.01 -0.01 0.06 -0.05c4.21,-4.1 9.7,-6.11 15.19,-6.03 5.45,0.07 10.87,2.21 14.97,6.38l0.02 -0.02 0.05 0.07 0 0z"/>
  <path class="fil3" d="M1403.02 1606.31l100.32 -103 0.01 0.01 0.06 -0.07c1.76,-1.8 4.1,-2.72 6.45,-2.76 2.34,-0.03 4.68,0.81 6.48,2.54l-0.01 0.01 0.07 0.06 161.56 157.34c1.81,1.76 2.73,4.1 2.77,6.46 0.03,2.36 -0.83,4.73 -2.6,6.54l-100.31 103.01 -0.01 -0.02 -0.06 0.07c-1.76,1.8 -4.1,2.73 -6.45,2.77 -2.34,0.03 -4.68,-0.82 -6.48,-2.54l0.01 -0.01 -0.07 -0.06 -161.56 -157.35c-1.81,-1.76 -2.73,-4.1 -2.77,-6.45 -0.03,-2.37 0.83,-4.73 2.59,-6.55zm91.66 -111.55l-100.38 103.07c-4.11,4.21 -6.11,9.7 -6.03,15.18 0.06,5.48 2.22,10.93 6.42,15.03l161.51 157.3 -0.02 0.01 0.07 0.05c4.21,4.11 9.7,6.11 15.18,6.03 5.45,-0.07 10.88,-2.21 14.98,-6.38l0.02 0.02 0.05 -0.07 100.38 -103.07c4.11,-4.21 6.11,-9.7 6.03,-15.18 -0.07,-5.48 -2.22,-10.93 -6.43,-15.04l-161.5 -157.29 0.01 -0.01 -0.06 -0.06c-4.21,-4.1 -9.7,-6.1 -15.18,-6.02 -5.46,0.07 -10.88,2.21 -14.98,6.37l-0.02 -0.01 -0.05 0.07 0 0z"/>
  <path class="fil3" d="M1168.06 1711.3l135.51 -48.06 0.01 0.01 0.08 -0.03c2.37,-0.84 4.88,-0.64 7.01,0.37 2.11,1.01 3.83,2.8 4.69,5.14l-0.02 0.01 0.04 0.08 75.39 212.55c0.84,2.37 0.63,4.88 -0.37,7.01 -1.02,2.13 -2.84,3.88 -5.23,4.73l-135.51 48.05 0 -0.01 -0.08 0.03c-2.37,0.84 -4.88,0.64 -7.01,-0.37 -2.11,-1 -3.84,-2.8 -4.69,-5.14l0.02 0 -0.04 -0.08 -75.39 -212.55c-0.84,-2.38 -0.63,-4.89 0.37,-7.02 1.02,-2.13 2.84,-3.87 5.22,-4.72zm131.52 -59.57l-135.6 48.1c-5.54,1.96 -9.77,6 -12.11,10.95 -2.37,4.94 -2.85,10.79 -0.88,16.33l75.35 212.47 -0.02 0.01 0.04 0.08c1.96,5.54 6,9.76 10.95,12.11 4.93,2.35 10.74,2.83 16.26,0.9l0.01 0.02 0.07 -0.03 135.61 -48.09c5.54,-1.97 9.76,-6.01 12.11,-10.96 2.36,-4.94 2.84,-10.78 0.88,-16.33l-75.35 -212.47 0.01 -0.01 -0.03 -0.07c-1.96,-5.55 -6,-9.77 -10.96,-12.12 -4.92,-2.35 -10.73,-2.83 -16.25,-0.9l-0.01 -0.02 -0.08 0.03 0 0z"/>
  <path class="fil3" d="M766.23 1708.26l-135.51 -48.06 0 0.02 -0.08 -0.04c-2.38,-0.84 -4.89,-0.63 -7.01,0.38 -2.11,1.01 -3.84,2.79 -4.7,5.14l0.02 0 -0.04 0.08 -75.38 212.55c-0.84,2.38 -0.64,4.89 0.37,7.01 1.02,2.14 2.83,3.88 5.22,4.73l135.51 48.06 0 -0.02 0.08 0.04c2.38,0.84 4.89,0.64 7.01,-0.37 2.11,-1.01 3.84,-2.8 4.69,-5.14l-0.01 -0.01 0.03 -0.08 75.39 -212.55c0.84,-2.38 0.64,-4.88 -0.37,-7.01 -1.02,-2.14 -2.83,-3.88 -5.22,-4.73zm-131.52 -59.56l135.6 48.09c5.54,1.97 9.77,6 12.12,10.96 2.36,4.94 2.84,10.78 0.88,16.32l-75.36 212.48 0.02 0 -0.04 0.08c-1.96,5.54 -6,9.77 -10.95,12.12 -4.92,2.35 -10.74,2.83 -16.26,0.9l0 0.02 -0.08 -0.03 -135.6 -48.1c-5.54,-1.96 -9.77,-6 -12.12,-10.95 -2.36,-4.95 -2.84,-10.79 -0.88,-16.33l75.36 -212.48 -0.02 0 0.04 -0.08c1.96,-5.54 6,-9.77 10.95,-12.11 4.92,-2.35 10.73,-2.83 16.26,-0.91l0 -0.01 0.08 0.03 0 0z"/>
  <path class="fil3" d="M1038.66 1721.71l-143.78 0.41 0 0.02 -0.09 -0.01c-2.52,0.01 -4.81,1.05 -6.47,2.71 -1.65,1.67 -2.68,3.93 -2.69,6.43l0.02 0 -0.01 0.08 0.64 225.53c0.01,2.52 1.05,4.81 2.72,6.47 1.67,1.67 3.97,2.7 6.5,2.69l143.79 -0.41 -0.01 -0.02 0.09 0.01c2.52,-0.01 4.81,-1.05 6.48,-2.71 1.64,-1.66 2.67,-3.93 2.68,-6.43l-0.02 0.01 0.01 -0.09 -0.64 -225.53c-0.01,-2.52 -1.05,-4.81 -2.72,-6.47 -1.68,-1.67 -3.97,-2.7 -6.5,-2.69zm-143.9 -11.76l143.87 -0.42c5.88,-0.02 11.22,2.36 15.1,6.23 3.89,3.86 6.31,9.2 6.33,15.08l0.65 225.44 0.02 0 -0.01 0.09c0.02,5.87 -2.36,11.21 -6.23,15.09 -3.84,3.87 -9.15,6.29 -15,6.33l0 0.02 -0.08 -0.01 -143.88 0.42c-5.88,0.02 -11.22,-2.36 -15.1,-6.23 -3.89,-3.86 -6.31,-9.2 -6.33,-15.08l-0.65 -225.44 -0.02 0 0.01 -0.09c-0.02,-5.87 2.36,-11.21 6.23,-15.09 3.84,-3.87 9.15,-6.28 15,-6.33l0 -0.02 0.09 0.01 0 0z"/>
  <path class="fil4" d="M429.8 1288.77c0.17,1.74 0.35,3.49 0.57,5.26 0.57,4.85 1.29,9.54 2.15,14.1 7.4,39.3 25.43,75.71 48.55,107.97 29.27,40.84 66.55,74.95 100.84,99.96 53.93,39.33 114.14,67.94 176.55,87.11 68.09,20.92 138.86,30.54 207.02,30.54 68.17,0 138.93,-9.64 207.02,-30.54 62.41,-19.17 122.62,-47.78 176.55,-87.11 34.29,-25.01 71.58,-59.12 100.84,-99.96 23.11,-32.26 41.15,-68.67 48.55,-107.97 0.86,-4.55 1.58,-9.25 2.15,-14.09 0.22,-1.78 0.41,-3.53 0.57,-5.27l-91.61 0c-5.78,22.28 -19.38,47.14 -35.71,70.25 -22.21,31.45 -49.78,60.06 -69.43,74.4 -47.24,34.46 -100.33,59.33 -155.27,75.93 -60.69,18.33 -123.7,26.63 -183.66,26.63 -59.94,0 -122.97,-8.3 -183.66,-26.63 -54.94,-16.6 -108.03,-41.49 -155.27,-75.93 -19.66,-14.34 -47.22,-42.95 -69.43,-74.4 -16.33,-23.12 -29.93,-47.98 -35.71,-70.25l-91.61 0zm-16.25 7.25c-0.59,-4.92 -1.01,-10.03 -1.27,-15.33l-0.44 -8.88 123.35 0 1.29 6.93c4.02,21.33 17.66,46.73 34.48,70.55 21.23,30.04 47.21,57.14 65.53,70.5 45.51,33.19 96.9,57.23 150.23,73.35 59.02,17.84 120.38,25.91 178.76,25.91 58.39,0 119.73,-8.07 178.75,-25.91 53.34,-16.12 104.73,-40.16 150.24,-73.35 18.32,-13.36 44.3,-40.46 65.52,-70.5 16.83,-23.82 30.46,-49.22 34.49,-70.55l1.29 -6.93 123.33 0 -0.44 8.88c-0.26,5.29 -0.69,10.41 -1.27,15.33 -0.58,4.97 -1.37,10.05 -2.35,15.22 -7.91,42.02 -27,80.67 -51.4,114.74 -30.34,42.35 -69.04,77.74 -104.69,103.73 -55.55,40.53 -117.43,69.96 -181.52,89.64 -69.87,21.45 -142.32,31.34 -211.99,31.34 -69.67,0 -142.12,-9.87 -211.99,-31.34 -64.07,-19.67 -125.97,-49.11 -181.52,-89.64 -35.63,-25.98 -74.34,-61.38 -104.69,-103.73 -24.41,-34.07 -43.49,-72.71 -51.4,-114.74 -0.98,-5.17 -1.77,-10.25 -2.35,-15.22l0.06 0z"/>
  <path class="fil5" d="M850.79 1624.58c137.43,20.03 267.91,4.67 391.04,-47.14l5.13 15.79c-120.66,50.94 -247.83,68.4 -380.29,50.25l-15.88 -18.9z"/>
  <polygon class="fil4" points="761.45,1092.76 784.05,1092.76 784.05,1008.25 798.72,1008.25 798.72,990.06 746.78,990.06 746.78,1008.25 761.45,1008.25 "/>
  <path id="1" class="fil4" d="M799.89 1041.41c0,9.19 0.54,17.12 1.62,23.77 1.07,6.65 2.81,12.13 5.21,16.43 2.39,4.31 5.55,7.48 9.46,9.54 3.91,2.05 8.71,3.08 14.38,3.08 5.57,0 10.29,-1.03 14.16,-3.08 3.86,-2.06 6.99,-5.23 9.39,-9.54 2.39,-4.3 4.13,-9.78 5.21,-16.43 1.07,-6.65 1.61,-14.58 1.61,-23.77 0,-9.19 -0.54,-17.12 -1.61,-23.77 -1.08,-6.65 -2.82,-12.13 -5.21,-16.43 -2.4,-4.31 -5.53,-7.49 -9.39,-9.54 -3.87,-2.06 -8.59,-3.08 -14.16,-3.08 -5.67,0 -10.47,1.02 -14.38,3.08 -3.91,2.05 -7.07,5.23 -9.46,9.54 -2.4,4.3 -4.14,9.78 -5.21,16.43 -1.08,6.65 -1.62,14.58 -1.62,23.77zm22.6 0c0,-7.14 0.17,-12.91 0.51,-17.31 0.34,-4.41 0.86,-7.81 1.54,-10.2 0.69,-2.4 1.54,-3.99 2.57,-4.77 1.03,-0.78 2.18,-1.17 3.45,-1.17 1.27,0 2.37,0.39 3.3,1.17 0.93,0.78 1.71,2.37 2.35,4.77 0.63,2.39 1.12,5.79 1.46,10.2 0.35,4.4 0.52,10.17 0.52,17.31 0,7.24 -0.17,13.03 -0.52,17.39 -0.34,4.35 -0.83,7.72 -1.46,10.12 -0.64,2.4 -1.42,3.99 -2.35,4.77 -0.93,0.78 -2.03,1.17 -3.3,1.17 -1.27,0 -2.42,-0.39 -3.45,-1.17 -1.03,-0.78 -1.88,-2.35 -2.57,-4.7 -0.68,-2.34 -1.2,-5.72 -1.54,-10.12 -0.34,-4.4 -0.51,-10.22 -0.51,-17.46z"/>
  <path id="2" class="fil4" d="M867.68 1092.76l19.37 0 -2.06 -67.2c0,-1.07 -0.07,-2.27 -0.22,-3.59 -0.14,-1.32 -0.07,-2.57 0.22,-3.74 -0.19,1.17 -0.19,2.34 0,3.52 0.2,1.17 0.39,2.2 0.59,3.08l11.15 67.93 24.65 0 11.15 -67.93c0.2,-0.98 0.32,-2.2 0.37,-3.67 0.05,-1.47 0.17,-2.83 0.37,-4.11 -0.1,1.47 -0.15,2.91 -0.15,4.33l0 4.18 -2.05 67.2 19.36 0 0 -102.7 -27.29 0 -13.2 72.77c-0.2,0.88 -0.3,1.64 -0.3,2.28 0,0.63 -0.05,1.29 -0.14,1.98l-0.44 0.88 -0.44 -0.88c-0.1,-0.69 -0.15,-1.35 -0.15,-1.98 0,-0.64 -0.1,-1.4 -0.29,-2.28l-13.21 -72.77 -27.29 0 0 102.7z"/>
  <path id="3" class="fil4" d="M959.24 1092.76l19.36 0 -2.05 -67.2c0,-1.07 -0.07,-2.27 -0.22,-3.59 -0.15,-1.32 -0.07,-2.57 0.22,-3.74 -0.2,1.17 -0.2,2.34 0,3.52 0.2,1.17 0.39,2.2 0.59,3.08l11.15 67.93 24.65 0 11.15 -67.93c0.2,-0.98 0.32,-2.2 0.37,-3.67 0.04,-1.47 0.17,-2.83 0.36,-4.11 -0.1,1.47 -0.14,2.91 -0.14,4.33l0 4.18 -2.06 67.2 19.37 0 0 -102.7 -27.29 0 -13.21 72.77c-0.19,0.88 -0.29,1.64 -0.29,2.28 0,0.63 -0.05,1.29 -0.15,1.98l-0.44 0.88 -0.44 -0.88c-0.1,-0.69 -0.14,-1.35 -0.14,-1.98 0,-0.64 -0.1,-1.4 -0.3,-2.28l-13.2 -72.77 -27.29 0 0 102.7z"/>
  <path id="4" class="fil4" d="M1065.76 1092.76l22.74 0 0 -35.21 19.81 -67.49 -21.86 0 -8.37 38.44c-0.39,1.47 -0.63,3.18 -0.73,5.13 -0.1,1.96 -0.15,3.92 -0.15,5.87 -0.19,-2.15 -0.31,-4.13 -0.36,-5.94 -0.05,-1.81 -0.27,-3.5 -0.66,-5.06l-8.66 -38.44 -22.01 0 20.25 67.49 0 35.21z"/>
  <polygon id="5" class="fil4" points="1109.48,1021.01 1124.74,1021.01 1135.89,990.06 1114.47,990.06 "/>
  <path id="6" class="fil4" d="M1184.17 1064.59c0,-5.57 -0.62,-10.22 -1.84,-13.94 -1.22,-3.71 -2.74,-6.84 -4.55,-9.39 -1.81,-2.54 -3.79,-4.69 -5.94,-6.45 -2.15,-1.76 -4.13,-3.5 -5.94,-5.21 -1.81,-1.71 -3.33,-3.57 -4.55,-5.58 -1.22,-2 -1.83,-4.57 -1.83,-7.7 0,-2.45 0.39,-4.4 1.17,-5.87 0.78,-1.47 1.79,-2.54 3.01,-3.23 1.22,-0.68 2.57,-1.12 4.03,-1.32 1.47,-0.19 2.84,-0.29 4.11,-0.29 2.25,0 4.26,0.22 6.02,0.66 1.76,0.44 3.08,0.81 3.96,1.1l1.32 -16.58c-0.69,-0.2 -1.66,-0.42 -2.94,-0.66 -1.27,-0.25 -2.71,-0.47 -4.32,-0.66 -1.62,-0.2 -3.3,-0.37 -5.07,-0.52 -1.76,-0.14 -3.47,-0.21 -5.13,-0.21 -9.1,0 -15.85,2.2 -20.25,6.6 -4.4,4.4 -6.6,11.69 -6.6,21.86 0,5.67 0.61,10.32 1.83,13.94 1.23,3.62 2.74,6.63 4.55,9.02 1.81,2.4 3.79,4.43 5.94,6.09 2.16,1.66 4.14,3.35 5.95,5.06 1.8,1.71 3.32,3.62 4.54,5.73 1.23,2.1 1.84,4.81 1.84,8.14 0,2.44 -0.32,4.43 -0.96,5.94 -0.63,1.52 -1.51,2.72 -2.64,3.6 -1.12,0.88 -2.47,1.46 -4.03,1.76 -1.57,0.29 -3.23,0.44 -4.99,0.44 -1.37,0 -3.35,-0.17 -5.94,-0.52 -2.6,-0.34 -4.82,-0.75 -6.68,-1.24l-1.17 16.72c0.98,0.39 2.37,0.74 4.18,1.03 1.81,0.29 3.74,0.54 5.79,0.73 2.06,0.2 4.11,0.35 6.17,0.44 2.05,0.1 3.76,0.15 5.13,0.15 3.13,0 6.24,-0.39 9.32,-1.17 3.08,-0.79 5.84,-2.25 8.29,-4.4 2.44,-2.16 4.43,-5.16 5.94,-9.03 1.52,-3.86 2.28,-8.88 2.28,-15.04z"/>
  <path id="7" class="fil4" d="M825.79 1168.65c0,-6.65 0.29,-12.15 0.88,-16.51 0.59,-4.35 1.47,-7.82 2.64,-10.41 1.18,-2.6 2.67,-4.41 4.48,-5.43 1.81,-1.03 3.98,-1.54 6.53,-1.54 1.95,0 3.74,0.07 5.35,0.22 1.62,0.14 2.96,0.56 4.04,1.24l2.93 -18.78c-2.74,-1.07 -5.45,-1.86 -8.14,-2.34 -2.69,-0.49 -5.6,-0.74 -8.73,-0.74 -5.09,0 -9.64,0.78 -13.65,2.35 -4.01,1.56 -7.41,4.38 -10.19,8.44 -2.79,4.05 -4.92,9.58 -6.39,16.58 -1.46,6.99 -2.2,15.87 -2.2,26.63 0,10.07 0.66,18.44 1.98,25.09 1.32,6.65 3.3,11.93 5.94,15.84 2.65,3.92 5.97,6.68 9.98,8.29 4.01,1.62 8.71,2.42 14.09,2.42 2.93,0 5.82,-0.22 8.65,-0.66 2.84,-0.44 5.53,-1.19 8.07,-2.27l-1.46 -19.51c-1.67,0.68 -3.48,1.17 -5.43,1.46 -1.96,0.3 -3.91,0.44 -5.87,0.44 -2.25,0 -4.21,-0.34 -5.87,-1.02 -1.66,-0.69 -3.06,-2.11 -4.18,-4.26 -1.13,-2.15 -1.98,-5.26 -2.57,-9.32 -0.59,-4.06 -0.88,-9.46 -0.88,-16.21z"/>
  <path id="8" class="fil4" d="M920.13 1218.54l-23.32 -102.71 -20.55 0 -23.18 102.71 20.84 0 3.66 -19.66 17.9 0 3.67 19.66 20.98 0zm-39.46 -36.39l5.28 -27.88c0.1,-0.39 0.17,-1.05 0.22,-1.98l0.14 -2.79c0.05,-0.93 0.1,-1.73 0.15,-2.42l0.07 -1.03c0,1.67 0.05,3.26 0.15,4.77 0.1,1.52 0.25,2.67 0.44,3.45l5.14 27.88 -11.59 0z"/>
  <path id="9" class="fil4" d="M967.97 1190.36c0,-5.57 -0.61,-10.22 -1.84,-13.93 -1.22,-3.72 -2.74,-6.85 -4.54,-9.39 -1.81,-2.55 -3.8,-4.7 -5.95,-6.46 -2.15,-1.76 -4.13,-3.5 -5.94,-5.21 -1.81,-1.71 -3.33,-3.57 -4.55,-5.57 -1.22,-2.01 -1.83,-4.58 -1.83,-7.71 0,-2.44 0.39,-4.4 1.17,-5.87 0.78,-1.46 1.79,-2.54 3.01,-3.22 1.22,-0.69 2.57,-1.13 4.03,-1.32 1.47,-0.2 2.84,-0.3 4.11,-0.3 2.25,0 4.26,0.22 6.02,0.66 1.76,0.44 3.08,0.81 3.96,1.1l1.32 -16.58c-0.68,-0.19 -1.66,-0.41 -2.93,-0.66 -1.28,-0.24 -2.72,-0.46 -4.33,-0.66 -1.62,-0.19 -3.3,-0.36 -5.06,-0.51 -1.77,-0.15 -3.48,-0.22 -5.14,-0.22 -9.1,0 -15.85,2.2 -20.25,6.6 -4.4,4.4 -6.6,11.69 -6.6,21.86 0,5.68 0.61,10.32 1.83,13.94 1.23,3.62 2.74,6.63 4.55,9.03 1.81,2.39 3.79,4.42 5.94,6.08 2.16,1.67 4.14,3.36 5.95,5.07 1.81,1.71 3.32,3.62 4.55,5.72 1.22,2.1 1.83,4.82 1.83,8.14 0,2.45 -0.32,4.43 -0.95,5.95 -0.64,1.51 -1.52,2.71 -2.65,3.59 -1.12,0.88 -2.47,1.47 -4.03,1.76 -1.57,0.29 -3.23,0.44 -4.99,0.44 -1.37,0 -3.35,-0.17 -5.94,-0.51 -2.59,-0.35 -4.82,-0.76 -6.68,-1.25l-1.17 16.73c0.98,0.39 2.37,0.73 4.18,1.02 1.81,0.3 3.74,0.54 5.8,0.74 2.05,0.19 4.1,0.34 6.16,0.44 2.05,0.1 3.76,0.14 5.13,0.14 3.13,0 6.24,-0.39 9.32,-1.17 3.08,-0.78 5.85,-2.25 8.29,-4.4 2.45,-2.15 4.43,-5.16 5.94,-9.02 1.52,-3.87 2.28,-8.88 2.28,-15.05z"/>
  <polygon id="10" class="fil4" points="973.98,1218.54 995.55,1218.54 995.55,1115.83 973.98,1115.83 "/>
  <path id="11" class="fil4" d="M1024.9 1218.54l0 -38.15c0,-3.23 -0.2,-6.73 -0.59,-10.49 -0.39,-3.77 -0.69,-7.41 -0.88,-10.93 0.29,2.93 0.66,5.89 1.1,8.87 0.44,2.99 0.86,5.02 1.25,6.09l14.08 44.61 20.4 0 0 -102.71 -20.4 0 0 56.19c-0.1,-2.15 -0.19,-4.18 -0.29,-6.08 -0.1,-1.91 -0.25,-3.26 -0.44,-4.04l-14.23 -46.07 -20.54 0 0 102.71 20.54 0z"/>
  <path id="12" class="fil4" d="M1067.01 1167.18c0,9.2 0.53,17.12 1.61,23.77 1.08,6.65 2.81,12.13 5.21,16.44 2.4,4.3 5.55,7.48 9.46,9.53 3.92,2.06 8.71,3.08 14.38,3.08 5.58,0 10.3,-1.02 14.16,-3.08 3.86,-2.05 6.99,-5.23 9.39,-9.53 2.4,-4.31 4.13,-9.79 5.21,-16.44 1.08,-6.65 1.61,-14.57 1.61,-23.77 0,-9.19 -0.53,-17.12 -1.61,-23.77 -1.08,-6.65 -2.81,-12.13 -5.21,-16.43 -2.4,-4.3 -5.53,-7.48 -9.39,-9.54 -3.86,-2.05 -8.58,-3.08 -14.16,-3.08 -5.67,0 -10.46,1.03 -14.38,3.08 -3.91,2.06 -7.06,5.24 -9.46,9.54 -2.4,4.3 -4.13,9.78 -5.21,16.43 -1.08,6.65 -1.61,14.58 -1.61,23.77zm22.59 0c0,-7.14 0.17,-12.91 0.52,-17.31 0.34,-4.4 0.85,-7.8 1.54,-10.2 0.68,-2.39 1.54,-3.98 2.56,-4.77 1.03,-0.78 2.18,-1.17 3.45,-1.17 1.27,0 2.37,0.39 3.3,1.17 0.93,0.79 1.71,2.38 2.35,4.77 0.64,2.4 1.13,5.8 1.47,10.2 0.34,4.4 0.51,10.17 0.51,17.31 0,7.24 -0.17,13.04 -0.51,17.39 -0.34,4.35 -0.83,7.73 -1.47,10.12 -0.64,2.4 -1.42,3.99 -2.35,4.77 -0.93,0.78 -2.03,1.18 -3.3,1.18 -1.27,0 -2.42,-0.4 -3.45,-1.18 -1.02,-0.78 -1.88,-2.35 -2.56,-4.69 -0.69,-2.35 -1.2,-5.73 -1.54,-10.13 -0.35,-4.4 -0.52,-10.22 -0.52,-17.46z"/>
  <path class="fil4" d="M829.57 1331.89l35.38 0c0.87,0 1.53,-0.2 1.98,-0.59 0.45,-0.39 0.83,-1.09 1.1,-2.1l1.4 0 0 15.83 -1.4 0c-0.27,-1.02 -0.65,-1.71 -1.1,-2.1 -0.45,-0.4 -1.11,-0.6 -1.98,-0.6l-45.04 0c-1.45,0 -2.42,0.18 -2.93,0.51 -0.5,0.35 -0.88,1.07 -1.14,2.22l-1.39 0c-0.03,-1.42 -0.05,-2.34 -0.05,-2.73 0,-3.64 0.41,-6.62 1.24,-8.97 1.66,-4.77 4.77,-8.82 9.32,-12.14 2.35,-1.69 6.18,-3.77 11.48,-6.2l7.16 -3.28c3.35,-1.57 5.77,-3.18 7.25,-4.84 1.48,-1.66 2.22,-3.63 2.22,-5.89 0,-2.58 -0.88,-4.55 -2.65,-5.9 -1.76,-1.35 -4.32,-2.02 -7.69,-2.02 -4.08,0 -7.9,1 -11.42,3.02 -3.42,1.93 -5.12,3.91 -5.12,5.96 0,0.48 0.22,1.36 0.67,2.67l-0.93 0.98 -11.31 -12.19 1.02 -0.93c1.07,0.51 1.87,0.75 2.37,0.75 0.45,0 0.86,-0.1 1.19,-0.28 0.34,-0.21 1.03,-0.77 2.08,-1.7 6.22,-5.41 13.9,-8.11 23.03,-8.11 6.57,0 11.81,1.61 15.75,4.85 3.99,3.29 5.97,7.67 5.97,13.15 0,5.38 -1.9,9.83 -5.71,13.35 -2.52,2.29 -5.88,4.39 -10.12,6.29l-6.52 2.95c-0.68,0.33 -2.22,0.98 -4.63,1.95 -2.93,1.19 -4.99,2.16 -6.17,2.92 -1.19,0.75 -2.3,1.81 -3.31,3.17z"/>
  <path id="1" class="fil4" d="M929.19 1283.26c7.62,0 13.94,2.48 18.99,7.44 5.67,5.6 8.5,13.27 8.5,23.03 0,3.06 -0.43,6.16 -1.28,9.3 -0.84,3.16 -2.02,5.89 -3.48,8.23 -2.58,4.07 -5.97,7.19 -10.19,9.3 -3.74,1.87 -7.9,2.82 -12.5,2.82 -7.61,0 -13.93,-2.5 -18.95,-7.49 -2.41,-2.42 -4.28,-5.14 -5.61,-8.17 -1.93,-4.48 -2.89,-9.28 -2.89,-14.43 0,-6.91 1.58,-12.89 4.76,-17.95 2.49,-3.99 5.9,-7.09 10.19,-9.26 3.58,-1.83 7.73,-2.76 12.46,-2.82zm0 9.83c-4.5,0 -8.09,2 -10.75,6.01 -2.46,3.71 -3.7,8.32 -3.7,13.83 0,5.51 1.24,10.12 3.7,13.83 2.66,4 6.27,6 10.79,6 4.55,0 8.15,-2 10.79,-6 2.46,-3.71 3.69,-8.23 3.69,-13.57 0,-5.77 -1.23,-10.47 -3.69,-14.09 -2.64,-3.95 -6.25,-5.95 -10.83,-6.01z"/>
  <path id="2" class="fil4" d="M996.57 1305.27l0 -15.39 1.39 0c0.32,1.05 0.61,1.73 0.9,2.05 0.28,0.31 0.71,0.47 1.31,0.47 0.29,0 0.68,-0.06 1.19,-0.18l3.65 -0.94 0 -2.51c0,-0.85 -0.2,-1.5 -0.6,-1.97 -0.39,-0.45 -1.08,-0.81 -2.1,-1.1l0 -1.39 17.66 0 0 1.39c-1.01,0.28 -1.71,0.64 -2.1,1.09 -0.39,0.43 -0.59,1.08 -0.59,1.97l0 49.08c0,0.88 0.2,1.55 0.59,2 0.39,0.45 1.09,0.81 2.1,1.1l0 1.39 -17.66 0 0 -1.39c1.02,-0.29 1.71,-0.65 2.1,-1.1 0.4,-0.45 0.6,-1.12 0.6,-2l0 -36.67 -3.99 0.97c-0.94,0.23 -1.61,0.55 -2.01,0.97 -0.42,0.42 -0.76,1.15 -1.05,2.16l-1.39 0z"/>
  <path id="3" class="fil4" d="M1061.71 1339l7.48 -13.89 1.19 0.59c-0.17,0.7 -0.25,1.26 -0.25,1.65 0,1.14 0.9,2.27 2.71,3.4 1.51,0.94 3.45,1.71 5.83,2.32 2.38,0.61 4.64,0.91 6.8,0.91 4.73,0 8.77,-1.23 12.11,-3.7 2.19,-1.65 3.8,-3.61 4.87,-5.87 1.06,-2.26 1.71,-5.25 1.97,-8.93 -2.85,2.55 -5.75,4.39 -8.68,5.51 -2.93,1.12 -6.32,1.68 -10.17,1.68 -6.14,0 -11.41,-1.46 -15.79,-4.38 -2.49,-1.68 -4.45,-3.84 -5.85,-6.51 -1.37,-2.58 -2.05,-5.4 -2.05,-8.48 0,-6.12 2.54,-11.02 7.6,-14.67 4.93,-3.58 11.16,-5.37 18.7,-5.37 8.21,0 14.65,2.08 19.29,6.21 3.08,2.72 5.38,6.22 6.88,10.47 1.44,4.09 2.16,8.35 2.16,12.8 0,9.05 -2.78,16.37 -8.36,21.95 -5.79,5.79 -13.27,8.69 -22.47,8.69 -3.24,0 -6.14,-0.29 -8.72,-0.87 -2.58,-0.58 -5.61,-1.64 -9.09,-3.18 -1.19,-0.54 -2.12,-0.8 -2.77,-0.8 -0.48,0 -0.96,0.18 -1.43,0.55 -0.38,0.31 -0.64,0.53 -0.82,0.64l-1.14 -0.72zm26.13 -46.17c-4.34,0 -7.85,1.08 -10.56,3.21 -2.26,1.75 -3.39,4.06 -3.39,6.9 0,2.8 1.13,5.09 3.39,6.87 2.68,2.13 6.21,3.21 10.56,3.21 4.37,0 7.9,-1.08 10.58,-3.21 2.26,-1.78 3.39,-4.04 3.39,-6.78 0,-2.87 -1.13,-5.21 -3.39,-6.99 -2.62,-2.12 -6.16,-3.18 -10.58,-3.21z"/>
  <path class="fil4" d="M1252.08 1533.92l7.73 13.3c0.35,0.6 0.69,1.01 1.04,1.24 0.35,0.24 0.76,0.32 1.25,0.28l0.56 0.97 -7.07 4.1 -0.56 -0.96c0.28,-0.44 0.41,-0.85 0.38,-1.25 -0.03,-0.4 -0.21,-0.9 -0.56,-1.5l-19.83 -34.14c-0.35,-0.62 -0.7,-1.03 -1.04,-1.26 -0.33,-0.22 -0.76,-0.33 -1.26,-0.29l-0.57 -0.97 14.14 -8.21c1.65,-0.95 3.08,-1.51 4.27,-1.68 1.2,-0.17 2.45,0.01 3.75,0.55 1.35,0.55 2.71,1.53 4.09,2.91 1.42,1.45 2.68,3.12 3.77,5 1.58,2.72 2.56,5.34 2.93,7.88 0.31,2.15 0.1,3.95 -0.64,5.36 -0.74,1.41 -2.15,2.73 -4.24,3.95l-8.14 4.72zm-3.86 -6.66l7.56 -4.39c1.51,-0.87 2.4,-1.77 2.67,-2.7 0.18,-0.6 0.14,-1.37 -0.09,-2.33 -0.24,-0.95 -0.64,-1.92 -1.22,-2.91 -0.55,-0.96 -1.19,-1.78 -1.9,-2.45 -0.71,-0.68 -1.37,-1.1 -1.98,-1.24 -0.92,-0.23 -2.15,0.1 -3.67,0.98l-7.56 4.39 6.19 10.65zm34.77 1.54l13.54 -8.68c0.34,-0.21 0.51,-0.51 0.51,-0.89 0,-0.37 -0.16,-0.94 -0.5,-1.69l0.53 -0.34 6.49 10.14 -0.53 0.34c-0.54,-0.62 -0.99,-1 -1.33,-1.16 -0.34,-0.15 -0.68,-0.13 -1.02,0.09l-19.4 12.42 -0.6 -0.94c0.26,-0.45 0.37,-0.86 0.32,-1.26 -0.04,-0.4 -0.26,-0.9 -0.64,-1.5l-21.27 -33.23c-0.39,-0.59 -0.75,-1 -1.1,-1.21 -0.34,-0.21 -0.77,-0.29 -1.28,-0.23l-0.6 -0.94 6.88 -4.41 0.61 0.94c-0.28,0.42 -0.39,0.83 -0.33,1.25 0.05,0.41 0.26,0.91 0.65,1.51l19.07 29.79zm31.65 -26.65l-9.71 6.72 2.29 6.44c0.32,0.89 0.63,1.55 0.92,1.98 0.58,0.83 1.34,1.16 2.26,0.99l0.64 0.92 -7.12 4.94 -0.64 -0.93c0.31,-0.44 0.46,-0.92 0.42,-1.45 -0.04,-0.53 -0.29,-1.43 -0.76,-2.71l-12.5 -34.94c-0.4,-1.11 -0.79,-1.95 -1.18,-2.51 -0.6,-0.86 -1.33,-1.27 -2.2,-1.22l-0.64 -0.92 7.63 -5.29 0.64 0.92c-0.41,0.75 -0.33,1.52 0.22,2.31 0.37,0.53 0.9,1.09 1.58,1.64l28.66 23.86c1.22,1.02 2.11,1.66 2.7,1.94 0.58,0.28 1.14,0.33 1.68,0.18l0.64 0.92 -7.94 5.51 -0.64 -0.93c0.55,-0.69 0.49,-1.5 -0.17,-2.46 -0.28,-0.4 -0.79,-0.91 -1.53,-1.53l-5.25 -4.38zm-4.98 -4.31l-12.84 -11.15 5.87 15.99 6.97 -4.84zm18.11 -16.28l10.29 12.18c0.46,0.53 0.87,0.89 1.25,1.06 0.37,0.15 0.8,0.17 1.3,0.06l0.72 0.86 -6.24 5.27 -0.73 -0.86c0.19,-0.46 0.25,-0.89 0.15,-1.28 -0.1,-0.4 -0.38,-0.87 -0.83,-1.41l-10.29 -12.18 -20.14 -10.73c-1.73,-0.92 -2.95,-1.48 -3.68,-1.69 -0.72,-0.21 -1.34,-0.18 -1.87,0.09l-0.72 -0.86 7.91 -6.68 0.72 0.85c-0.5,0.75 -0.37,1.57 0.38,2.45 0.26,0.31 1.04,0.83 2.34,1.55l11.7 6.53 -4.37 -12.72c-0.46,-1.37 -0.85,-2.23 -1.16,-2.6 -0.33,-0.39 -0.71,-0.66 -1.12,-0.8 -0.43,-0.13 -0.82,-0.12 -1.2,0.05l-0.72 -0.86 7.73 -6.53 0.72 0.86c-0.35,0.48 -0.49,1.08 -0.4,1.83 0.09,0.75 0.43,2.04 1.05,3.9l7.21 21.66zm36.18 -21.99l-8.68 8 3.15 6.06c0.45,0.84 0.84,1.45 1.19,1.83 0.69,0.75 1.48,0.97 2.38,0.68l0.75 0.82 -6.37 5.87 -0.76 -0.83c0.25,-0.48 0.33,-0.98 0.22,-1.49 -0.11,-0.52 -0.49,-1.38 -1.13,-2.58l-17.2 -32.88c-0.54,-1.05 -1.05,-1.82 -1.52,-2.33 -0.71,-0.77 -1.48,-1.07 -2.34,-0.9l-0.76 -0.82 6.83 -6.29 0.76 0.82c-0.3,0.8 -0.11,1.55 0.53,2.25 0.45,0.48 1.05,0.96 1.79,1.41l31.69 19.68c1.34,0.84 2.32,1.35 2.93,1.55 0.62,0.19 1.18,0.17 1.7,-0.06l0.76 0.83 -7.11 6.54 -0.76 -0.82c0.44,-0.76 0.28,-1.56 -0.51,-2.42 -0.33,-0.36 -0.91,-0.79 -1.73,-1.31l-5.81 -3.61zm-5.52 -3.57l-14.26 -9.28 8.02 15.03 6.24 -5.75zm3.06 -22.55l21.24 18.77c0.53,0.48 0.99,0.76 1.38,0.87 0.39,0.11 0.81,0.06 1.29,-0.12l0.84 0.74 -5.07 5.74 -0.84 -0.75c0.13,-0.49 0.12,-0.92 -0.04,-1.29 -0.15,-0.38 -0.49,-0.8 -1.03,-1.27l-29.57 -26.16c-0.52,-0.45 -0.97,-0.73 -1.36,-0.84 -0.39,-0.11 -0.83,-0.07 -1.3,0.12l-0.83 -0.74 5.88 -6.66 0.84 0.75c-0.18,0.57 0.04,1.12 0.64,1.65 0.41,0.36 0.97,0.63 1.7,0.8l29.65 6.86 -20.73 -18.33c-0.51,-0.46 -0.97,-0.74 -1.35,-0.85 -0.39,-0.1 -0.83,-0.07 -1.3,0.13l-0.84 -0.74 5.08 -5.74 0.84 0.74c-0.14,0.49 -0.12,0.93 0.03,1.3 0.16,0.37 0.49,0.79 1.01,1.24l29.57 26.16c0.54,0.47 1,0.76 1.39,0.86 0.39,0.11 0.81,0.07 1.29,-0.12l0.84 0.74 -5.46 6.17 -0.84 -0.74c0.2,-0.54 0.01,-1.06 -0.56,-1.57 -0.34,-0.3 -1.15,-0.6 -2.42,-0.89l-29.97 -6.83zm40.04 -2.43l-32.37 -22.56c-0.58,-0.41 -1.07,-0.64 -1.47,-0.7 -0.4,-0.06 -0.83,0.02 -1.27,0.27l-0.92 -0.64 8.35 -11.98c1.83,-2.63 3.77,-4.27 5.82,-4.94 2.95,-0.94 6.56,-0.64 10.8,0.88 3.35,1.19 6.9,3.1 10.65,5.72 6.6,4.6 10.84,9.24 12.72,13.94 0.79,1.96 1.05,3.81 0.79,5.54 -0.27,1.71 -1.09,3.56 -2.48,5.55l-8.35 11.98 -0.92 -0.64c0.07,-0.51 0.01,-0.93 -0.18,-1.28 -0.2,-0.36 -0.59,-0.74 -1.17,-1.14zm-0.07 -7.04l4.11 -5.9c1.31,-1.88 1.84,-3.62 1.58,-5.2 -0.55,-3.4 -3.66,-7.08 -9.35,-11.04 -4.11,-2.87 -7.65,-4.52 -10.59,-4.95 -1.65,-0.23 -3.03,-0.11 -4.13,0.4 -1.13,0.51 -2.18,1.47 -3.18,2.9l-4.11 5.9 25.67 17.89zm6.71 -58.69l20.94 17.95c1.04,0.95 1.72,1.5 2.05,1.68 0.92,0.48 1.8,0.42 2.63,-0.22l0.99 0.53 -3.96 7.43 -0.98 -0.53c0.14,-0.89 -0.35,-1.64 -1.45,-2.23 -0.3,-0.16 -1.28,-0.47 -2.94,-0.95l-33.89 -9.54c-1.68,-0.47 -2.86,-0.71 -3.53,-0.73 -0.68,-0.02 -1.24,0.18 -1.69,0.59l-0.99 -0.53 4.26 -8.01 0.99 0.53c-0.1,0.85 0.31,1.52 1.22,2.01 0.46,0.24 1.16,0.51 2.13,0.78l24.19 6.98 -19.24 -16.58c-0.82,-0.71 -1.39,-1.16 -1.69,-1.32 -0.93,-0.49 -1.73,-0.43 -2.39,0.19l-0.99 -0.52 4.47 -8.41 0.99 0.53c-0.04,0.95 0.41,1.69 1.35,2.19 0.33,0.18 0.98,0.4 1.96,0.68l24.25 6.87 -18.96 -15.94c-0.94,-0.8 -1.66,-1.34 -2.19,-1.62 -0.89,-0.47 -1.69,-0.38 -2.4,0.29l-0.99 -0.53 4.23 -7.94 0.98 0.53c-0.02,0.71 0.13,1.29 0.46,1.74 0.33,0.45 1.2,1.28 2.6,2.47l26.85 22.78c1.28,1.09 2.16,1.76 2.64,2.01 0.99,0.53 1.82,0.46 2.48,-0.22l0.99 0.53 -4.01 7.53 -0.99 -0.52c0.19,-0.91 -0.26,-1.67 -1.38,-2.26 -0.39,-0.21 -1.39,-0.51 -3,-0.92l-25.99 -7.3zm38.7 -15.74l-37.2 -13.23c-0.65,-0.23 -1.17,-0.32 -1.57,-0.28 -0.4,0.05 -0.79,0.24 -1.16,0.6l-1.05 -0.37 2.74 -7.7 1.05 0.37c0.05,0.5 0.2,0.89 0.51,1.19 0.29,0.29 0.75,0.55 1.4,0.78l37.2 13.23c0.67,0.24 1.21,0.34 1.63,0.29 0.42,-0.05 0.79,-0.25 1.14,-0.6l1.05 0.38 -2.74 7.7 -1.05 -0.38c-0.07,-0.51 -0.24,-0.9 -0.52,-1.19 -0.28,-0.29 -0.76,-0.55 -1.43,-0.79zm-21.79 -24.69l27.22 7.91c0.68,0.2 1.22,0.26 1.62,0.19 0.39,-0.07 0.76,-0.29 1.11,-0.66l1.08 0.31 -2.14 7.36 -1.08 -0.31c-0.09,-0.51 -0.28,-0.89 -0.58,-1.16 -0.3,-0.28 -0.79,-0.51 -1.47,-0.71l-37.92 -11.03c-0.66,-0.19 -1.19,-0.25 -1.58,-0.18 -0.4,0.07 -0.78,0.29 -1.12,0.66l-1.07 -0.31 2.48 -8.53 1.07 0.31c0.08,0.6 0.51,1 1.29,1.23 0.52,0.15 1.14,0.15 1.88,-0.01l29.73 -6.46 -26.56 -7.72c-0.67,-0.19 -1.19,-0.25 -1.59,-0.18 -0.4,0.06 -0.78,0.28 -1.12,0.66l-1.07 -0.31 2.14 -7.36 1.07 0.31c0.09,0.5 0.29,0.89 0.59,1.16 0.3,0.27 0.77,0.51 1.43,0.7l37.92 11.03c0.68,0.2 1.22,0.26 1.62,0.19 0.4,-0.07 0.76,-0.29 1.12,-0.67l1.07 0.32 -2.3 7.91 -1.07 -0.32c-0.06,-0.57 -0.45,-0.96 -1.19,-1.18 -0.44,-0.13 -1.29,-0.05 -2.56,0.23l-30.02 6.62z"/>
  <path class="fil4" d="M488.17 1315.24l-15.2 2.38c-0.68,0.11 -1.19,0.28 -1.53,0.52 -0.35,0.24 -0.58,0.59 -0.72,1.07l-1.1 0.17 -1.27 -8.07 1.11 -0.18c0.3,0.42 0.64,0.68 1.02,0.8 0.39,0.12 0.92,0.13 1.6,0.02l39.01 -6.11c0.7,-0.11 1.22,-0.28 1.55,-0.51 0.33,-0.24 0.58,-0.59 0.73,-1.08l1.1 -0.17 2.54 16.15c0.29,1.88 0.29,3.41 0.02,4.59 -0.28,1.18 -0.9,2.28 -1.87,3.3 -1,1.05 -2.41,1.96 -4.2,2.76 -1.86,0.79 -3.87,1.36 -6.02,1.7 -3.11,0.48 -5.91,0.44 -8.41,-0.13 -2.12,-0.49 -3.71,-1.34 -4.76,-2.54 -1.05,-1.2 -1.77,-2.99 -2.15,-5.38l-1.45 -9.29zm7.6 -1.19l1.36 8.63c0.27,1.72 0.78,2.88 1.55,3.47 0.49,0.38 1.23,0.63 2.2,0.76 0.98,0.12 2.03,0.1 3.16,-0.08 1.09,-0.17 2.08,-0.47 2.97,-0.88 0.9,-0.42 1.52,-0.88 1.88,-1.4 0.55,-0.78 0.68,-2.04 0.41,-3.77l-1.36 -8.64 -12.17 1.91zm-12.46 31.15l4.76 15.37c0.12,0.38 0.37,0.62 0.73,0.72 0.36,0.1 0.94,0.1 1.76,-0.03l0.19 0.6 -11.5 3.57 -0.19 -0.6c0.75,-0.36 1.23,-0.69 1.47,-0.98 0.24,-0.29 0.31,-0.62 0.19,-1.01l-6.82 -22 1.07 -0.33c0.36,0.37 0.73,0.58 1.13,0.64 0.4,0.06 0.94,-0.01 1.62,-0.22l37.68 -11.67c0.68,-0.21 1.16,-0.46 1.46,-0.74 0.29,-0.27 0.49,-0.66 0.56,-1.17l1.07 -0.33 2.42 7.81 -1.07 0.33c-0.33,-0.38 -0.7,-0.59 -1.11,-0.65 -0.41,-0.06 -0.95,0.01 -1.63,0.23l-33.79 10.46zm18.72 35.78l-4.88 -10.76 -6.74 1.11c-0.94,0.16 -1.64,0.34 -2.12,0.56 -0.92,0.42 -1.38,1.1 -1.38,2.04l-1.02 0.46 -3.58 -7.89 1.02 -0.46c0.38,0.39 0.83,0.62 1.35,0.67 0.53,0.06 1.46,-0.03 2.81,-0.26l36.61 -6.05c1.16,-0.19 2.05,-0.43 2.68,-0.72 0.96,-0.43 1.48,-1.08 1.59,-1.94l1.02 -0.47 3.84 8.46 -1.02 0.46c-0.66,-0.53 -1.43,-0.59 -2.31,-0.2 -0.59,0.27 -1.23,0.7 -1.9,1.26l-28.6 23.94c-1.21,1.02 -2.01,1.78 -2.38,2.31 -0.38,0.52 -0.53,1.06 -0.48,1.62l-1.02 0.47 -4 -8.8 1.02 -0.47c0.59,0.67 1.4,0.76 2.46,0.28 0.44,-0.21 1.04,-0.62 1.78,-1.24l5.25 -4.38zm5.12 -4.12l13.27 -10.65 -16.78 2.92 3.51 7.73zm12.69 19.71l-13.54 8.43c-0.59,0.36 -1,0.73 -1.22,1.07 -0.21,0.35 -0.29,0.77 -0.25,1.28l-0.95 0.59 -4.32 -6.94 0.95 -0.59c0.43,0.25 0.85,0.37 1.25,0.33 0.41,-0.04 0.92,-0.25 1.51,-0.62l13.54 -8.42 13.53 -18.38c1.16,-1.58 1.89,-2.7 2.21,-3.39 0.31,-0.68 0.37,-1.3 0.18,-1.87l0.95 -0.59 5.47 8.8 -0.95 0.59c-0.66,-0.6 -1.49,-0.59 -2.47,0.02 -0.35,0.22 -0.97,0.91 -1.87,2.1l-8.16 10.62 13.22 -2.48c1.42,-0.26 2.33,-0.52 2.74,-0.77 0.43,-0.27 0.76,-0.61 0.96,-1 0.19,-0.4 0.24,-0.79 0.12,-1.19l0.95 -0.59 5.35 8.59 -0.95 0.59c-0.43,-0.41 -1.01,-0.64 -1.76,-0.66 -0.76,-0.02 -2.09,0.14 -4.02,0.48l-22.47 4zm17.65 37.15l-7.34 -9.25 -6.27 2.71c-0.87,0.38 -1.51,0.73 -1.92,1.05 -0.8,0.64 -1.08,1.41 -0.84,2.32l-0.88 0.7 -5.39 -6.79 0.88 -0.69c0.46,0.28 0.95,0.39 1.48,0.32 0.52,-0.07 1.41,-0.38 2.65,-0.94l34.05 -14.74c1.09,-0.48 1.89,-0.92 2.43,-1.35 0.82,-0.65 1.18,-1.4 1.07,-2.27l0.88 -0.7 5.77 7.27 -0.87 0.7c-0.78,-0.36 -1.54,-0.23 -2.29,0.37 -0.51,0.4 -1.03,0.97 -1.54,1.68l-21.94 30.16c-0.93,1.28 -1.51,2.21 -1.75,2.81 -0.24,0.6 -0.26,1.16 -0.07,1.7l-0.88 0.69 -6.01 -7.56 0.88 -0.7c0.72,0.5 1.53,0.39 2.44,-0.33 0.39,-0.31 0.86,-0.85 1.43,-1.63l4.03 -5.53zm3.97 -5.24l10.29 -13.54 -15.57 6.9 5.28 6.64zm22.34 4.71l-20.23 19.85c-0.51,0.49 -0.83,0.93 -0.97,1.31 -0.13,0.38 -0.12,0.81 0.04,1.3l-0.8 0.79 -5.37 -5.47 0.8 -0.79c0.49,0.17 0.92,0.19 1.3,0.06 0.38,-0.13 0.83,-0.44 1.34,-0.94l28.18 -27.65c0.49,-0.48 0.81,-0.91 0.94,-1.29 0.13,-0.38 0.13,-0.82 -0.03,-1.3l0.8 -0.78 6.22 6.34 -0.8 0.78c-0.56,-0.22 -1.12,-0.04 -1.7,0.52 -0.39,0.39 -0.69,0.93 -0.92,1.65l-8.93 29.08 19.75 -19.38c0.49,-0.48 0.8,-0.91 0.93,-1.29 0.14,-0.38 0.14,-0.81 -0.03,-1.3l0.8 -0.78 5.37 5.47 -0.8 0.78c-0.48,-0.17 -0.92,-0.18 -1.3,-0.05 -0.38,0.12 -0.82,0.42 -1.31,0.91l-28.19 27.65c-0.51,0.49 -0.83,0.94 -0.96,1.32 -0.13,0.37 -0.12,0.8 0.03,1.3l-0.8 0.78 -5.77 -5.88 0.8 -0.79c0.53,0.24 1.07,0.09 1.62,-0.45 0.32,-0.32 0.67,-1.1 1.05,-2.34l8.94 -29.41zm0.15 40.04l25.56 -30.05c0.46,-0.54 0.74,-1.01 0.84,-1.4 0.1,-0.39 0.06,-0.82 -0.15,-1.29l0.73 -0.85 11.12 9.47c2.44,2.07 3.89,4.16 4.36,6.26 0.65,3.03 0.01,6.59 -1.92,10.66 -1.51,3.23 -3.74,6.57 -6.71,10.06 -5.21,6.13 -10.25,9.9 -15.1,11.32 -2.03,0.59 -3.9,0.68 -5.59,0.25 -1.67,-0.43 -3.44,-1.43 -5.28,-3l-11.13 -9.46 0.72 -0.86c0.5,0.12 0.93,0.1 1.3,-0.06 0.37,-0.16 0.79,-0.51 1.25,-1.05zm7.01 0.61l5.48 4.66c1.74,1.48 3.42,2.17 5.02,2.06 3.44,-0.21 7.39,-2.96 11.89,-8.24 3.25,-3.81 5.23,-7.18 5.94,-10.07 0.39,-1.61 0.4,-3 0,-4.15 -0.39,-1.16 -1.25,-2.3 -2.58,-3.43l-5.47 -4.66 -20.28 23.83zm58.02 12.96l-20.43 18.52c-1.07,0.91 -1.7,1.52 -1.92,1.82 -0.6,0.85 -0.64,1.73 -0.12,2.63l-0.64 0.92 -6.88 -4.85 0.65 -0.92c0.87,0.26 1.67,-0.13 2.39,-1.15 0.2,-0.28 0.63,-1.21 1.32,-2.8l13.71 -32.43c0.68,-1.6 1.07,-2.74 1.18,-3.41 0.1,-0.67 -0.03,-1.25 -0.38,-1.75l0.65 -0.91 7.41 5.23 -0.64 0.92c-0.84,-0.21 -1.56,0.11 -2.15,0.95 -0.3,0.43 -0.66,1.09 -1.05,2.02l-9.96 23.12 18.87 -17.01c0.81,-0.72 1.32,-1.23 1.51,-1.51 0.61,-0.86 0.65,-1.66 0.11,-2.39l0.65 -0.92 7.78 5.5 -0.65 0.91c-0.94,-0.16 -1.73,0.19 -2.34,1.06 -0.22,0.31 -0.51,0.92 -0.92,1.87l-9.86 23.19 18.19 -16.81c0.91,-0.83 1.54,-1.48 1.89,-1.97 0.58,-0.82 0.58,-1.63 0.01,-2.42l0.65 -0.91 7.34 5.18 -0.64 0.92c-0.71,-0.11 -1.3,-0.03 -1.79,0.24 -0.49,0.27 -1.42,1.03 -2.78,2.26l-25.97 23.78c-1.24,1.13 -2.02,1.93 -2.33,2.37 -0.64,0.91 -0.68,1.74 -0.09,2.49l-0.64 0.91 -6.97 -4.92 0.64 -0.92c0.88,0.31 1.68,-0.05 2.42,-1.09 0.25,-0.35 0.67,-1.31 1.29,-2.86l10.49 -24.86zm7.59 39.26l19.85 -34.13c0.34,-0.6 0.53,-1.1 0.56,-1.5 0.03,-0.4 -0.09,-0.82 -0.38,-1.24l0.57 -0.97 7.06 4.11 -0.56 0.97c-0.51,-0.05 -0.92,0.03 -1.26,0.28 -0.34,0.23 -0.69,0.64 -1.03,1.23l-19.85 34.14c-0.36,0.61 -0.55,1.12 -0.58,1.54 -0.03,0.42 0.1,0.82 0.38,1.23l-0.57 0.97 -7.06 -4.11 0.56 -0.97c0.52,0.03 0.93,-0.07 1.27,-0.29 0.33,-0.22 0.68,-0.64 1.04,-1.26zm28.95 -16.19l-13.31 25.03c-0.34,0.63 -0.51,1.14 -0.52,1.54 -0.01,0.41 0.13,0.81 0.42,1.23l-0.53 0.99 -6.76 -3.6 0.53 -0.98c0.51,0 0.93,-0.1 1.25,-0.34 0.33,-0.24 0.66,-0.67 0.99,-1.3l18.55 -34.86c0.32,-0.6 0.48,-1.11 0.5,-1.51 0.01,-0.41 -0.12,-0.82 -0.42,-1.23l0.52 -0.99 7.85 4.17 -0.53 0.99c-0.6,-0.04 -1.08,0.3 -1.46,1.01 -0.26,0.48 -0.38,1.09 -0.38,1.84l0.24 30.43 13 -24.43c0.32,-0.61 0.48,-1.11 0.5,-1.52 0.01,-0.4 -0.12,-0.81 -0.42,-1.23l0.52 -0.98 6.77 3.59 -0.53 0.99c-0.51,-0.02 -0.93,0.1 -1.25,0.34 -0.33,0.24 -0.66,0.66 -0.98,1.26l-18.54 34.86c-0.33,0.63 -0.51,1.15 -0.52,1.55 -0.01,0.4 0.13,0.81 0.42,1.23l-0.52 0.99 -7.28 -3.87 0.53 -0.99c0.57,0.07 1.04,-0.24 1.4,-0.92 0.21,-0.4 0.31,-1.25 0.3,-2.55l-0.34 -30.74z"/>
  <path class="fil4" d="M814.9 1524l-16.58 91.46 15.73 2.85c2.31,0.42 4.68,0.51 7.14,0.28 2.45,-0.23 4.8,-1.18 7.05,-2.84 2.25,-1.66 4.29,-4.19 6.13,-7.59 1.84,-3.4 3.3,-8.11 4.39,-14.12 1.16,-6.36 1.39,-11.78 0.72,-16.26 -0.67,-4.49 -2.78,-7.72 -6.31,-9.71 2.55,-0.62 4.74,-2.41 6.57,-5.36 1.82,-2.95 3.18,-6.91 4.08,-11.88 1.34,-7.4 0.89,-12.99 -1.37,-16.77 -2.25,-3.79 -6.51,-6.25 -12.78,-7.38l-14.77 -2.68zm-0.49 79.8l5.09 -28.09 2.01 0.36c1.15,0.21 2.04,0.76 2.68,1.64 0.63,0.87 1.05,2.01 1.26,3.4 0.21,1.38 0.24,2.98 0.07,4.8 -0.16,1.81 -0.42,3.72 -0.79,5.73 -0.75,4.18 -1.79,7.41 -3.09,9.69 -1.31,2.28 -3.08,3.22 -5.32,2.82l-1.91 -0.35zm7.88 -43.51l3.55 -19.6 1.06 0.19c1.79,0.33 2.97,1.26 3.55,2.81 0.58,1.54 0.56,4.01 -0.05,7.41 -0.56,3.05 -1.39,5.46 -2.5,7.24 -1.12,1.77 -2.57,2.5 -4.36,2.18l-1.25 -0.23zm16.12 61.71l29.41 4.33 2.54 -17.21 -15.24 -2.24 11.01 -74.75 -14.18 -2.08 -13.54 91.95zm73.78 8.47l-7.94 -93.9 -13.6 -1.1 -22.87 91.4 13.8 1.12 3.87 -17.54 11.85 0.96 0.99 17.93 13.9 1.13zm-23.48 -34.94l5.54 -24.86c0.09,-0.35 0.19,-0.94 0.29,-1.78l0.3 -2.51c0.1,-0.83 0.19,-1.56 0.27,-2.17l0.13 -0.92c-0.13,1.5 -0.21,2.93 -0.26,4.31 -0.04,1.37 -0.03,2.41 0.05,3.13l1.36 25.42 -7.68 -0.62zm39.63 -8.96c0.3,-6.01 0.73,-10.97 1.31,-14.89 0.58,-3.91 1.32,-7.02 2.21,-9.33 0.89,-2.3 1.96,-3.89 3.21,-4.76 1.25,-0.87 2.71,-1.26 4.4,-1.18 1.3,0.06 2.48,0.18 3.54,0.37 1.07,0.18 1.94,0.6 2.63,1.26l2.77 -16.88c-1.77,-1.07 -3.54,-1.86 -5.3,-2.39 -1.77,-0.53 -3.69,-0.84 -5.76,-0.94 -3.38,-0.17 -6.43,0.39 -9.16,1.68 -2.73,1.28 -5.11,3.72 -7.14,7.3 -2.03,3.58 -3.68,8.5 -4.96,14.78 -1.28,6.27 -2.16,14.27 -2.63,24 -0.44,9.1 -0.37,16.68 0.21,22.74 0.59,6.05 1.67,10.89 3.25,14.51 1.58,3.62 3.67,6.23 6.26,7.82 2.59,1.59 5.67,2.47 9.24,2.64 1.95,0.09 3.87,-0.01 5.77,-0.32 1.9,-0.3 3.72,-0.9 5.46,-1.79l-0.12 -17.69c-1.13,0.57 -2.36,0.95 -3.67,1.15 -1.31,0.2 -2.61,0.27 -3.91,0.21 -1.49,-0.07 -2.78,-0.44 -3.85,-1.12 -1.07,-0.67 -1.94,-2 -2.59,-3.98 -0.65,-1.98 -1.08,-4.81 -1.29,-8.5 -0.21,-3.69 -0.17,-8.58 0.12,-14.69zm25.91 45.58l14.33 -0.23 -0.65 -39.96 6.59 39.86 15.31 -0.25 -9.04 -46.46 7.83 -46.47 -14.52 0.23 -6.36 40.87 -0.66 -40.76 -14.33 0.23 1.5 92.94zm59.73 -23.28l0 0 -3.44 -70.69 -14.31 0.7 3.43 70.55c0.13,2.83 -0.23,4.76 -1.09,5.77 -0.86,1.02 -1.84,1.55 -2.95,1.61 -0.97,0.04 -1.77,0.04 -2.39,-0.02 -0.62,-0.06 -1.29,-0.16 -2.02,-0.3l0.25 15.14c0.8,0.41 2.14,0.76 4.01,1.07 1.87,0.31 3.74,0.42 5.62,0.32 2.02,-0.09 3.86,-0.58 5.54,-1.46 1.69,-0.88 3.12,-2.26 4.29,-4.13 1.18,-1.87 2.04,-4.33 2.57,-7.37 0.54,-3.04 0.7,-6.77 0.49,-11.19zm48.04 18.41l-22.96 -91.39 -13.61 1.11 -7.84 93.88 13.8 -1.12 0.99 -17.93 11.86 -0.96 3.86 17.54 13.9 -1.13zm-28.8 -30.7l1.46 -25.43c0.03,-0.36 0.03,-0.96 0,-1.8l-0.11 -2.52c-0.03,-0.84 -0.06,-1.57 -0.08,-2.19l-0.02 -0.93c0.12,1.5 0.27,2.93 0.44,4.29 0.18,1.36 0.36,2.39 0.55,3.09l5.44 24.87 -7.68 0.62zm37.57 -16.42c-0.68,-5.98 -1.05,-10.95 -1.11,-14.9 -0.06,-3.96 0.17,-7.15 0.68,-9.57 0.51,-2.42 1.31,-4.16 2.4,-5.22 1.08,-1.06 2.47,-1.68 4.15,-1.87 1.29,-0.15 2.47,-0.22 3.55,-0.21 1.09,0.01 2.02,0.29 2.8,0.82l0.01 -17.11c-1.92,-0.76 -3.79,-1.26 -5.62,-1.5 -1.82,-0.23 -3.77,-0.23 -5.83,0 -3.36,0.38 -6.29,1.43 -8.77,3.14 -2.49,1.71 -4.45,4.49 -5.87,8.35 -1.42,3.86 -2.26,8.99 -2.51,15.39 -0.26,6.4 0.17,14.43 1.27,24.11 1.03,9.06 2.33,16.53 3.88,22.41 1.55,5.88 3.4,10.48 5.55,13.8 2.14,3.32 4.62,5.56 7.43,6.7 2.81,1.15 6,1.53 9.55,1.12 1.94,-0.22 3.82,-0.63 5.65,-1.24 1.82,-0.61 3.52,-1.5 5.09,-2.66l-2.97 -17.43c-1.03,0.74 -2.17,1.31 -3.43,1.73 -1.26,0.41 -2.54,0.69 -3.83,0.83 -1.49,0.17 -2.81,0.01 -3.98,-0.48 -1.17,-0.49 -2.23,-1.66 -3.2,-3.51 -0.96,-1.85 -1.84,-4.58 -2.65,-8.18 -0.8,-3.61 -1.55,-8.45 -2.24,-14.52zm26.42 42.22l14.1 -2.56 -7.13 -39.32 12.98 38.26 15.06 -2.73 -16.46 -44.38 0.18 -47.12 -14.3 2.59 0.37 41.36 -7.27 -40.11 -14.1 2.55 16.57 91.46z"/>
 </g>
</svg>
